<svg width="125" height="128" viewBox="0 0 125 128" fill="none" xmlns="http://www.w3.org/2000/svg">
<g id="Icon_5">
<path id="Vector" d="M106.929 75.1903C106.925 75.1868 106.919 75.1839 106.916 75.1775L101.888 70.6634C102.058 69.3022 102.147 67.9544 102.147 66.6412C102.147 65.3279 102.058 63.9802 101.888 62.619L106.929 58.092C108.592 56.5617 108.971 54.1342 107.844 52.1664L102.297 42.793C101.185 40.8603 98.7699 39.9401 96.5572 40.6146L90.0328 42.6269C87.8202 40.9433 85.4339 39.5886 82.9232 38.5918L81.4167 32.0461C80.923 29.88 78.9192 28.3053 76.6508 28.3053H65.5377C63.2688 28.3053 61.2656 29.88 60.7718 32.0432L59.2647 38.5918C56.7546 39.5886 54.3683 40.9433 52.1557 42.6269L45.6247 40.6146C43.4252 39.9466 41.0031 40.8573 39.9048 42.7737L34.3351 52.1851C33.2171 54.1342 33.5959 56.5617 35.2765 58.1049L40.3034 62.619C40.1304 63.9802 40.0419 65.3279 40.0419 66.6412C40.0419 67.9544 40.1304 69.3022 40.3004 70.6634L35.2598 75.1903C33.5959 76.7206 33.2171 79.1482 34.3447 81.1131L39.8916 90.4859C41.0031 92.4221 43.415 93.3387 45.6313 92.6678L52.1557 90.6555C54.3683 92.339 56.7546 93.6938 59.2647 94.6905L60.7718 101.233C61.2656 103.402 63.2688 104.977 65.5377 104.977H76.6508C78.9192 104.977 80.923 103.402 81.4167 101.239L82.9232 94.6905C85.4339 93.6938 87.8202 92.3419 90.0328 90.6555L96.5638 92.6678C98.7699 93.3422 101.185 92.4221 102.287 90.5052L107.857 81.0938C108.971 79.1482 108.592 76.7206 106.929 75.1903ZM70.6841 85.6115C61.6724 85.6115 51.3693 77.312 51.3693 65.0603C51.3693 56.2526 62.6138 47.6708 71.6256 47.6708C82.3104 47.6708 90.8209 55.5751 90.8209 66.6412C90.8209 75.4489 83.8346 85.6115 70.6841 85.6115Z" fill="url(#paint0_linear_1_43170)"/>
<g id="Vector_2" filter="url(#filter0_b_1_43170)">
<path d="M108.774 75.4559C108.77 75.4521 108.763 75.4489 108.76 75.4419L103.335 70.5377C103.519 69.0588 103.614 67.5946 103.614 66.1679C103.614 64.7412 103.519 63.277 103.335 61.7981L108.774 56.8799C110.568 55.2174 110.978 52.58 109.761 50.4422L103.776 40.2587C102.577 38.159 99.9708 37.1594 97.5835 37.8921L90.544 40.0783C88.1567 38.2493 85.582 36.7774 82.8731 35.6945L81.2477 28.5831C80.7149 26.2298 78.5529 24.519 76.1055 24.519H64.1151C61.667 24.519 59.5056 26.2298 58.9729 28.58L57.3469 35.6945C54.6386 36.7774 52.0639 38.2493 49.6765 40.0783L42.63 37.8921C40.2569 37.1663 37.6435 38.1558 36.4585 40.2378L30.4491 50.4625C29.2428 52.58 29.6516 55.2174 31.4649 56.8939L36.8886 61.7981C36.702 63.277 36.6064 64.7412 36.6064 66.1679C36.6064 67.5946 36.702 69.0588 36.8854 70.5377L31.4468 75.4559C29.6516 77.1184 29.2428 79.7558 30.4594 81.8904L36.4443 92.0732C37.6435 94.1768 40.2459 95.1726 42.6371 94.4437L49.6765 92.2575C52.0639 94.0865 54.6386 95.5584 57.3469 96.6413L58.9729 103.749C59.5056 106.106 61.667 107.817 64.1151 107.817H76.1055C78.5529 107.817 80.7149 106.106 81.2477 103.756L82.8731 96.6413C85.582 95.5584 88.1567 94.0897 90.544 92.2575L97.5906 94.4437C99.9708 95.1764 102.577 94.1768 103.765 92.0942L109.775 81.8695C110.978 79.7558 110.568 77.1184 108.774 75.4559ZM70.1103 83.5218C60.3871 83.5218 52.4766 75.7368 52.4766 66.1679C52.4766 56.599 60.3871 48.814 70.1103 48.814C79.8335 48.814 87.744 56.599 87.744 66.1679C87.744 75.7368 79.8335 83.5218 70.1103 83.5218Z" fill="url(#paint1_linear_1_43170)"/>
<path d="M108.053 76.151C108.076 76.1749 108.098 76.1941 108.115 76.2089C109.551 77.5568 109.872 79.6704 108.91 81.369C108.908 81.371 108.907 81.373 108.906 81.375L102.903 91.5875L102.903 91.5874L102.897 91.5986C101.951 93.2561 99.838 94.0892 97.8848 93.4879L90.8404 91.3024L90.3459 91.149L89.9352 91.4642C87.6188 93.2419 85.1239 94.6646 82.5019 95.7127L82.015 95.9074L81.8982 96.4186L80.2728 103.533L80.2724 103.535C79.8449 105.421 78.0947 106.817 76.1055 106.817H64.1151C62.126 106.817 60.3762 105.422 59.9483 103.528L59.9477 103.526L58.3217 96.4183L58.2048 95.9074L57.7181 95.7128C55.0973 94.6648 52.602 93.239 50.2847 91.4637L49.874 91.1491L49.38 91.3025L42.3455 93.4871C42.3445 93.4875 42.3435 93.4878 42.3425 93.4881C40.378 94.0854 38.2695 93.2557 37.3131 91.578L37.3131 91.5779L37.3064 91.5665L31.3282 81.3953C31.3272 81.3935 31.3261 81.3916 31.3251 81.3898C30.3432 79.6613 30.6732 77.5386 32.1221 76.1934L37.5561 71.2794L37.9417 70.9306L37.8778 70.4146C37.699 68.9733 37.6064 67.5503 37.6064 66.1679C37.6064 64.7855 37.699 63.3632 37.8807 61.9233L37.946 61.4061L37.5593 61.0564L32.1399 56.1561C30.6699 54.7938 30.3455 52.6705 31.3148 50.963L37.3206 40.7445L37.3207 40.7445L37.3276 40.7324C38.2679 39.0804 40.3851 38.2522 42.3358 38.8478C42.3364 38.848 42.337 38.8482 42.3376 38.8484L49.3802 41.0334L49.8742 41.1866L50.2847 40.8721C52.602 39.0968 55.0973 37.671 57.7181 36.623L58.2049 36.4284L58.3217 35.9173L59.9478 28.8028L59.9481 28.801C60.3757 26.915 62.1253 25.519 64.1151 25.519H76.1055C78.0944 25.519 79.8447 26.9148 80.2724 28.8039L80.2728 28.806L81.8982 35.9173L82.015 36.4284L82.5019 36.6231C85.1233 37.671 87.6186 39.0968 89.9359 40.8721L90.3466 41.1867L90.8406 41.0333L97.8769 38.8481C97.8772 38.848 97.8776 38.8479 97.8779 38.8478C99.837 38.247 101.951 39.0786 102.908 40.7547L102.908 40.7547L102.914 40.7654L108.892 50.9368C108.893 50.9387 108.894 50.9406 108.895 50.9425C109.878 52.6745 109.547 54.7974 108.098 56.1425C108.097 56.1437 108.096 56.145 108.094 56.1463L102.665 61.0564L102.279 61.4052L102.343 61.9212C102.522 63.3625 102.614 64.7855 102.614 66.1679C102.614 67.5503 102.522 68.9733 102.343 70.4146L102.279 70.9307L102.665 71.2794L108.053 76.151ZM108.17 76.2531C108.178 76.2585 108.18 76.2603 108.171 76.2539L108.171 76.2537C108.171 76.2535 108.171 76.2533 108.17 76.2531ZM51.4766 66.1679C51.4766 76.3041 59.85 84.5218 70.1103 84.5218C80.3706 84.5218 88.744 76.3041 88.744 66.1679C88.744 56.0317 80.3706 47.814 70.1103 47.814C59.85 47.814 51.4766 56.0317 51.4766 66.1679Z" stroke="url(#paint2_linear_1_43170)" stroke-opacity="0.7" stroke-width="2"/>
</g>
<g id="Vector_3" filter="url(#filter1_d_1_43170)">
<path d="M65.912 16.7809C65.5941 16.2953 65.0343 16 64.4317 16H33.6685C32.9169 16 32.25 16.4571 32.0138 17.1341L15.0884 65.6481C14.9124 66.1522 15.0024 66.7059 15.33 67.1363C15.6577 67.5668 16.1834 67.8217 16.743 67.8217H31.3787L17.8598 114.241C17.6323 115.022 18.0346 115.845 18.8101 116.184C19.0453 116.287 19.2935 116.336 19.5389 116.336C20.1031 116.336 20.6509 116.075 20.9841 115.607L63.0796 56.4785C63.4405 55.9715 63.477 55.317 63.1744 54.7767C62.8721 54.2365 62.28 53.8989 61.6353 53.8989H47.5143L65.9945 18.386C66.2613 17.8735 66.2299 17.2664 65.912 16.7809Z" fill="url(#paint3_linear_1_43170)"/>
<path d="M32.958 17.4635L32.9581 17.4634C33.0452 17.2136 33.3146 17 33.6685 17H64.4317C64.7125 17 64.9506 17.138 65.0754 17.3286C65.1965 17.5136 65.2061 17.7348 65.1075 17.9243L65.1074 17.9244L46.6272 53.4373L45.8666 54.8989H47.5143H61.6353C61.9366 54.8989 62.1852 55.0568 62.3018 55.2651L62.302 55.2654C62.4143 55.466 62.4031 55.7046 62.265 55.8985L20.1696 115.027C20.0372 115.213 19.8031 115.336 19.5389 115.336C19.4274 115.336 19.3161 115.314 19.211 115.268C18.8671 115.117 18.7416 114.79 18.8199 114.521L17.8598 114.241L18.82 114.521L32.3388 68.1013L32.7115 66.8217H31.3787H16.743C16.4829 66.8217 16.2567 66.7027 16.1257 66.5306C15.9981 66.363 15.9689 66.1597 16.0325 65.9776L16.0325 65.9775L32.958 17.4635Z" stroke="url(#paint4_linear_1_43170)" stroke-opacity="0.7" stroke-width="2"/>
</g>
</g>
<defs>
<filter id="filter0_b_1_43170" x="9.76196" y="4.51904" width="120.698" height="123.298" filterUnits="userSpaceOnUse" color-interpolation-filters="sRGB">
<feFlood flood-opacity="0" result="BackgroundImageFix"/>
<feGaussianBlur in="BackgroundImageFix" stdDeviation="10"/>
<feComposite in2="SourceAlpha" operator="in" result="effect1_backgroundBlur_1_43170"/>
<feBlend mode="normal" in="SourceGraphic" in2="effect1_backgroundBlur_1_43170" result="shape"/>
</filter>
<filter id="filter1_d_1_43170" x="0" y="0" width="75.1746" height="124.336" filterUnits="userSpaceOnUse" color-interpolation-filters="sRGB">
<feFlood flood-opacity="0" result="BackgroundImageFix"/>
<feColorMatrix in="SourceAlpha" type="matrix" values="0 0 0 0 0 0 0 0 0 0 0 0 0 0 0 0 0 0 127 0" result="hardAlpha"/>
<feOffset dx="-3" dy="-4"/>
<feGaussianBlur stdDeviation="6"/>
<feComposite in2="hardAlpha" operator="out"/>
<feColorMatrix type="matrix" values="0 0 0 0 0 0 0 0 0 0 0 0 0 0 0 0 0 0 0.15 0"/>
<feBlend mode="normal" in2="BackgroundImageFix" result="effect1_dropShadow_1_43170"/>
<feBlend mode="normal" in="SourceGraphic" in2="effect1_dropShadow_1_43170" result="shape"/>
</filter>
<linearGradient id="paint0_linear_1_43170" x1="36.7304" y1="75.3759" x2="85.7475" y2="65.6179" gradientUnits="userSpaceOnUse">
<stop stop-color="#DAF7FF"/>
<stop offset="1" stop-color="#59D9FF"/>
</linearGradient>
<linearGradient id="paint1_linear_1_43170" x1="69.4707" y1="-27.7073" x2="70.1531" y2="107.817" gradientUnits="userSpaceOnUse">
<stop stop-color="white" stop-opacity="0"/>
<stop offset="0.615538" stop-color="white" stop-opacity="0.46"/>
<stop offset="1" stop-color="white" stop-opacity="0.7"/>
</linearGradient>
<linearGradient id="paint2_linear_1_43170" x1="112.974" y1="77.6201" x2="46.245" y2="49.3886" gradientUnits="userSpaceOnUse">
<stop stop-color="#B4DCFF"/>
<stop offset="0.509373" stop-color="#159AE7"/>
<stop offset="0.85252" stop-color="#E5F9FF"/>
</linearGradient>
<linearGradient id="paint3_linear_1_43170" x1="3.40575" y1="164.96" x2="31.3065" y2="170.955" gradientUnits="userSpaceOnUse">
<stop stop-color="#2693F5"/>
<stop offset="0.546406" stop-color="#19CAFF"/>
<stop offset="1" stop-color="#95E7FF"/>
</linearGradient>
<linearGradient id="paint4_linear_1_43170" x1="45.7847" y1="16" x2="18.8301" y2="115.289" gradientUnits="userSpaceOnUse">
<stop stop-color="#19CAFF"/>
<stop offset="0.655" stop-opacity="0"/>
</linearGradient>
</defs>
</svg>
