<svg width="124" height="124" viewBox="0 0 124 124" fill="none" xmlns="http://www.w3.org/2000/svg">
<g id="Icon_3">
<g id="Group 2">
<path id="1" fill-rule="evenodd" clip-rule="evenodd" d="M42.1816 61.5909C42.1816 60.5889 41.3693 59.7766 40.3673 59.7766H22.0712C21.2741 56.8286 18.6354 54.7889 15.5093 54.7889C11.7541 54.7892 8.69922 57.8407 8.69922 61.5913C8.69922 65.3417 11.7541 68.3929 15.509 68.3929C18.6351 68.3929 21.2739 66.3533 22.071 63.4053H40.3673C41.3693 63.4053 42.1816 62.593 42.1816 61.5909ZM12.3276 61.5913C12.3276 63.3411 13.7549 64.7645 15.509 64.7645C17.2634 64.7645 18.6907 63.3411 18.6905 61.5913C18.6905 59.8413 17.2631 58.4178 15.509 58.4178C13.7549 58.4178 12.3276 59.8413 12.3276 61.5913Z" fill="url(#paint0_linear_1_43133)"/>
<path id="2" fill-rule="evenodd" clip-rule="evenodd" d="M41.8139 47.6145C41.8139 46.6126 41.0017 45.8004 39.9998 45.8004H26.161V30.3541C28.8823 29.5554 31.1276 26.9216 31.1276 23.8019C31.1276 20.0513 28.0632 17 24.3082 17C20.5533 17 17.5127 20.0513 17.5127 23.8019C17.5127 26.9287 19.5845 29.5674 22.5326 30.3595V47.6849C22.5326 48.6868 23.3063 49.4286 24.3082 49.4286H39.9998C41.0017 49.4286 41.8139 48.6164 41.8139 47.6145ZM24.2985 20.6284C22.5444 20.6284 21.1171 22.0519 21.1171 23.8019C21.1171 25.5519 22.5444 26.9754 24.2985 26.9754C26.0526 26.9754 27.4799 25.5519 27.4799 23.8019C27.4799 22.0519 26.0526 20.6284 24.2985 20.6284Z" fill="url(#paint1_linear_1_43133)"/>
<path id="3" fill-rule="evenodd" clip-rule="evenodd" d="M41.7828 75.7347C41.7828 74.7327 40.9706 73.9205 39.9686 73.9205H24.3084C23.3065 73.9205 22.5327 74.6625 22.5327 75.6644V93.8996C19.5847 94.6949 17.5181 97.3314 17.5181 100.454C17.5181 104.205 20.5632 107.256 24.3181 107.256C28.0733 107.256 31.1425 104.205 31.1425 100.454C31.1425 97.3314 29.1092 94.6949 26.1611 93.8996V77.5489H39.9686C40.9706 77.5489 41.7828 76.7366 41.7828 75.7347ZM24.3084 103.628C26.0625 103.628 27.4898 102.205 27.4898 100.454C27.4898 98.7045 26.0625 97.281 24.3084 97.281C22.5543 97.281 21.1272 98.7045 21.1272 100.454C21.1272 102.205 22.5543 103.628 24.3084 103.628Z" fill="url(#paint2_linear_1_43133)"/>
<path id="4" fill-rule="evenodd" clip-rule="evenodd" d="M82.5488 75.7038C82.5488 76.7057 83.361 77.5489 84.3629 77.5489H97.8216V93.8997C95.1003 94.6949 92.8827 97.3314 92.8827 100.455C92.8827 104.205 95.9659 107.256 99.7211 107.256C103.476 107.256 106.488 104.205 106.488 100.455C106.488 97.3314 104.398 94.6949 101.45 93.8997V75.6647C101.45 74.6628 100.751 73.9208 99.7494 73.9208H84.3629C83.361 73.9208 82.5488 74.702 82.5488 75.7038ZM99.7494 103.628C101.504 103.628 102.931 102.205 102.931 100.455C102.931 98.7046 101.504 97.2811 99.7494 97.2811C97.9953 97.2811 96.568 98.7046 96.568 100.455C96.568 102.205 97.9953 103.628 99.7494 103.628Z" fill="url(#paint3_linear_1_43133)"/>
<path id="5" fill-rule="evenodd" clip-rule="evenodd" d="M101.359 59.7766C102.156 56.8286 104.795 54.7889 107.921 54.7889C111.676 54.7889 114.731 57.8402 114.731 61.5908C114.731 65.3415 111.676 68.3927 107.921 68.3929C104.795 68.3929 102.156 66.3533 101.359 63.4053H83.6791C82.677 63.4053 81.8647 62.593 81.8647 61.5909C81.8647 60.5889 82.677 59.7766 83.6791 59.7766H101.359ZM104.74 61.5911C104.74 63.3408 106.167 64.7643 107.921 64.7643C109.675 64.7643 111.103 63.3408 111.103 61.5911C111.103 59.841 109.675 58.4176 107.921 58.4176C106.167 58.4176 104.74 59.841 104.74 61.5911Z" fill="url(#paint4_linear_1_43133)"/>
<path id="6" fill-rule="evenodd" clip-rule="evenodd" d="M82.2598 47.6146C82.2598 48.6166 83.072 49.4288 84.074 49.4288H99.7495C100.751 49.4288 101.45 48.687 101.45 47.6851V30.3595C104.398 29.5674 106.512 26.9284 106.512 23.8019C106.512 20.0513 103.486 17 99.7309 17C95.976 17 92.8787 20.0513 92.8787 23.8019C92.8787 26.9214 95.1004 29.5554 97.8217 30.3541V45.8004H84.074C83.072 45.8004 82.2598 46.6127 82.2598 47.6146ZM99.7593 20.6284C98.0052 20.6284 96.5781 22.0519 96.5781 23.8019C96.5781 25.5519 98.0052 26.9754 99.7593 26.9754C101.513 26.9754 102.941 25.5519 102.941 23.8019C102.941 22.0519 101.513 20.6284 99.7593 20.6284Z" fill="url(#paint5_linear_1_43133)"/>
</g>
<ellipse id="Ellipse 15" cx="62" cy="76.5" rx="20" ry="19.5" fill="#7EE1FF"/>
<g id="Vector" filter="url(#filter0_b_1_43133)">
<path d="M28.1861 38.3515C28.0863 37.0909 29.1737 36.0618 30.4351 36.1519C41.5457 36.9455 52.6354 33.4563 60.5155 25.5263C61.3184 24.7184 62.6265 24.6624 63.4781 25.4188C71.8157 32.8247 82.235 37.2671 93.48 36.2176C94.7691 36.0973 95.9092 37.1361 95.8068 38.4267C93.5421 66.989 88.5409 89.5169 62.0212 100C35.453 89.751 30.4614 67.1077 28.1861 38.3515Z" fill="url(#paint6_linear_1_43133)"/>
<path d="M29.183 38.2727C29.1347 37.6629 29.6712 37.0999 30.3639 37.1493C41.7221 37.9606 53.1112 34.3962 61.2248 26.2312L60.5155 25.5263L61.2248 26.2312C61.663 25.7903 62.3688 25.7711 62.814 26.1665C71.3085 33.7117 81.9918 38.2941 93.5729 37.2133C94.2974 37.1457 94.8591 37.7283 94.81 38.3477C93.6784 52.6185 91.8697 65.2356 87.1015 75.5743C82.403 85.762 74.8129 93.7741 62.0167 98.9251C49.2019 93.8879 41.6048 85.907 36.9021 75.6976C32.129 65.3354 30.3199 52.6414 29.183 38.2727Z" stroke="url(#paint7_linear_1_43133)" stroke-opacity="0.7" stroke-width="2"/>
</g>
<g id="Vector_2" filter="url(#filter1_d_1_43133)">
<path d="M69 59.3255C69 55.2862 65.6356 52 61.5001 52C57.3644 52 54 55.2862 54 59.3255C54 62.7227 56.3799 65.5865 59.5964 66.4117L59.6344 74.1739C59.6394 75.1987 60.4943 76 61.5455 76H61.5548C62.6104 76 63.4619 75.1946 63.4571 74.1667L63.4191 66.4073C66.628 65.5769 69 62.7172 69 59.3255ZM61.5004 62.9289C59.4727 62.9289 57.8229 61.3124 57.8229 59.3255C57.8229 57.3387 59.4724 55.7224 61.5004 55.7224C63.5278 55.7224 65.1775 57.3387 65.1775 59.3255C65.1775 61.3124 63.5278 62.9289 61.5004 62.9289Z" fill="url(#paint8_linear_1_43133)"/>
</g>
</g>
<defs>
<filter id="filter0_b_1_43133" x="8.17969" y="4.88434" width="107.634" height="115.116" filterUnits="userSpaceOnUse" color-interpolation-filters="sRGB">
<feFlood flood-opacity="0" result="BackgroundImageFix"/>
<feGaussianBlur in="BackgroundImageFix" stdDeviation="10"/>
<feComposite in2="SourceAlpha" operator="in" result="effect1_backgroundBlur_1_43133"/>
<feBlend mode="normal" in="SourceGraphic" in2="effect1_backgroundBlur_1_43133" result="shape"/>
</filter>
<filter id="filter1_d_1_43133" x="48" y="48" width="27" height="36" filterUnits="userSpaceOnUse" color-interpolation-filters="sRGB">
<feFlood flood-opacity="0" result="BackgroundImageFix"/>
<feColorMatrix in="SourceAlpha" type="matrix" values="0 0 0 0 0 0 0 0 0 0 0 0 0 0 0 0 0 0 127 0" result="hardAlpha"/>
<feOffset dy="2"/>
<feGaussianBlur stdDeviation="3"/>
<feComposite in2="hardAlpha" operator="out"/>
<feColorMatrix type="matrix" values="0 0 0 0 0 0 0 0 0 0 0 0 0 0 0 0 0 0 0.15 0"/>
<feBlend mode="normal" in2="BackgroundImageFix" result="effect1_dropShadow_1_43133"/>
<feBlend mode="normal" in="SourceGraphic" in2="effect1_dropShadow_1_43133" result="shape"/>
</filter>
<linearGradient id="paint0_linear_1_43133" x1="36.8399" y1="48.2731" x2="13.377" y2="43.1054" gradientUnits="userSpaceOnUse">
<stop stop-color="#2693F5"/>
<stop offset="0.5" stop-color="#19CAFF"/>
<stop offset="1" stop-color="#95E7FF"/>
</linearGradient>
<linearGradient id="paint1_linear_1_43133" x1="33.2219" y1="48.3568" x2="41.5189" y2="41.2794" gradientUnits="userSpaceOnUse">
<stop stop-color="#2693F5"/>
<stop offset="0.501527" stop-color="#19CAFF"/>
<stop offset="1" stop-color="#95E7FF"/>
</linearGradient>
<linearGradient id="paint2_linear_1_43133" x1="32.681" y1="60.7938" x2="20.1541" y2="61.8741" gradientUnits="userSpaceOnUse">
<stop stop-color="#2693F5"/>
<stop offset="0.5" stop-color="#19CAFF"/>
<stop offset="1" stop-color="#95E7FF"/>
</linearGradient>
<linearGradient id="paint3_linear_1_43133" x1="90.7443" y1="114.379" x2="103.829" y2="115.786" gradientUnits="userSpaceOnUse">
<stop stop-color="#2693F5"/>
<stop offset="0.5" stop-color="#19CAFF"/>
<stop offset="1" stop-color="#95E7FF"/>
</linearGradient>
<linearGradient id="paint4_linear_1_43133" x1="93.1162" y1="71.2998" x2="109.186" y2="77.1115" gradientUnits="userSpaceOnUse">
<stop stop-color="#2693F5"/>
<stop offset="0.5" stop-color="#19CAFF"/>
<stop offset="1" stop-color="#95E7FF"/>
</linearGradient>
<linearGradient id="paint5_linear_1_43133" x1="94.3273" y1="50.7688" x2="101.362" y2="51.3847" gradientUnits="userSpaceOnUse">
<stop stop-color="#2693F5"/>
<stop offset="0.5" stop-color="#19CAFF"/>
<stop offset="1" stop-color="#95E7FF"/>
</linearGradient>
<linearGradient id="paint6_linear_1_43133" x1="61.4603" y1="-23.6508" x2="62.1345" y2="99.9993" gradientUnits="userSpaceOnUse">
<stop stop-color="white" stop-opacity="0"/>
<stop offset="0.615538" stop-color="white" stop-opacity="0.46"/>
<stop offset="1" stop-color="white" stop-opacity="0.7"/>
</linearGradient>
<linearGradient id="paint7_linear_1_43133" x1="90.4952" y1="91.6762" x2="27.5119" y2="35.0007" gradientUnits="userSpaceOnUse">
<stop stop-color="#6EBAFF"/>
<stop offset="0.53204" stop-color="#1595E1"/>
<stop offset="1" stop-color="#E5F9FF"/>
</linearGradient>
<linearGradient id="paint8_linear_1_43133" x1="59.1351" y1="81.1282" x2="67.3565" y2="81.8974" gradientUnits="userSpaceOnUse">
<stop stop-color="#2693F5"/>
<stop offset="0.5" stop-color="#19CAFF"/>
<stop offset="1" stop-color="#95E7FF"/>
</linearGradient>
</defs>
</svg>
