<svg width="124" height="124" viewBox="0 0 124 124" fill="none" xmlns="http://www.w3.org/2000/svg">
<g id="Icon_6">
<g id="Union">
<path d="M35.5 26.3088C30.4335 26.3088 25.6824 25.6033 22.122 24.3221C18.8671 23.1505 17 21.6322 17 20.1548C17 18.6774 18.8671 17.1583 22.122 15.9867C25.6824 14.7055 30.4335 14 35.5 14C40.5665 14 45.3176 14.7055 48.878 15.9939C52.1329 17.1615 54 18.6838 54 20.158C54 21.6322 52.1329 23.1505 48.878 24.3221C45.3176 25.6033 40.5665 26.3088 35.5 26.3088Z" fill="url(#paint0_linear_1_43084)"/>
<path fill-rule="evenodd" clip-rule="evenodd" d="M35.5 27.9104C30.2414 27.9104 25.285 27.1697 21.5441 25.8236C19.5792 25.1165 18.0491 24.27 17 23.3291V29.7186C17 31.1952 18.8671 32.7143 22.122 33.8826C25.6824 35.1639 30.4335 35.8694 35.5 35.8694C40.5665 35.8694 45.3176 35.1671 48.878 33.8858C52.1329 32.7143 54 31.1952 54 29.7218V23.3291C52.9509 24.27 51.4208 25.1165 49.4551 25.8236C45.715 27.1697 40.7586 27.9104 35.5 27.9104ZM43.9531 31.6172C43.9424 31.6685 43.9266 31.7186 43.9059 31.767C43.8853 31.8155 43.8598 31.8619 43.8297 31.9055C43.7996 31.9492 43.7652 31.9899 43.727 32.0272C43.6885 32.0642 43.6464 32.0975 43.6012 32.1265C43.5558 32.1553 43.5079 32.1799 43.4579 32.2002C43.4081 32.2206 43.3562 32.2359 43.3031 32.2458C43.1963 32.2672 43.0861 32.2672 42.9793 32.2458C42.9262 32.2359 42.8743 32.2206 42.8245 32.2002C42.7745 32.1799 42.7265 32.1553 42.6812 32.1265C42.636 32.0975 42.5939 32.0642 42.5554 32.0272C42.5169 31.9901 42.4825 31.9494 42.4527 31.9055C42.4226 31.8619 42.3971 31.8155 42.3765 31.767C42.3558 31.7186 42.34 31.6685 42.3293 31.6172C42.3073 31.5142 42.3073 31.4079 42.3293 31.3049C42.34 31.2536 42.3558 31.2035 42.3765 31.1552C42.3971 31.1067 42.4226 31.0602 42.4527 31.0166C42.4825 30.9728 42.5169 30.932 42.5554 30.8949C42.5939 30.8579 42.636 30.8246 42.6812 30.7956C42.7265 30.7668 42.7745 30.7422 42.8245 30.7219C42.8743 30.7016 42.9262 30.6863 42.9793 30.6763C43.0862 30.6555 43.1962 30.6555 43.3031 30.6763C43.3562 30.6863 43.4081 30.7016 43.4579 30.7219C43.5079 30.7422 43.5558 30.7668 43.6012 30.7956C43.7147 30.8684 43.8077 30.9673 43.8719 31.0834C43.936 31.1996 43.9693 31.3294 43.9688 31.4611C43.9689 31.5135 43.9637 31.5658 43.9531 31.6172ZM47.5532 30.7444C47.5424 30.7956 47.5266 30.8457 47.506 30.8941C47.4852 30.9423 47.4597 30.9884 47.4298 31.0318C47.3997 31.0757 47.365 31.1165 47.3263 31.1536C47.2881 31.1908 47.2463 31.2243 47.2013 31.2537C47.156 31.2824 47.108 31.3071 47.0581 31.3273C46.9576 31.3679 46.8498 31.3885 46.7409 31.3882C46.6867 31.3883 46.6326 31.3832 46.5795 31.373C46.5265 31.3626 46.4746 31.3473 46.4246 31.3273C46.3746 31.3073 46.3266 31.2826 46.2814 31.2537C46.1908 31.1951 46.1131 31.1197 46.0529 31.0318C46.023 30.9884 45.9974 30.9423 45.9767 30.8941C45.9561 30.8457 45.9403 30.7956 45.9295 30.7444C45.9184 30.6916 45.9129 30.638 45.9129 30.5842C45.9131 30.5317 45.9186 30.4794 45.9295 30.428C45.9402 30.3768 45.956 30.3266 45.9767 30.2783C45.9974 30.2299 46.0229 30.1835 46.0529 30.1398C46.1128 30.0519 46.1905 29.9767 46.2814 29.9188C46.3266 29.8898 46.3746 29.8652 46.4246 29.8451C46.4746 29.8251 46.5265 29.8098 46.5795 29.7994C46.6863 29.7786 46.7964 29.7786 46.9032 29.7994C46.9562 29.8098 47.0081 29.8251 47.0581 29.8451C47.108 29.8653 47.156 29.89 47.2013 29.9188C47.2462 29.9478 47.2881 29.9811 47.3263 30.018C47.365 30.0551 47.3997 30.0959 47.4298 30.1398C47.4599 30.1834 47.4854 30.2298 47.506 30.2783C47.5267 30.3266 47.5425 30.3768 47.5532 30.428C47.5638 30.4795 47.5691 30.5318 47.5689 30.5842C47.5693 30.638 47.564 30.6916 47.5532 30.7444ZM49.5255 29.5616C49.5468 29.4589 49.5887 29.3612 49.6489 29.2741C49.7076 29.1877 49.7833 29.1131 49.8716 29.0547C49.9167 29.0256 49.9647 29.0009 50.0148 28.981C50.0648 28.961 50.1167 28.9457 50.1697 28.9354C50.2765 28.9146 50.3866 28.9146 50.4934 28.9354C50.5464 28.946 50.5982 28.9612 50.6483 28.981C50.6981 29.0011 50.7458 29.0258 50.7907 29.0547C50.8361 29.0838 50.8782 29.1174 50.9165 29.1548C50.9934 29.2291 51.0545 29.3172 51.0962 29.4143C51.1169 29.4626 51.1327 29.5127 51.1434 29.564C51.1542 29.6167 51.1595 29.6704 51.1591 29.7242C51.1586 29.9364 51.0714 30.1399 50.9165 30.2903C50.8782 30.3275 50.836 30.3608 50.7907 30.3896C50.7458 30.4185 50.6981 30.4432 50.6483 30.4633C50.5982 30.4831 50.5464 30.4984 50.4934 30.5089C50.4389 30.5196 50.3834 30.525 50.3278 30.5249C50.2736 30.5248 50.2195 30.5194 50.1664 30.5089C50.1133 30.4986 50.0615 30.4833 50.0115 30.4633C49.9614 30.4434 49.9134 30.4187 49.8683 30.3896C49.8229 30.3608 49.7808 30.3275 49.7424 30.2903C49.7042 30.2531 49.6698 30.2123 49.6398 30.1686C49.61 30.1248 49.5845 30.0784 49.5636 30.0301C49.5429 29.9817 49.5271 29.9316 49.5164 29.8803C49.5052 29.8276 49.4997 29.774 49.4998 29.7202C49.5015 29.6667 49.5087 29.6136 49.5214 29.5616H49.5255Z" fill="url(#paint1_linear_1_43084)"/>
<path fill-rule="evenodd" clip-rule="evenodd" d="M21.5441 35.3865C25.285 36.7326 30.2414 37.4741 35.5 37.4741C40.7586 37.4741 45.715 36.7326 49.4551 35.3865C51.4208 34.6794 52.9509 33.8338 54 32.8928V39.2815C54 40.7589 52.1329 42.278 48.878 43.4495C45.3176 44.7308 40.5665 45.4363 35.5 45.4363C30.4335 45.4363 25.6824 44.7308 22.122 43.4495C18.8671 42.278 17 40.7589 17 39.2815V32.8928C18.0491 33.8338 19.5792 34.6794 21.5441 35.3865ZM43.9059 41.3267C43.9266 41.2783 43.9424 41.2282 43.9531 41.1769C43.9648 41.1267 43.9715 41.0755 43.9729 41.024C43.9733 40.9702 43.968 40.9166 43.9572 40.8638C43.9463 40.8126 43.9305 40.7625 43.91 40.7141C43.8661 40.6173 43.8031 40.5297 43.7245 40.4562C43.6858 40.4192 43.6437 40.3857 43.5987 40.3561C43.5534 40.3274 43.5054 40.3027 43.4554 40.2825C43.4055 40.2624 43.3536 40.2471 43.3006 40.2368C43.1937 40.216 43.0837 40.216 42.9768 40.2368C42.9238 40.2471 42.872 40.2624 42.822 40.2825C42.772 40.3027 42.7241 40.3274 42.6788 40.3561C42.6337 40.3857 42.5916 40.4192 42.5529 40.4562C42.5145 40.4933 42.4801 40.5341 42.4502 40.5779C42.4203 40.6214 42.3948 40.6675 42.3741 40.7157C42.3536 40.7641 42.3378 40.8142 42.3269 40.8654C42.2941 41.0208 42.3102 41.1821 42.3728 41.3286C42.4355 41.4752 42.5421 41.6002 42.6788 41.6878C42.7241 41.7166 42.772 41.7413 42.822 41.7615C42.872 41.7815 42.9238 41.7968 42.9768 41.8071C43.0836 41.8285 43.1938 41.8285 43.3006 41.8071C43.3536 41.7968 43.4055 41.7815 43.4554 41.7615C43.5054 41.7413 43.5534 41.7166 43.5987 41.6878C43.6439 41.6588 43.686 41.6255 43.7245 41.5885C43.7627 41.5513 43.7971 41.5105 43.8272 41.4668C43.8582 41.4228 43.8846 41.3758 43.9059 41.3267ZM47.506 40.4578C47.5266 40.4092 47.5424 40.3588 47.5532 40.3073H47.5499C47.5709 40.2042 47.5709 40.0981 47.5499 39.995C47.5392 39.9437 47.5234 39.8935 47.5027 39.8452C47.4821 39.7967 47.4566 39.7503 47.4265 39.7067C47.3964 39.6628 47.3617 39.622 47.323 39.585C47.2848 39.548 47.2429 39.5147 47.198 39.4857C47.1527 39.4569 47.1047 39.4322 47.0547 39.412C47.0049 39.3916 46.953 39.3763 46.8999 39.3664C46.7931 39.3455 46.683 39.3455 46.5762 39.3664C46.523 39.3763 46.4711 39.3916 46.4213 39.412C46.3712 39.4321 46.3233 39.4567 46.2781 39.4857C46.1872 39.5436 46.1095 39.6188 46.0495 39.7067C46.0195 39.7503 45.9939 39.7967 45.9734 39.8452C45.9527 39.8935 45.9369 39.9437 45.9262 39.995C45.9041 40.098 45.9041 40.2043 45.9262 40.3073C45.937 40.3588 45.9528 40.4092 45.9734 40.4578C45.9941 40.506 46.0196 40.5521 46.0495 40.5956C46.0794 40.6394 46.1138 40.6802 46.1522 40.7173C46.1907 40.7545 46.2329 40.788 46.2781 40.8174C46.3235 40.8457 46.3714 40.8701 46.4213 40.8902C46.4711 40.9106 46.523 40.9259 46.5762 40.9359C46.6293 40.9464 46.6834 40.9518 46.7376 40.9519C46.7932 40.952 46.8487 40.9466 46.9032 40.9359C46.9563 40.9259 47.0082 40.9106 47.0581 40.8902C47.1079 40.87 47.1558 40.8456 47.2013 40.8174C47.2461 40.7878 47.2879 40.7543 47.3263 40.7173C47.365 40.6802 47.3997 40.6394 47.4298 40.5956C47.4597 40.5521 47.4852 40.506 47.506 40.4578ZM50.0962 38.5169C49.9663 38.555 49.8481 38.6231 49.7515 38.7153L49.7457 38.7129C49.5905 38.8631 49.5033 39.0667 49.5033 39.2791C49.5033 39.4914 49.5905 39.6951 49.7457 39.8452C49.784 39.8827 49.8262 39.9162 49.8716 39.9453C49.9166 39.9752 49.9646 40.0007 50.0148 40.0214C50.0648 40.0414 50.1167 40.0567 50.1697 40.067C50.2228 40.0773 50.2769 40.0824 50.3311 40.0823C50.3867 40.0826 50.4422 40.0775 50.4967 40.067C50.5497 40.0565 50.6015 40.0412 50.6516 40.0214C50.7014 40.0013 50.7491 39.9766 50.794 39.9477C50.8394 39.9186 50.8815 39.8851 50.9198 39.8476C51.0751 39.6975 51.1623 39.4938 51.1623 39.2815C51.1623 39.0691 51.0751 38.8655 50.9198 38.7153C50.8815 38.6781 50.8393 38.6449 50.794 38.616C50.7491 38.5871 50.7014 38.5624 50.6516 38.5424C50.6015 38.5226 50.5497 38.5073 50.4967 38.4967C50.3635 38.4719 50.226 38.4788 50.0962 38.5169Z" fill="url(#paint2_linear_1_43084)"/>
<path fill-rule="evenodd" clip-rule="evenodd" d="M21.5441 44.9502C25.285 46.2963 30.2414 47.0378 35.5 47.0378C40.7586 47.0378 45.715 46.2963 49.4551 44.9502C51.4208 44.2431 52.9509 43.3975 54 42.4566V48.8452C54 50.3226 52.1329 51.8417 48.878 53.0133C45.3176 54.2945 40.5665 55 35.5 55C30.4335 55 25.6824 54.2945 22.122 53.0133C18.8671 51.8417 17 50.3226 17 48.8452V42.4566C18.0491 43.3975 19.5792 44.2431 21.5441 44.9502ZM43.9059 50.8904C43.9266 50.8421 43.9424 50.7919 43.9531 50.7406C43.9637 50.6892 43.9689 50.6369 43.9688 50.5845C43.9691 50.5307 43.9639 50.4771 43.9531 50.4243C43.9318 50.3216 43.8898 50.224 43.8297 50.1369C43.7996 50.093 43.7649 50.0522 43.7262 50.0151C43.688 49.9779 43.6461 49.9444 43.6012 49.915C43.5558 49.8863 43.5079 49.8616 43.4579 49.8414C43.4079 49.8213 43.3561 49.8061 43.3031 49.7957C43.1962 49.7749 43.0862 49.7749 42.9793 49.7957C42.9263 49.8061 42.8745 49.8213 42.8245 49.8414C42.7237 49.8813 42.6322 49.9404 42.5554 50.0151C42.5169 50.0522 42.4825 50.093 42.4527 50.1369C42.3925 50.224 42.3506 50.3216 42.3293 50.4243C42.3185 50.4771 42.3132 50.5307 42.3136 50.5845C42.3135 50.6369 42.3187 50.6892 42.3293 50.7406C42.34 50.7919 42.3558 50.8421 42.3765 50.8904C42.3975 50.9387 42.423 50.9851 42.4527 51.0289C42.4827 51.0727 42.5171 51.1134 42.5554 51.1506C42.6325 51.2248 42.7239 51.2836 42.8245 51.3236C42.8745 51.3436 42.9263 51.3589 42.9793 51.3693C43.0862 51.3895 43.1962 51.3895 43.3031 51.3693C43.3561 51.3589 43.4079 51.3436 43.4579 51.3236C43.5079 51.3034 43.5558 51.2787 43.6012 51.2499C43.6461 51.2209 43.688 51.1876 43.7262 51.1506C43.7647 51.1134 43.7994 51.0727 43.8297 51.0289C43.8594 50.9851 43.8849 50.9387 43.9059 50.8904ZM47.506 50.0247C47.5267 49.9764 47.5425 49.9263 47.5532 49.875H47.5515C47.5725 49.7719 47.5725 49.6658 47.5515 49.5627C47.5409 49.5114 47.525 49.4613 47.5043 49.4129C47.4838 49.3644 47.4582 49.318 47.4282 49.2744C47.3981 49.2305 47.3634 49.1897 47.3247 49.1527C47.2285 49.0599 47.1103 48.9915 46.9803 48.9534C46.8503 48.9152 46.7127 48.9086 46.5795 48.9341C46.5264 48.944 46.4745 48.9593 46.4246 48.9797C46.3743 48.9993 46.3263 49.024 46.2814 49.0534C46.1905 49.1114 46.1128 49.1866 46.0529 49.2744C46.0228 49.318 45.9973 49.3644 45.9767 49.4129C45.956 49.4613 45.9402 49.5114 45.9295 49.5627C45.9074 49.6657 45.9074 49.772 45.9295 49.875C45.9402 49.9263 45.956 49.9764 45.9767 50.0247C45.9973 50.0732 46.0228 50.1197 46.0529 50.1633C46.1128 50.2511 46.1905 50.3263 46.2814 50.3843C46.3265 50.4134 46.3745 50.4381 46.4246 50.458C46.4745 50.4783 46.5264 50.4936 46.5795 50.5036C46.6326 50.5141 46.6867 50.5195 46.7409 50.5196C46.9604 50.5191 47.1708 50.4347 47.3263 50.285C47.3648 50.2477 47.3995 50.207 47.4298 50.1633C47.4599 50.1197 47.4854 50.0732 47.506 50.0247ZM49.5727 48.5433C49.552 48.5916 49.5362 48.6418 49.5255 48.693L49.5214 48.689C49.512 48.74 49.5078 48.7918 49.5089 48.8436C49.5089 48.8974 49.5144 48.951 49.5255 49.0037C49.5364 49.055 49.5522 49.1051 49.5727 49.1535C49.5934 49.2017 49.619 49.2478 49.6489 49.2912C49.6787 49.3351 49.7131 49.3759 49.7515 49.4129C49.8476 49.5058 49.9658 49.5744 50.0958 49.6127C50.2257 49.651 50.3634 49.6577 50.4967 49.6324C50.5497 49.6218 50.6015 49.6065 50.6516 49.5867C50.8544 49.5054 51.0155 49.3496 51.0995 49.1535C51.12 49.1051 51.1358 49.055 51.1467 49.0037C51.1729 48.8748 51.166 48.7417 51.1264 48.616C51.0868 48.4903 51.0159 48.376 50.9198 48.283C50.8815 48.2459 50.8393 48.2126 50.794 48.1837C50.7491 48.1548 50.7014 48.1302 50.6516 48.1101C50.6015 48.0903 50.5497 48.075 50.4967 48.0644C50.3635 48.0396 50.226 48.0465 50.0962 48.0846C49.9663 48.1227 49.8481 48.1908 49.7515 48.283C49.7131 48.3201 49.6787 48.3609 49.6489 48.4048C49.6188 48.4484 49.5933 48.4948 49.5727 48.5433Z" fill="url(#paint3_linear_1_43084)"/>
</g>
<g id="Group 23">
<path id="Line 2 (Stroke)" fill-rule="evenodd" clip-rule="evenodd" d="M62 67C62.9514 67 63.7227 67.7713 63.7227 68.7227L63.7227 90.9258C63.7227 91.8772 62.9514 92.6484 62 92.6484C61.0486 92.6484 60.2773 91.8772 60.2773 90.9258L60.2773 68.7227C60.2773 67.7713 61.0486 67 62 67Z" fill="url(#paint4_linear_1_43084)"/>
<path id="Line 3 (Stroke)" fill-rule="evenodd" clip-rule="evenodd" d="M83.4375 67C84.3889 67 85.1602 67.7713 85.1602 68.7227L85.1602 79.25H98.75C100.547 79.25 102.004 80.7068 102.004 82.5039V90.9258C102.004 91.8772 101.233 92.6484 100.281 92.6484C99.3299 92.6484 98.5586 91.8772 98.5586 90.9258V82.6953H84.9688C83.1717 82.6953 81.7148 81.2385 81.7148 79.4414L81.7148 68.7227C81.7148 67.7713 82.4861 67 83.4375 67Z" fill="url(#paint5_linear_1_43084)"/>
<path id="Line 4 (Stroke)" fill-rule="evenodd" clip-rule="evenodd" d="M40.5625 67C41.5139 67 42.2852 67.7713 42.2852 68.7227V79.4414C42.2852 81.2385 40.8283 82.6953 39.0312 82.6953H25.4414L25.4414 90.9258C25.4414 91.8772 24.6701 92.6484 23.7188 92.6484C22.7674 92.6484 21.9961 91.8772 21.9961 90.9258L21.9961 82.5039C21.9961 80.7068 23.4529 79.25 25.25 79.25H38.8398V68.7227C38.8398 67.7713 39.6111 67 40.5625 67Z" fill="url(#paint6_linear_1_43084)"/>
<g id="Group 3">
<rect id="Rectangle 64" x="14" y="102.137" width="21" height="8" rx="2" fill="#19CAFF"/>
<g id="Rectangle 65" filter="url(#filter0_b_1_43084)">
<rect x="14" y="89" width="21.4375" height="21.4375" rx="2" fill="url(#paint7_linear_1_43084)" fill-opacity="0.6"/>
<rect x="15" y="90" width="19.4375" height="19.4375" rx="1" stroke="url(#paint8_linear_1_43084)" stroke-opacity="0.7" stroke-width="2"/>
</g>
</g>
<g id="Group 4">
<rect id="Rectangle 64_2" x="51.4375" y="102.137" width="21" height="8" rx="2" fill="#19CAFF"/>
<g id="Rectangle 65_2" filter="url(#filter1_b_1_43084)">
<rect x="51.4375" y="89" width="21.4375" height="21.4375" rx="2" fill="url(#paint9_linear_1_43084)" fill-opacity="0.6"/>
<rect x="52.4375" y="90" width="19.4375" height="19.4375" rx="1" stroke="url(#paint10_linear_1_43084)" stroke-opacity="0.7" stroke-width="2"/>
</g>
</g>
<g id="Group 5">
<rect id="Rectangle 64_3" x="88.875" y="102.137" width="21" height="8" rx="2" fill="#19CAFF"/>
<g id="Rectangle 65_3" filter="url(#filter2_b_1_43084)">
<rect x="88.875" y="89" width="21.4375" height="21.4375" rx="2" fill="url(#paint11_linear_1_43084)" fill-opacity="0.6"/>
<rect x="89.875" y="90" width="19.4375" height="19.4375" rx="1" stroke="url(#paint12_linear_1_43084)" stroke-opacity="0.7" stroke-width="2"/>
</g>
</g>
</g>
<path id="Vector" d="M84.2434 46.8153C84.2448 46.7482 84.2465 46.6812 84.2465 46.6139C84.2465 40.1997 77.9007 35 70.0728 35C63.327 35 57.6825 38.8616 56.2506 44.0342C54.9155 43.4218 53.3775 43.0711 51.7386 43.0711C46.6247 43.0711 42.4791 46.4681 42.4791 50.6583C42.4791 50.8295 42.4885 50.9988 42.5021 51.1674C38.7056 52.3221 36 55.3164 36 58.8291C36 63.3418 40.4646 67 45.9718 67H81.5352C88.4193 67 94 62.4272 94 56.7864C94 51.9077 89.8252 47.8286 84.2434 46.8153Z" fill="#59D9FF"/>
<g id="Vector_2" filter="url(#filter3_b_1_43084)">
<path d="M87.8791 40.7229C87.881 40.6223 87.8832 40.5218 87.8832 40.4208C87.8832 30.7996 79.3492 23 68.8221 23C59.7501 23 52.1593 28.7924 50.2336 36.5513C48.4381 35.6327 46.3698 35.1066 44.1657 35.1066C37.2883 35.1066 31.7133 40.2021 31.7133 46.4874C31.7133 46.7443 31.7259 46.9983 31.7443 47.251C26.6386 48.9832 23 53.4746 23 58.7437C23 65.5126 29.0041 71 36.4103 71H84.237C93.4949 71 101 64.1408 101 55.6796C101 48.3615 95.3857 42.2429 87.8791 40.7229Z" fill="url(#paint13_linear_1_43084)"/>
<path d="M86.8792 40.7042L86.8636 41.5376L87.6806 41.7031C94.7921 43.143 100 48.9064 100 55.6796C100 63.5057 93.0293 70 84.237 70H36.4103C29.4697 70 24 64.8776 24 58.7437C24 53.9626 27.3063 49.8127 32.0655 48.198L32.7975 47.9497L32.7416 47.1787C32.7244 46.9403 32.7133 46.7121 32.7133 46.4874C32.7133 40.8371 37.754 36.1066 44.1657 36.1066C46.2098 36.1066 48.1221 36.5943 49.7781 37.4416L50.9005 38.0158L51.2041 36.7922C53.0081 29.5235 60.1624 24 68.8221 24C78.8835 24 86.8832 31.4347 86.8832 40.4208C86.8832 40.4972 86.8818 40.5728 86.8801 40.6598L86.8792 40.7042Z" stroke="url(#paint14_linear_1_43084)" stroke-opacity="0.7" stroke-width="2"/>
</g>
</g>
<defs>
<filter id="filter0_b_1_43084" x="-6" y="69" width="61.4375" height="61.4375" filterUnits="userSpaceOnUse" color-interpolation-filters="sRGB">
<feFlood flood-opacity="0" result="BackgroundImageFix"/>
<feGaussianBlur in="BackgroundImageFix" stdDeviation="10"/>
<feComposite in2="SourceAlpha" operator="in" result="effect1_backgroundBlur_1_43084"/>
<feBlend mode="normal" in="SourceGraphic" in2="effect1_backgroundBlur_1_43084" result="shape"/>
</filter>
<filter id="filter1_b_1_43084" x="31.4375" y="69" width="61.4375" height="61.4375" filterUnits="userSpaceOnUse" color-interpolation-filters="sRGB">
<feFlood flood-opacity="0" result="BackgroundImageFix"/>
<feGaussianBlur in="BackgroundImageFix" stdDeviation="10"/>
<feComposite in2="SourceAlpha" operator="in" result="effect1_backgroundBlur_1_43084"/>
<feBlend mode="normal" in="SourceGraphic" in2="effect1_backgroundBlur_1_43084" result="shape"/>
</filter>
<filter id="filter2_b_1_43084" x="68.875" y="69" width="61.4375" height="61.4375" filterUnits="userSpaceOnUse" color-interpolation-filters="sRGB">
<feFlood flood-opacity="0" result="BackgroundImageFix"/>
<feGaussianBlur in="BackgroundImageFix" stdDeviation="10"/>
<feComposite in2="SourceAlpha" operator="in" result="effect1_backgroundBlur_1_43084"/>
<feBlend mode="normal" in="SourceGraphic" in2="effect1_backgroundBlur_1_43084" result="shape"/>
</filter>
<filter id="filter3_b_1_43084" x="3" y="3" width="118" height="88" filterUnits="userSpaceOnUse" color-interpolation-filters="sRGB">
<feFlood flood-opacity="0" result="BackgroundImageFix"/>
<feGaussianBlur in="BackgroundImageFix" stdDeviation="10"/>
<feComposite in2="SourceAlpha" operator="in" result="effect1_backgroundBlur_1_43084"/>
<feBlend mode="normal" in="SourceGraphic" in2="effect1_backgroundBlur_1_43084" result="shape"/>
</filter>
<linearGradient id="paint0_linear_1_43084" x1="16.6178" y1="98.4672" x2="46.0204" y2="100.899" gradientUnits="userSpaceOnUse">
<stop stop-color="#2693F5"/>
<stop offset="0.462101" stop-color="#19CAFF"/>
<stop offset="1" stop-color="#95E7FF"/>
</linearGradient>
<linearGradient id="paint1_linear_1_43084" x1="16.6178" y1="98.4672" x2="46.0204" y2="100.899" gradientUnits="userSpaceOnUse">
<stop stop-color="#2693F5"/>
<stop offset="0.462101" stop-color="#19CAFF"/>
<stop offset="1" stop-color="#95E7FF"/>
</linearGradient>
<linearGradient id="paint2_linear_1_43084" x1="16.6178" y1="98.4672" x2="46.0204" y2="100.899" gradientUnits="userSpaceOnUse">
<stop stop-color="#2693F5"/>
<stop offset="0.462101" stop-color="#19CAFF"/>
<stop offset="1" stop-color="#95E7FF"/>
</linearGradient>
<linearGradient id="paint3_linear_1_43084" x1="16.6178" y1="98.4672" x2="46.0204" y2="100.899" gradientUnits="userSpaceOnUse">
<stop stop-color="#2693F5"/>
<stop offset="0.462101" stop-color="#19CAFF"/>
<stop offset="1" stop-color="#95E7FF"/>
</linearGradient>
<linearGradient id="paint4_linear_1_43084" x1="69.5" y1="88" x2="74.2471" y2="83.5686" gradientUnits="userSpaceOnUse">
<stop stop-color="#2693F5"/>
<stop offset="0.5" stop-color="#19CAFF"/>
<stop offset="1" stop-color="#95E7FF"/>
</linearGradient>
<linearGradient id="paint5_linear_1_43084" x1="105.5" y1="89.5" x2="106.217" y2="72.7504" gradientUnits="userSpaceOnUse">
<stop stop-color="#2693F5"/>
<stop offset="0.5" stop-color="#19CAFF"/>
<stop offset="1" stop-color="#95E7FF"/>
</linearGradient>
<linearGradient id="paint6_linear_1_43084" x1="28.9419" y1="98.1289" x2="40.0044" y2="99.4389" gradientUnits="userSpaceOnUse">
<stop stop-color="#2693F5"/>
<stop offset="0.5" stop-color="#19CAFF"/>
<stop offset="1" stop-color="#95E7FF"/>
</linearGradient>
<linearGradient id="paint7_linear_1_43084" x1="24.5486" y1="75.559" x2="24.7188" y2="110.438" gradientUnits="userSpaceOnUse">
<stop stop-color="white" stop-opacity="0"/>
<stop offset="0.5" stop-color="white" stop-opacity="0.46"/>
<stop offset="1" stop-color="white" stop-opacity="0.7"/>
</linearGradient>
<linearGradient id="paint8_linear_1_43084" x1="24.7187" y1="89" x2="24.7187" y2="127.637" gradientUnits="userSpaceOnUse">
<stop stop-color="#2693F5"/>
<stop offset="0.13" stop-color="#19CAFF"/>
<stop offset="0.482358" stop-color="white" stop-opacity="0"/>
</linearGradient>
<linearGradient id="paint9_linear_1_43084" x1="61.9861" y1="75.559" x2="62.1563" y2="110.438" gradientUnits="userSpaceOnUse">
<stop stop-color="white" stop-opacity="0"/>
<stop offset="0.5" stop-color="white" stop-opacity="0.46"/>
<stop offset="1" stop-color="white" stop-opacity="0.7"/>
</linearGradient>
<linearGradient id="paint10_linear_1_43084" x1="62.1562" y1="89" x2="62.1562" y2="127.637" gradientUnits="userSpaceOnUse">
<stop stop-color="#2693F5"/>
<stop offset="0.13" stop-color="#19CAFF"/>
<stop offset="0.482358" stop-color="white" stop-opacity="0"/>
</linearGradient>
<linearGradient id="paint11_linear_1_43084" x1="99.4236" y1="75.559" x2="99.5938" y2="110.438" gradientUnits="userSpaceOnUse">
<stop stop-color="white" stop-opacity="0"/>
<stop offset="0.5" stop-color="white" stop-opacity="0.46"/>
<stop offset="1" stop-color="white" stop-opacity="0.7"/>
</linearGradient>
<linearGradient id="paint12_linear_1_43084" x1="99.5938" y1="89" x2="99.5938" y2="127.637" gradientUnits="userSpaceOnUse">
<stop stop-color="#2693F5"/>
<stop offset="0.13" stop-color="#19CAFF"/>
<stop offset="0.482358" stop-color="white" stop-opacity="0"/>
</linearGradient>
<linearGradient id="paint13_linear_1_43084" x1="61.381" y1="-7.09524" x2="61.6154" y2="71.0012" gradientUnits="userSpaceOnUse">
<stop stop-color="white" stop-opacity="0"/>
<stop offset="0.615538" stop-color="white" stop-opacity="0.46"/>
<stop offset="1" stop-color="white" stop-opacity="0.7"/>
</linearGradient>
<linearGradient id="paint14_linear_1_43084" x1="94.6857" y1="65.7429" x2="59.069" y2="7.53499" gradientUnits="userSpaceOnUse">
<stop stop-color="#6EBAFF"/>
<stop offset="0.53204" stop-color="#1595E1"/>
<stop offset="1" stop-color="#E5F9FF"/>
</linearGradient>
</defs>
</svg>
