<svg width="124" height="124" viewBox="0 0 124 124" fill="none" xmlns="http://www.w3.org/2000/svg">
<g id="Us">
<path id="1" fill-rule="evenodd" clip-rule="evenodd" d="M49.0989 49.1808C49.907 48.5111 50.0025 47.3063 49.31 46.5177L25.0087 18.8429C26.8176 16.2806 26.7012 12.8572 24.6525 10.3852C22.1913 7.41587 17.7762 6.99996 14.8104 9.45795C11.8446 11.9158 11.4338 16.3312 13.8946 19.3005C15.9433 21.7725 19.2855 22.5225 22.1392 21.2208L46.5108 48.9757C47.1759 49.7331 48.3228 49.824 49.0989 49.1808ZM17.1882 12.3272C15.8046 13.4739 15.6143 15.5355 16.7639 16.9226C17.9136 18.3099 19.9746 18.5057 21.3582 17.3588C22.742 16.2119 22.9323 14.1503 21.7827 12.7632C20.6331 11.3761 18.5721 11.1803 17.1882 12.3272Z" fill="url(#paint0_linear_1_43110)"/>
<path id="2" fill-rule="evenodd" clip-rule="evenodd" d="M66.3104 60.4448C67.1599 61.0611 68.3506 60.8542 68.9424 59.9874L89.7091 29.5705C92.6407 30.6858 95.9276 29.7222 97.8129 27.1234C100.077 24.0014 99.3829 19.6215 96.265 17.3596C93.1471 15.0978 88.7682 15.7973 86.5037 18.9188C84.6184 21.5176 84.7226 24.9414 86.6927 27.382L65.8659 57.8869C65.2975 58.7194 65.4945 59.8529 66.3104 60.4448ZM94.0767 20.376C92.6221 19.3207 90.5779 19.6488 89.5201 21.1071C88.4621 22.5655 88.7846 24.6105 90.2394 25.6656C91.6943 26.721 93.7384 26.3929 94.7963 24.9347C95.8541 23.4764 95.5316 21.4314 94.0767 20.376Z" fill="url(#paint1_linear_1_43110)"/>
<path id="3" fill-rule="evenodd" clip-rule="evenodd" d="M71.4124 67.6001C70.9656 68.5497 71.3912 69.6809 72.3533 70.1004L106.113 84.8218C105.565 87.9101 107.125 90.9593 110.03 92.3261C113.52 93.9678 117.693 92.4677 119.333 88.9822C120.973 85.4968 119.468 81.3255 115.979 79.6837C113.074 78.3169 109.73 79.0586 107.7 81.4498L73.8423 66.6857C72.9183 66.2828 71.8415 66.688 71.4124 67.6001ZM115.961 87.3957C116.726 85.7696 116.022 83.8226 114.392 83.0557C112.762 82.2886 110.813 82.9874 110.048 84.6136C109.283 86.24 109.987 88.1869 111.617 88.9539C113.247 89.7208 115.196 89.022 115.961 87.3957Z" fill="url(#paint2_linear_1_43110)"/>
<path id="4" fill-rule="evenodd" clip-rule="evenodd" d="M61.1979 65.8915C60.1539 65.7834 59.2269 66.5588 59.1486 67.6054L56.4036 104.333C53.3076 104.835 50.9449 107.315 50.6143 110.509C50.2174 114.345 53.0116 117.789 56.8432 118.185C60.6745 118.582 64.1147 115.784 64.5118 111.948C64.8424 108.754 63.0379 105.843 60.1105 104.717L62.8635 67.883C62.9386 66.8778 62.2005 65.9953 61.1979 65.8915ZM57.2269 114.479C59.0145 114.664 60.6196 113.356 60.8051 111.564C60.9907 109.772 59.6874 108.163 57.8998 107.978C56.1121 107.793 54.5069 109.101 54.3214 110.893C54.1359 112.685 55.4391 114.294 57.2269 114.479Z" fill="url(#paint3_linear_1_43110)"/>
<path id="5" fill-rule="evenodd" clip-rule="evenodd" d="M49.9662 67.0546C49.4232 66.1564 48.2457 65.8841 47.3634 66.4525L16.4029 86.3996C14.1358 84.2321 10.7328 83.8417 7.98533 85.5028C4.68505 87.4984 3.62159 91.8036 5.61456 95.1C7.60741 98.3962 11.9137 99.4547 15.2139 97.4594C17.9614 95.7983 19.1968 92.6035 18.3308 89.5889L49.381 69.584C50.2284 69.0381 50.4877 67.9172 49.9662 67.0546ZM8.80355 93.172C9.73333 94.7099 11.7442 95.2025 13.2859 94.2704C14.8277 93.3382 15.3258 91.3287 14.3958 89.791C13.4659 88.2529 11.4551 87.7602 9.91339 88.6923C8.37172 89.6244 7.87364 91.6339 8.80355 93.172Z" fill="url(#paint4_linear_1_43110)"/>
<path id="Intersect" d="M52.0998 45.3905C53.5316 43.8909 55.2004 42.5667 57.09 41.477C67.6184 35.4053 81.0142 38.9122 87.0104 49.3097C93.0067 59.7073 89.3326 73.0582 78.8043 79.1299C76.9147 80.2196 74.9326 81.0008 72.9176 81.489C65.3424 79.9511 58.467 75.3288 54.3305 68.1561C50.194 60.9833 49.6369 52.7174 52.0998 45.3905Z" fill="#00BEFF" fill-opacity="0.5"/>
<g id="Ellipse 14" filter="url(#filter0_b_1_43110)">
<circle cx="61.5" cy="62.5" r="32.5" fill="url(#paint5_linear_1_43110)"/>
<circle cx="61.5" cy="62.5" r="31.5" stroke="url(#paint6_linear_1_43110)" stroke-opacity="0.7" stroke-width="2"/>
</g>
<g id="Subtract" filter="url(#filter1_d_1_43110)">
<path d="M57.8352 63.4855C57.8352 65.7601 59.7034 67.6107 61.9998 67.6107C64.2962 67.6107 66.1644 65.7601 66.1644 63.4855C66.1644 61.211 64.2962 59.3604 61.9998 59.3604C59.7034 59.3604 57.8352 61.211 57.8352 63.4855Z" fill="url(#paint7_linear_1_43110)"/>
<path fill-rule="evenodd" clip-rule="evenodd" d="M79.9037 48.7775C79.9037 49.8573 79.9037 50.937 79.9549 52.0682C80.1595 62.9178 80.4152 77.6753 62.5123 83.8972L62.0008 84L61.4893 83.8972C43.5613 77.6844 43.8413 62.9093 44.0459 52.1152L44.0468 52.0682C44.098 50.9369 44.098 49.8571 44.098 48.7773C44.098 47.9031 44.7629 47.2347 45.6325 47.2347C52.0264 47.2347 56.8857 45.3836 60.9267 41.4242C61.5405 40.8586 62.4612 40.8586 63.075 41.4242C67.1159 45.3836 71.9753 47.2347 78.3692 47.2347C79.2387 47.2347 79.9037 47.9034 79.9037 48.7775ZM71.1277 65.69L71.1311 65.6933C71.5549 66.0885 71.6516 66.7154 71.3676 67.2179L69.9482 69.6484C69.6676 70.1434 69.0521 70.381 68.4899 70.2068L66.8257 69.6872C66.2619 70.1227 65.6538 70.4718 65.014 70.7292L64.6302 72.4204C64.5043 72.979 63.9937 73.3857 63.4157 73.3857H60.5839C60.0057 73.3857 59.4953 72.979 59.3694 72.4187L58.9854 70.7292C58.3458 70.4718 57.7377 70.1219 57.1739 69.6872L55.5114 70.2068C54.9466 70.3801 54.332 70.1434 54.0488 69.6434L52.6353 67.2229C52.348 66.7154 52.4445 66.0885 52.8685 65.6933L54.1529 64.5243C54.1096 64.1727 54.0871 63.8247 54.0871 63.4855C54.0871 63.1464 54.1096 62.7983 54.1537 62.4468L52.8728 61.281C52.4445 60.8825 52.348 60.2556 52.6329 59.7523L54.0521 57.3218C54.332 56.8269 54.9492 56.5917 55.5097 56.7642L57.1739 57.2839C57.7377 56.8491 58.3458 56.4992 58.9854 56.2418L59.3694 54.5507C59.4953 53.992 60.0057 53.5854 60.5839 53.5854H63.4157C63.9937 53.5854 64.5043 53.992 64.6302 54.5514L65.014 56.2418C65.6538 56.4992 66.2619 56.8491 66.8257 57.2839L68.4882 56.7642C69.0521 56.59 69.6676 56.8277 69.9508 57.3268L71.3643 59.7474C71.6516 60.2556 71.5549 60.8825 71.1311 61.2777L69.8466 62.4468C69.89 62.7983 69.9125 63.1464 69.9125 63.4855C69.9125 63.8247 69.89 64.1727 69.8466 64.5243L71.1277 65.69Z" fill="url(#paint8_linear_1_43110)"/>
<path d="M71.8255 64.9736C72.576 65.6839 72.7474 66.809 72.2382 67.7099L72.2347 67.7161L72.2312 67.7222L70.8145 70.148C70.2915 71.0633 69.1849 71.4691 68.1939 71.162L68.1918 71.1614L67.0063 70.7912C66.6445 71.0375 66.2676 71.2546 65.8779 71.4411L65.6057 72.6401C65.6057 72.6404 65.6056 72.6406 65.6055 72.6409L65.6053 72.6417L64.6302 72.4204C64.5043 72.979 63.9937 73.3857 63.4157 73.3857H60.5839C60.0057 73.3857 59.4953 72.979 59.3694 72.4187L71.8255 64.9736ZM71.8255 64.9736L71.8163 64.9645L71.8008 64.9504L70.8899 64.1216C70.9048 63.9085 70.9125 63.6961 70.9125 63.4855C70.9125 63.2749 70.9048 63.0626 70.8899 62.8494L71.8042 62.0173L71.8043 62.0173L71.8131 62.0091C72.5764 61.2974 72.7487 60.1642 72.2348 59.2553L72.2349 59.2552L72.2278 59.2432L70.817 56.827C70.2923 55.9092 69.1869 55.5018 68.1931 55.8088L68.1899 55.8098L67.0058 56.1799C66.6444 55.9339 66.2677 55.7167 65.8778 55.53L65.6058 54.332C65.6057 54.3318 65.6057 54.3316 65.6056 54.3313C65.3759 53.3116 64.4567 52.5854 63.4157 52.5854H60.5839C59.5429 52.5854 58.6238 53.3113 58.394 54.3304C58.394 54.3305 58.3939 54.3307 58.3939 54.3309L58.1216 55.5301C57.7318 55.7167 57.355 55.934 56.9936 56.18L55.8077 55.8097L55.8078 55.8097L55.8039 55.8085C54.8197 55.5055 53.7098 55.9035 53.1856 56.8226L51.7693 59.248L51.7692 59.248L51.7626 59.2597C51.2483 60.1683 51.4265 61.3013 52.1915 62.0131L52.1915 62.0132L52.1997 62.0206L53.1098 62.8489C53.0948 63.0624 53.0871 63.2749 53.0871 63.4855C53.0871 63.6961 53.0948 63.9085 53.1096 64.1216L52.1954 64.9538L52.1953 64.9538L52.1867 64.9618C51.4232 65.6735 51.2506 66.807 51.7651 67.7156L51.7651 67.7157L51.7718 67.7271L53.1824 70.1427C53.7076 71.0628 54.8122 71.4674 55.8047 71.1629L55.8097 71.1613L56.9937 70.7912C57.3552 71.0372 57.7319 71.2544 58.1217 71.441L58.3937 72.6378C58.3938 72.6383 58.3939 72.6388 58.394 72.6392L71.8255 64.9736ZM45.0457 52.1341L44.0459 52.1152L45.0457 52.1341L45.0464 52.1001C45.098 50.9511 45.098 49.8566 45.098 48.787V48.7773C45.098 48.4505 45.3201 48.2347 45.6325 48.2347C52.245 48.2347 57.3635 46.3088 61.613 42.1517C61.8406 41.9494 62.1611 41.9494 62.3887 42.1518C66.6381 46.3088 71.7567 48.2347 78.3692 48.2347C78.6813 48.2347 78.9037 48.4505 78.9037 48.7775V48.7869C78.9037 49.8566 78.9037 50.9511 78.9553 52.1001C79.0581 57.5523 79.1567 63.7582 77.0857 69.372C75.0476 74.8965 70.878 79.9136 62.248 82.9303L62.0008 82.98L61.7532 82.9302C53.1109 79.9178 48.9414 74.8988 46.9062 69.3783C44.8364 63.7639 44.9429 57.5624 45.0457 52.1341ZM61.9998 66.6107C60.2467 66.6107 58.8352 65.1989 58.8352 63.4855C58.8352 61.7722 60.2467 60.3604 61.9998 60.3604C63.7529 60.3604 65.1644 61.7722 65.1644 63.4855C65.1644 65.1989 63.7529 66.6107 61.9998 66.6107Z" stroke="url(#paint9_linear_1_43110)" stroke-width="2"/>
</g>
</g>
<defs>
<filter id="filter0_b_1_43110" x="9" y="10" width="105" height="105" filterUnits="userSpaceOnUse" color-interpolation-filters="sRGB">
<feFlood flood-opacity="0" result="BackgroundImageFix"/>
<feGaussianBlur in="BackgroundImageFix" stdDeviation="10"/>
<feComposite in2="SourceAlpha" operator="in" result="effect1_backgroundBlur_1_43110"/>
<feBlend mode="normal" in="SourceGraphic" in2="effect1_backgroundBlur_1_43110" result="shape"/>
</filter>
<filter id="filter1_d_1_43110" x="40" y="40" width="44" height="51" filterUnits="userSpaceOnUse" color-interpolation-filters="sRGB">
<feFlood flood-opacity="0" result="BackgroundImageFix"/>
<feColorMatrix in="SourceAlpha" type="matrix" values="0 0 0 0 0 0 0 0 0 0 0 0 0 0 0 0 0 0 127 0" result="hardAlpha"/>
<feOffset dy="3"/>
<feGaussianBlur stdDeviation="2"/>
<feComposite in2="hardAlpha" operator="out"/>
<feColorMatrix type="matrix" values="0 0 0 0 0 0 0 0 0 0 0 0 0 0 0 0 0 0 0.15 0"/>
<feBlend mode="normal" in2="BackgroundImageFix" result="effect1_dropShadow_1_43110"/>
<feBlend mode="normal" in="SourceGraphic" in2="effect1_dropShadow_1_43110" result="shape"/>
</filter>
<linearGradient id="paint0_linear_1_43110" x1="45.3568" y1="25.3608" x2="34.0668" y2="3.42028" gradientUnits="userSpaceOnUse">
<stop stop-color="#2693F5"/>
<stop offset="0.5" stop-color="#19CAFF"/>
<stop offset="1" stop-color="#95E7FF"/>
</linearGradient>
<linearGradient id="paint1_linear_1_43110" x1="88.453" y1="50.9" x2="106.899" y2="34.5113" gradientUnits="userSpaceOnUse">
<stop stop-color="#2693F5"/>
<stop offset="0.5" stop-color="#19CAFF"/>
<stop offset="1" stop-color="#95E7FF"/>
</linearGradient>
<linearGradient id="paint2_linear_1_43110" x1="84.9241" y1="87.5708" x2="104.727" y2="105.709" gradientUnits="userSpaceOnUse">
<stop stop-color="#2693F5"/>
<stop offset="0.66794" stop-color="#19CAFF"/>
<stop offset="1" stop-color="#95E7FF"/>
</linearGradient>
<linearGradient id="paint3_linear_1_43110" x1="51.1327" y1="95.0079" x2="39.9357" y2="129.288" gradientUnits="userSpaceOnUse">
<stop stop-color="#2693F5"/>
<stop offset="0.5" stop-color="#19CAFF"/>
<stop offset="1" stop-color="#95E7FF"/>
</linearGradient>
<linearGradient id="paint4_linear_1_43110" x1="24.9793" y1="74.1715" x2="-1.92324" y2="64.7265" gradientUnits="userSpaceOnUse">
<stop stop-color="#2693F5"/>
<stop offset="0.5" stop-color="#19CAFF"/>
<stop offset="1" stop-color="#95E7FF"/>
</linearGradient>
<linearGradient id="paint5_linear_1_43110" x1="60.9841" y1="-10.754" x2="61.5" y2="95" gradientUnits="userSpaceOnUse">
<stop stop-color="white" stop-opacity="0"/>
<stop offset="0.615538" stop-color="white" stop-opacity="0.46"/>
<stop offset="1" stop-color="white" stop-opacity="0.7"/>
</linearGradient>
<linearGradient id="paint6_linear_1_43110" x1="88.7381" y1="87.881" x2="34.5714" y2="33.4048" gradientUnits="userSpaceOnUse">
<stop stop-color="#6EBAFF"/>
<stop offset="0.53204" stop-color="#1595E1"/>
<stop offset="1" stop-color="#E5F9FF"/>
</linearGradient>
<linearGradient id="paint7_linear_1_43110" x1="25" y1="100.5" x2="48.4314" y2="113.279" gradientUnits="userSpaceOnUse">
<stop stop-color="#2693F5"/>
<stop offset="0.535442" stop-color="#19CAFF"/>
<stop offset="1" stop-color="#95E7FF"/>
</linearGradient>
<linearGradient id="paint8_linear_1_43110" x1="25" y1="100.5" x2="48.4314" y2="113.279" gradientUnits="userSpaceOnUse">
<stop stop-color="#2693F5"/>
<stop offset="0.535442" stop-color="#19CAFF"/>
<stop offset="1" stop-color="#95E7FF"/>
</linearGradient>
<linearGradient id="paint9_linear_1_43110" x1="62" y1="41" x2="62" y2="84" gradientUnits="userSpaceOnUse">
<stop stop-color="#34D1FF"/>
<stop offset="1" stop-color="#21ACFA" stop-opacity="0"/>
</linearGradient>
</defs>
</svg>
