<svg width="50" height="50" viewBox="0 0 50 50" fill="none" xmlns="http://www.w3.org/2000/svg">
<g id="Response">
<g id="Union">
<path d="M19.1874 14.1562C23.3173 14.0252 23.3163 8.03666 19.1873 7.90625C15.0575 8.03728 15.0585 14.0258 19.1874 14.1562Z" fill="url(#paint0_linear_1_44192)"/>
<path d="M23.875 14.1562H27.7813C28.8071 14.1394 28.8091 12.6109 27.7813 12.5938H23.875C22.8493 12.6106 22.8473 14.1391 23.875 14.1562Z" fill="url(#paint1_linear_1_44192)"/>
<path d="M19.1876 19.625C15.0577 19.756 15.0587 25.7445 19.1877 25.875C23.3175 25.7439 23.3165 19.7554 19.1876 19.625Z" fill="url(#paint2_linear_1_44192)"/>
<path d="M28.5625 25.875C28.5625 25.4432 28.2127 25.0938 27.7812 25.0938H23.875C23.4436 25.0938 23.0938 25.4432 23.0938 25.875C23.0938 26.3068 23.4436 26.6562 23.875 26.6562H27.7812C28.2127 26.6562 28.5625 26.3068 28.5625 25.875Z" fill="url(#paint3_linear_1_44192)"/>
<path fill-rule="evenodd" clip-rule="evenodd" d="M21.8189 32.3829C23.5548 35.3425 26.9559 36.7718 30.1597 36.0718L29.5478 37.0093C29.0029 37.8692 30.2774 38.7202 30.8563 37.8638L32.7659 34.9379C33.0122 34.548 32.8548 34.0145 32.4543 33.8088L29.9224 32.5736C28.993 32.1359 28.3212 33.5122 29.2374 33.9774C29.2374 33.9774 29.4665 34.0892 29.7039 34.205L30.2231 34.4584C26.66 35.5455 22.5856 32.8183 22.3447 29H27C29.5848 29 31.6875 26.8973 31.6875 24.3125V20.4062C31.6875 18.7767 30.8509 17.3402 29.5856 16.5C30.8509 15.6598 31.6875 14.2233 31.6875 12.5937V8.6875C31.6875 6.10266 29.5848 4 27 4H6.6875C4.10266 4 2 6.10266 2 8.6875V12.5937C2 14.2233 2.83661 15.6598 4.1019 16.5C2.83661 17.3402 2 18.7767 2 20.4062V24.3125C2 26.8973 4.10266 29 6.6875 29H20.7849C20.8698 30.1865 21.2118 31.3436 21.8189 32.3829ZM3.5625 12.5937V8.6875C3.5625 6.96402 4.9644 5.5625 6.6875 5.5625H27C28.7231 5.5625 30.125 6.96402 30.125 8.6875V12.5937C30.125 14.3172 28.7231 15.7187 27 15.7187H6.6875C4.9644 15.7187 3.5625 14.3172 3.5625 12.5937ZM3.5625 24.3125V20.4062C3.5625 18.6828 4.9644 17.2812 6.6875 17.2812H27C28.7231 17.2812 30.125 18.6828 30.125 20.4062V24.3125C30.125 26.036 28.7231 27.4375 27 27.4375H6.6875C4.9644 27.4375 3.5625 26.036 3.5625 24.3125Z" fill="url(#paint4_linear_1_44192)"/>
<path d="M38.3693 9.55124C38.7557 9.35975 39.2245 9.51539 39.4176 9.90067C39.6106 10.2867 39.4542 10.7559 39.0681 10.949L38.0789 11.4435C41.1707 12.4849 43.4062 15.4057 43.4062 18.8439C43.4062 20.3186 42.9931 21.7552 42.2118 22.9973C42.0631 23.2338 41.8094 23.3627 41.5496 23.3627C40.9557 23.3788 40.5544 22.6645 40.8888 22.1657C43.1705 18.708 41.1329 13.7517 37.1977 12.8102L37.8062 13.7229C38.3686 14.5745 37.0793 15.4372 36.5062 14.5897C36.5062 14.5897 34.9437 12.2459 34.9303 12.2131C34.6932 11.8427 34.8609 11.3119 35.2443 11.1137L38.3693 9.55124Z" fill="url(#paint5_linear_1_44192)"/>
<path d="M41.5497 24.9252C44.2771 24.8937 45.128 20.2733 44.9325 18.1275C47.1636 18.4862 48.875 20.4193 48.875 22.75V38.375C48.875 40.9598 46.7723 43.0625 44.1875 43.0625H41.518C41.2414 43.9384 41.3757 44.8691 41.8979 45.5314C42.0608 45.7389 42.1089 46.0143 42.0246 46.2638C41.7722 46.8788 41.012 46.9125 40.3795 46.9405C40.2321 46.947 40.0917 46.9532 39.9662 46.9664C37.5652 46.9915 35.3735 45.4179 34.9208 43.0625H17.625C15.0402 43.0625 12.9375 40.9598 12.9375 38.375V30.5625H19.4355C20.2949 34.5058 23.883 37.5175 27.8935 37.7681C28.121 39.8572 31.0531 40.5204 32.1647 38.7176L34.0747 35.7909C34.7718 34.7365 34.447 33.2298 33.3893 32.5454C33.3498 32.5012 31.6796 31.6902 30.9458 31.3339C30.7639 31.2456 30.6395 31.1852 30.6118 31.1714C29.2527 30.4565 27.4336 31.4043 27.2707 32.9361C26.0515 32.5803 24.9558 31.7339 24.3966 30.5625H27C30.4462 30.5625 33.25 27.7587 33.25 24.3125C33.234 23.9093 33.243 23.3914 33.2529 22.8207C33.2813 21.1829 33.3173 19.1099 32.7898 18.0625H40.2107C40.4125 19.1827 40.1725 20.3758 39.566 21.334C39.233 21.8642 39.1262 22.4921 39.265 23.1025C39.4861 24.1484 40.4817 24.9387 41.5497 24.9252Z" fill="url(#paint6_linear_1_44192)"/>
</g>
</g>
<defs>
<linearGradient id="paint0_linear_1_44192" x1="18.0473" y1="56.1476" x2="43.2907" y2="60.2703" gradientUnits="userSpaceOnUse">
<stop stop-color="#2693F5"/>
<stop offset="0.5" stop-color="#19CAFF"/>
<stop offset="1" stop-color="#95E7FF"/>
</linearGradient>
<linearGradient id="paint1_linear_1_44192" x1="18.0473" y1="56.1476" x2="43.2907" y2="60.2703" gradientUnits="userSpaceOnUse">
<stop stop-color="#2693F5"/>
<stop offset="0.5" stop-color="#19CAFF"/>
<stop offset="1" stop-color="#95E7FF"/>
</linearGradient>
<linearGradient id="paint2_linear_1_44192" x1="18.0473" y1="56.1476" x2="43.2907" y2="60.2703" gradientUnits="userSpaceOnUse">
<stop stop-color="#2693F5"/>
<stop offset="0.5" stop-color="#19CAFF"/>
<stop offset="1" stop-color="#95E7FF"/>
</linearGradient>
<linearGradient id="paint3_linear_1_44192" x1="18.0473" y1="56.1476" x2="43.2907" y2="60.2703" gradientUnits="userSpaceOnUse">
<stop stop-color="#2693F5"/>
<stop offset="0.5" stop-color="#19CAFF"/>
<stop offset="1" stop-color="#95E7FF"/>
</linearGradient>
<linearGradient id="paint4_linear_1_44192" x1="18.0473" y1="56.1476" x2="43.2907" y2="60.2703" gradientUnits="userSpaceOnUse">
<stop stop-color="#2693F5"/>
<stop offset="0.5" stop-color="#19CAFF"/>
<stop offset="1" stop-color="#95E7FF"/>
</linearGradient>
<linearGradient id="paint5_linear_1_44192" x1="18.0473" y1="56.1476" x2="43.2907" y2="60.2703" gradientUnits="userSpaceOnUse">
<stop stop-color="#2693F5"/>
<stop offset="0.5" stop-color="#19CAFF"/>
<stop offset="1" stop-color="#95E7FF"/>
</linearGradient>
<linearGradient id="paint6_linear_1_44192" x1="18.0473" y1="56.1476" x2="43.2907" y2="60.2703" gradientUnits="userSpaceOnUse">
<stop stop-color="#2693F5"/>
<stop offset="0.5" stop-color="#19CAFF"/>
<stop offset="1" stop-color="#95E7FF"/>
</linearGradient>
</defs>
</svg>
