<svg width="50" height="50" viewBox="0 0 50 50" fill="none" xmlns="http://www.w3.org/2000/svg">
<g id="Protect">
<g id="Union">
<path d="M8.10938 12.4688C9.64864 12.4688 10.9368 11.3935 11.2636 9.95314H13.2642C13.4561 9.95314 13.6365 10.0279 13.7723 10.1637L14.7886 11.18C14.9288 11.3205 15.1128 11.3906 15.2968 11.3906C15.4808 11.3906 15.6644 11.3205 15.8053 11.18C16.086 10.8994 16.086 10.4444 15.8053 10.1637L14.7886 9.1474C14.3814 8.73987 13.8399 8.51562 13.2642 8.51562H11.2636C10.9368 7.07526 9.64864 6 8.10938 6C6.32308 6 4.875 7.44808 4.875 9.23438C4.875 11.0207 6.32308 12.4688 8.10938 12.4688Z" fill="url(#paint0_linear_1_44206)"/>
<path d="M8.10938 37.625C9.64863 37.625 10.9368 38.7002 11.2636 40.1406H13.2628C13.4529 40.1406 13.6384 40.064 13.7717 39.9307L15.5075 38.1949C15.7881 37.9143 16.2431 37.9143 16.5238 38.1949C16.8045 38.4756 16.8044 38.9306 16.5238 39.2112L14.788 40.947C14.3869 41.3485 13.831 41.5781 13.2628 41.5781H11.2636C10.9368 43.0185 9.64865 44.0938 8.10938 44.0938C6.32308 44.0938 4.875 42.6457 4.875 40.8594C4.875 39.0731 6.32308 37.625 8.10938 37.625Z" fill="url(#paint1_linear_1_44206)"/>
<path d="M8.46876 25.0469C8.46876 26.8332 7.02068 28.2812 5.23438 28.2812C3.44808 28.2812 2 26.8332 2 25.0469C2 23.2606 3.44808 21.8125 5.23438 21.8125C7.02068 21.8125 8.46876 23.2606 8.46876 25.0469Z" fill="url(#paint2_linear_1_44206)"/>
<path d="M34.703 11.3906C34.519 11.3906 34.335 11.3205 34.1949 11.18C33.9142 10.8994 33.9142 10.4444 34.1949 10.1637L35.2112 9.1474C35.6187 8.73987 36.1599 8.51562 36.7356 8.51562H38.7364C39.0632 7.07526 40.3514 6 41.8906 6C43.6769 6 45.125 7.44808 45.125 9.23438C45.125 11.0207 43.6769 12.4688 41.8906 12.4688C40.3514 12.4688 39.0632 11.3935 38.7364 9.95314H36.7356C36.5438 9.95314 36.3633 10.0279 36.2275 10.1637L35.2112 11.18C35.0707 11.3205 34.8867 11.3906 34.703 11.3906Z" fill="url(#paint3_linear_1_44206)"/>
<path d="M38.7364 41.5781H36.7371C36.1689 41.5781 35.613 41.3481 35.2119 40.947L33.4761 39.2112C33.1955 38.9306 33.1955 38.4756 33.4761 38.1949C33.7568 37.9143 34.2118 37.9143 34.4928 38.1949L36.2286 39.9307C36.3619 40.064 36.5473 40.1406 36.7374 40.1406H38.7364C39.0632 38.7002 40.3514 37.625 41.8906 37.625C43.6769 37.625 45.125 39.0731 45.125 40.8594C45.125 42.6457 43.6769 44.0938 41.8906 44.0938C40.3513 44.0938 39.0632 43.0185 38.7364 41.5781Z" fill="url(#paint4_linear_1_44206)"/>
<path d="M44.7656 28.2812C46.5519 28.2812 48 26.8332 48 25.0469C48 23.2606 46.5519 21.8125 44.7656 21.8125C42.9793 21.8125 41.5312 23.2606 41.5312 25.0469C41.5312 26.8332 42.9793 28.2812 44.7656 28.2812Z" fill="url(#paint5_linear_1_44206)"/>
<path fill-rule="evenodd" clip-rule="evenodd" d="M20.3281 21.0937H19.9687C18.3839 21.0937 17.0937 22.3839 17.0937 23.9687V30.0781C17.0937 32.4572 19.0272 34.3906 21.4062 34.3906H28.5937C30.9728 34.3906 32.9062 32.4572 32.9062 30.0781V23.9687C32.9062 22.3839 31.6161 21.0937 30.0312 21.0937H29.6719V19.6562C29.6719 17.0803 27.576 14.9844 25 14.9844C22.424 14.9844 20.3281 17.0803 20.3281 19.6562V21.0937ZM21.7656 21.0937H28.2344V19.6562C28.2344 17.8727 26.7836 16.4219 25 16.4219C23.2164 16.4219 21.7656 17.8727 21.7656 19.6562V21.0937ZM25.7188 28.8742V30.7969C25.7188 31.1922 25.3953 31.5156 25 31.5156C24.6047 31.5156 24.2812 31.1922 24.2812 30.7969V28.8742C23.4439 28.5831 22.8437 27.7817 22.8437 26.8437C22.8437 25.6542 23.8105 24.6875 25 24.6875C26.1895 24.6875 27.1562 25.6542 27.1562 26.8437C27.1562 27.7817 26.5561 28.5831 25.7188 28.8742Z" fill="url(#paint6_linear_1_44206)"/>
<path fill-rule="evenodd" clip-rule="evenodd" d="M24.6349 41.1192C24.7474 41.1853 24.8739 41.2188 25 41.2188C25.1261 41.2188 25.2523 41.1857 25.3651 41.1192L32.3079 37.0245C36.8888 34.3231 39.7344 29.3414 39.7344 24.0234V17.2614C39.7344 16.4844 39.3143 15.765 38.6376 15.3833L26.5892 8.58716C25.5908 8.02258 24.4092 8.02295 23.4108 8.58681L11.3624 15.3833C10.6861 15.765 10.2656 16.4848 10.2656 17.2614V24.0234C10.2656 29.3414 13.1115 34.3231 17.6921 37.0245L24.6349 41.1192ZM24.1174 9.83886C24.4013 9.67858 24.7068 9.59377 25 9.59377C25.2932 9.59377 25.5984 9.67894 25.883 9.83924L37.9314 16.6357C38.1567 16.7626 38.2969 17.0023 38.2969 17.2614V24.0234C38.2969 28.8347 35.722 33.3416 31.5776 35.7861L25 39.6652L18.4224 35.7861C14.2777 33.342 11.7031 28.8351 11.7031 24.0234V17.2614C11.7031 17.0026 11.8429 16.7629 12.0686 16.6357L24.1174 9.83886Z" fill="url(#paint7_linear_1_44206)"/>
</g>
</g>
<defs>
<linearGradient id="paint0_linear_1_44206" x1="17.7477" y1="52.2334" x2="42.3759" y2="56.6855" gradientUnits="userSpaceOnUse">
<stop stop-color="#2693F5"/>
<stop offset="0.5" stop-color="#19CAFF"/>
<stop offset="1" stop-color="#95E7FF"/>
</linearGradient>
<linearGradient id="paint1_linear_1_44206" x1="17.7477" y1="52.2334" x2="42.3759" y2="56.6855" gradientUnits="userSpaceOnUse">
<stop stop-color="#2693F5"/>
<stop offset="0.5" stop-color="#19CAFF"/>
<stop offset="1" stop-color="#95E7FF"/>
</linearGradient>
<linearGradient id="paint2_linear_1_44206" x1="17.7477" y1="52.2334" x2="42.3759" y2="56.6855" gradientUnits="userSpaceOnUse">
<stop stop-color="#2693F5"/>
<stop offset="0.5" stop-color="#19CAFF"/>
<stop offset="1" stop-color="#95E7FF"/>
</linearGradient>
<linearGradient id="paint3_linear_1_44206" x1="17.7477" y1="52.2334" x2="42.3759" y2="56.6855" gradientUnits="userSpaceOnUse">
<stop stop-color="#2693F5"/>
<stop offset="0.5" stop-color="#19CAFF"/>
<stop offset="1" stop-color="#95E7FF"/>
</linearGradient>
<linearGradient id="paint4_linear_1_44206" x1="17.7477" y1="52.2334" x2="42.3759" y2="56.6855" gradientUnits="userSpaceOnUse">
<stop stop-color="#2693F5"/>
<stop offset="0.5" stop-color="#19CAFF"/>
<stop offset="1" stop-color="#95E7FF"/>
</linearGradient>
<linearGradient id="paint5_linear_1_44206" x1="17.7477" y1="52.2334" x2="42.3759" y2="56.6855" gradientUnits="userSpaceOnUse">
<stop stop-color="#2693F5"/>
<stop offset="0.5" stop-color="#19CAFF"/>
<stop offset="1" stop-color="#95E7FF"/>
</linearGradient>
<linearGradient id="paint6_linear_1_44206" x1="17.7477" y1="52.2334" x2="42.3759" y2="56.6855" gradientUnits="userSpaceOnUse">
<stop stop-color="#2693F5"/>
<stop offset="0.5" stop-color="#19CAFF"/>
<stop offset="1" stop-color="#95E7FF"/>
</linearGradient>
<linearGradient id="paint7_linear_1_44206" x1="17.7477" y1="52.2334" x2="42.3759" y2="56.6855" gradientUnits="userSpaceOnUse">
<stop stop-color="#2693F5"/>
<stop offset="0.5" stop-color="#19CAFF"/>
<stop offset="1" stop-color="#95E7FF"/>
</linearGradient>
</defs>
</svg>
