<svg width="50" height="50" viewBox="0 0 50 50" fill="none" xmlns="http://www.w3.org/2000/svg">
<g id="Virus" clip-path="url(#clip0_1_44185)">
<g id="Union">
<path d="M35.1363 24.087C34.888 24.5834 34.3807 24.897 33.8257 24.897H30.8781V27.948H33.8257C34.3807 27.948 34.8881 28.2615 35.1363 28.7579L36.6072 31.6998C36.9691 32.4236 36.6758 33.3037 35.952 33.6656C35.2436 34.0242 34.3495 33.7415 33.9862 33.0103L32.9202 30.8784H30.6933C30.0406 33.4129 27.7356 35.2911 25.0002 35.2911C22.2649 35.2911 19.9599 33.413 19.3073 30.8784H17.0803L16.0143 33.0103C15.651 33.7413 14.7567 34.0242 14.0485 33.6656C13.3248 33.3037 13.0314 32.4236 13.3933 31.6998L14.8642 28.7579C15.1125 28.2615 15.6198 27.948 16.1748 27.948H19.1224V24.897H16.1748C15.6198 24.897 15.1124 24.5834 14.8642 24.087L13.3933 21.1451C13.0314 20.4213 13.3247 19.5413 14.0485 19.1794C14.7725 18.8175 15.6523 19.1108 16.0143 19.8346L17.0803 21.9665H19.1247C19.149 20.3975 19.7902 18.9759 20.8171 17.9343L19.3308 15.4572C18.9145 14.7633 19.1394 13.8633 19.8333 13.447C20.5271 13.0307 21.4273 13.2556 21.8436 13.9495L23.3283 16.4241C23.8586 16.2665 24.4195 16.1805 25.0002 16.1805C25.581 16.1805 26.1419 16.2665 26.6722 16.4241L28.1569 13.9495C28.5733 13.2556 29.4733 13.0307 30.1672 13.447C30.8611 13.8634 31.086 14.7633 30.6697 15.4572L29.1834 17.9343C30.2103 18.9758 30.8515 20.3975 30.8758 21.9665H32.9202L33.9862 19.8346C34.3482 19.1109 35.2283 18.8176 35.952 19.1794C36.6757 19.5413 36.9691 20.4213 36.6072 21.1451L35.1363 24.087Z" fill="url(#paint0_linear_1_44185)"/>
<path fill-rule="evenodd" clip-rule="evenodd" d="M47.0092 23.5348H48.5348C49.344 23.5348 50 24.1909 50 25C50 25.8092 49.344 26.4652 48.5348 26.4652H47.0092C46.6612 31.8057 44.4165 36.7786 40.5976 40.5976C36.7785 44.4165 31.8056 46.6612 26.4652 47.0092V48.5349C26.4652 49.3441 25.8092 50.0001 25 50.0001C24.1909 50.0001 23.5349 49.3441 23.5349 48.5349V47.0092C18.1944 46.6612 13.2215 44.4165 9.40254 40.5976C5.5836 36.7785 3.33885 31.8056 2.99092 26.4652H1.46518C0.656009 26.4652 0 25.8092 0 25C0 24.1909 0.656009 23.5349 1.46518 23.5349H2.99092C3.33885 18.1944 5.5836 13.2215 9.40254 9.40254C13.2215 5.5836 18.1944 3.33885 23.5349 2.99092V1.46518C23.5349 0.656009 24.1909 0 25 0C25.8092 0 26.4652 0.656009 26.4652 1.46518V2.99082C31.8057 3.33875 36.7786 5.5835 40.5976 9.40244C44.4165 13.2215 46.6612 18.1944 47.0092 23.5348ZM26.4652 42.6511V44.0722C35.8468 43.3582 43.3582 35.8467 44.0723 26.4651H42.6512C41.8421 26.4651 41.1861 25.8091 41.1861 24.9999C41.1861 24.1908 41.8421 23.5348 42.6512 23.5348H44.0723C43.3582 14.1532 35.8468 6.64175 26.4652 5.92782V7.34894C26.4652 8.15811 25.8092 8.81412 25 8.81412C24.1909 8.81412 23.5349 8.15811 23.5349 7.34894V5.92792C14.1532 6.64185 6.64175 14.1533 5.92782 23.5349H7.34894C8.15811 23.5349 8.81412 24.1909 8.81412 25C8.81412 25.8092 8.15811 26.4652 7.34894 26.4652H5.92782C6.64185 35.8468 14.1533 43.3582 23.5349 44.0722V42.6511C23.5349 41.842 24.1909 41.186 25 41.186C25.8092 41.186 26.4652 41.842 26.4652 42.6511Z" fill="url(#paint1_linear_1_44185)"/>
</g>
</g>
<defs>
<linearGradient id="paint0_linear_1_44185" x1="17.1171" y1="60.6839" x2="44.1557" y2="64.7315" gradientUnits="userSpaceOnUse">
<stop stop-color="#2693F5"/>
<stop offset="0.5" stop-color="#19CAFF"/>
<stop offset="1" stop-color="#95E7FF"/>
</linearGradient>
<linearGradient id="paint1_linear_1_44185" x1="17.1171" y1="60.6839" x2="44.1557" y2="64.7315" gradientUnits="userSpaceOnUse">
<stop stop-color="#2693F5"/>
<stop offset="0.5" stop-color="#19CAFF"/>
<stop offset="1" stop-color="#95E7FF"/>
</linearGradient>
<clipPath id="clip0_1_44185">
<rect width="50" height="50" fill="white"/>
</clipPath>
</defs>
</svg>
