<svg width="50" height="50" viewBox="0 0 50 50" fill="none" xmlns="http://www.w3.org/2000/svg">
<g id="Multi-layer">
<g id="Union">
<path d="M2.73438 15.4141C2.73401 15.2033 2.7904 14.9963 2.89762 14.8149C3.00484 14.6334 3.15895 14.4842 3.34375 14.3828L24.4375 2.87499C24.6106 2.78267 24.8038 2.73438 25 2.73438C25.1962 2.73438 25.3893 2.78267 25.5625 2.87499L46.6562 14.3828C46.8383 14.4855 46.9899 14.6347 47.0953 14.8153C47.2008 14.9958 47.2564 15.2011 47.2564 15.4102C47.2564 15.6192 47.2008 15.8245 47.0953 16.0051C46.9898 16.1856 46.8383 16.3348 46.6562 16.4375L25.5625 27.9453C25.3894 28.0377 25.1962 28.086 25 28.086C24.8038 28.086 24.6106 28.0377 24.4375 27.9453L3.3438 16.4375C3.15929 16.3378 3.00521 16.19 2.89792 16.0098C2.79062 15.8296 2.73411 15.6238 2.73438 15.4141Z" fill="url(#paint0_linear_1_44199)"/>
<path d="M47.1249 24.4375C47.2728 24.7113 47.3065 25.0324 47.2187 25.3309C47.1309 25.6294 46.9287 25.8812 46.6562 26.0313L25.5624 37.5313C25.3911 37.6291 25.1973 37.6806 25 37.6806C24.8027 37.6806 24.6088 37.6291 24.4375 37.5313L3.34373 26.0313C3.20776 25.9577 3.08765 25.858 2.99028 25.7379C2.89291 25.6179 2.82021 25.4797 2.77633 25.3315C2.73245 25.1833 2.71827 25.0278 2.73459 24.8741C2.75092 24.7203 2.79742 24.5713 2.87145 24.4356C2.94548 24.2999 3.04557 24.1801 3.16598 24.0832C3.28639 23.9862 3.42476 23.914 3.57315 23.8706C3.72153 23.8272 3.87703 23.8136 4.0307 23.8304C4.18438 23.8473 4.33322 23.8943 4.46869 23.9688L24.9999 35.1719L45.5312 23.9688C45.805 23.8209 46.1261 23.7872 46.4246 23.875C46.7231 23.9628 46.9748 24.165 47.1249 24.4375Z" fill="url(#paint1_linear_1_44199)"/>
<path d="M47.2191 34.9168C47.3069 34.6183 47.2731 34.2972 47.1252 34.0234C46.9743 33.7517 46.722 33.5507 46.4234 33.4644C46.1248 33.378 45.8042 33.4133 45.5315 33.5625L25.0002 44.7578L4.46899 33.5625C4.33402 33.4878 4.18562 33.4405 4.03231 33.4233C3.879 33.4061 3.7238 33.4193 3.57563 33.4623C3.42746 33.5052 3.28923 33.577 3.16889 33.6735C3.04855 33.7701 2.94846 33.8894 2.87437 34.0247C2.80028 34.16 2.75366 34.3087 2.73718 34.4621C2.72069 34.6154 2.73467 34.7706 2.77831 34.9185C2.82195 35.0665 2.8944 35.2044 2.99148 35.3243C3.08856 35.4442 3.20838 35.5437 3.34404 35.6172L24.4378 47.125C24.6109 47.2173 24.8041 47.2656 25.0003 47.2656C25.1965 47.2656 25.3896 47.2173 25.5627 47.125L46.6565 35.6172C46.9291 35.4671 47.1313 35.2153 47.2191 34.9168Z" fill="url(#paint2_linear_1_44199)"/>
</g>
</g>
<defs>
<linearGradient id="paint0_linear_1_44199" x1="17.9756" y1="56.7809" x2="42.0608" y2="60.387" gradientUnits="userSpaceOnUse">
<stop stop-color="#2693F5"/>
<stop offset="0.5" stop-color="#19CAFF"/>
<stop offset="1" stop-color="#95E7FF"/>
</linearGradient>
<linearGradient id="paint1_linear_1_44199" x1="17.9756" y1="56.7809" x2="42.0608" y2="60.387" gradientUnits="userSpaceOnUse">
<stop stop-color="#2693F5"/>
<stop offset="0.5" stop-color="#19CAFF"/>
<stop offset="1" stop-color="#95E7FF"/>
</linearGradient>
<linearGradient id="paint2_linear_1_44199" x1="17.9756" y1="56.7809" x2="42.0608" y2="60.387" gradientUnits="userSpaceOnUse">
<stop stop-color="#2693F5"/>
<stop offset="0.5" stop-color="#19CAFF"/>
<stop offset="1" stop-color="#95E7FF"/>
</linearGradient>
</defs>
</svg>
