<svg width="50" height="50" viewBox="0 0 50 50" fill="none" xmlns="http://www.w3.org/2000/svg">
<g id="Systems">
<g id="Union">
<path d="M17.2173 7.86876C17.2173 4.04827 20.2656 1 24.021 1C27.7765 1 30.8898 4.04014 30.906 7.86876V22.663C29.9387 22.7931 28.9714 22.6142 28.126 22.1265C27.2075 21.5982 26.5409 20.7609 26.1914 19.7611C27.1993 18.7206 27.8009 17.3631 27.874 15.8837C27.8984 15.4447 27.557 15.0789 27.1262 15.0545C26.7035 15.0302 26.3214 15.3634 26.2971 15.8024C26.2402 16.9973 25.7199 18.0947 24.8339 18.8832C23.956 19.6635 22.818 20.0618 21.6393 20.0049C21.2085 19.9887 20.8346 20.3138 20.8102 20.7528C20.7858 21.1917 21.1191 21.5575 21.558 21.5819C21.6637 21.59 21.7694 21.59 21.875 21.59C22.948 21.59 23.9722 21.3136 24.8827 20.7853C25.3948 21.9233 26.2402 22.8662 27.3294 23.5003C28.2561 24.0286 29.2803 24.305 30.3208 24.305C30.4599 24.305 30.6035 24.2915 30.7482 24.2779C30.798 24.2732 30.848 24.2685 30.8979 24.2644V41.6273C30.8979 45.3828 27.7846 48.431 24.0291 48.431C20.6801 48.431 17.9082 46.0087 17.3392 42.8222C17.8595 40.091 20.1599 38.0344 23.0212 37.9369C24.0617 38.4571 25.2403 38.7497 26.4921 38.7497C26.9311 38.7497 27.2806 38.4002 27.2806 37.9613C27.2806 37.5223 26.9311 37.1728 26.4921 37.1728C23.2732 37.1728 20.672 34.7504 20.4525 31.6046C21.0622 30.5072 21.3142 29.2066 21.0866 27.8573C21.0134 27.4264 20.607 27.1338 20.1761 27.207C19.7453 27.2801 19.4527 27.6866 19.5258 28.1174C19.6884 29.0847 19.5015 30.0114 19.0706 30.7917C18.9812 30.8811 18.9243 30.9868 18.8918 31.1087C18.3065 31.9785 17.3961 32.6288 16.2825 32.8402C15.8517 32.9296 15.5753 33.336 15.6566 33.7668C15.7297 34.1489 16.0549 34.409 16.4288 34.409C16.4776 34.409 16.5263 34.4009 16.5751 34.3927C17.5506 34.2058 18.4122 33.7831 19.1194 33.1978C19.4852 34.5309 20.2005 35.7177 21.1678 36.6444C18.7374 37.3191 16.8271 39.1562 16.0386 41.546C15.6972 41.5948 15.3558 41.6273 15.0144 41.6273C11.2589 41.6273 8.21067 38.514 8.21067 34.8236C8.21067 33.5311 8.53582 32.3687 9.18612 31.3282C6.20288 30.6129 4 27.8979 4 24.7196C4 21.9639 5.642 19.5904 8.01558 18.5336C9.36495 19.5985 11.0151 20.1838 12.7709 20.1838C13.2098 20.1838 13.5594 19.8342 13.5594 19.3953C13.5594 18.9563 13.2098 18.6068 12.7709 18.6068C11.0801 18.6068 9.51127 17.9402 8.35699 16.7209C8.35292 16.7169 8.34683 16.7128 8.34073 16.7087C8.33463 16.7047 8.32854 16.7006 8.32447 16.6965C8.25132 16.3064 8.21067 15.9162 8.21067 15.5097C8.21067 11.6893 11.2589 8.64099 15.0144 8.64099C15.8598 8.64099 16.632 8.77105 17.3473 9.03117C17.2823 8.64912 17.2173 8.25894 17.2173 7.86876Z" fill="url(#paint0_linear_1_44234)"/>
<path d="M38.2544 9.35624V10.4455C38.2544 12.0956 36.9051 13.445 35.2549 13.445H32.4668V11.868H35.2549C36.0353 11.868 36.6775 11.2258 36.6775 10.4455V9.29934C35.3687 8.92542 34.4096 7.73049 34.4096 6.29984C34.4096 4.57656 35.824 3.17029 37.5472 3.17029C39.2787 3.17029 40.6931 4.57656 40.6931 6.29984C40.6931 7.7874 39.6444 9.03109 38.2544 9.35624Z" fill="url(#paint1_linear_1_44234)"/>
<path d="M44.2453 16.7129V17.8021C44.2453 19.4523 42.8959 20.8016 41.2458 20.8016H32.4668V19.2246H41.2458C42.0262 19.2246 42.6683 18.5825 42.6683 17.8021V16.656C41.3596 16.2821 40.4004 15.0871 40.4004 13.6565C40.4004 11.9332 41.8148 10.5188 43.5381 10.5188C45.2695 10.5188 46.6839 11.9332 46.6839 13.6565C46.6839 15.144 45.6353 16.3877 44.2453 16.7129Z" fill="url(#paint2_linear_1_44234)"/>
<path d="M44.2455 37.5549V36.4656C44.2455 34.8155 42.8961 33.4742 41.2541 33.4742H32.4751V35.0512H41.2541C42.0345 35.0512 42.6766 35.6934 42.6766 36.4737V37.6199C41.3679 38.0019 40.4087 39.1969 40.4087 40.6194C40.4087 42.3427 41.8231 43.7571 43.5464 43.7571C45.2778 43.7571 46.6922 42.3427 46.6922 40.6194C46.676 39.1237 45.6273 37.88 44.2455 37.5549Z" fill="url(#paint3_linear_1_44234)"/>
<path d="M36.9296 41.7167V42.806C38.3196 43.1311 39.3601 44.3748 39.3764 45.8705C39.3764 47.5938 37.962 49 36.2306 49C34.5073 49 33.101 47.5938 33.101 45.8705C33.101 44.4398 34.0602 43.253 35.3608 42.8629V41.7248C35.3608 40.9364 34.7186 40.3023 33.9383 40.3023H32.4751V38.7253H33.9383C35.5884 38.7253 36.9296 40.0584 36.9296 41.7167Z" fill="url(#paint4_linear_1_44234)"/>
<path d="M43.4489 30.2715C45.1803 30.2715 46.5947 28.8571 46.5947 27.1256C46.5947 25.4024 45.1803 23.9961 43.4489 23.9961C42.0019 23.9961 40.7745 24.9959 40.4331 26.3453H32.4751V27.9223H40.4331C40.7826 29.2716 41.9938 30.2715 43.4489 30.2715Z" fill="url(#paint5_linear_1_44234)"/>
</g>
</g>
<defs>
<linearGradient id="paint0_linear_1_44234" x1="18.6154" y1="59.2565" x2="41.8083" y2="62.3445" gradientUnits="userSpaceOnUse">
<stop stop-color="#2693F5"/>
<stop offset="0.5" stop-color="#19CAFF"/>
<stop offset="1" stop-color="#95E7FF"/>
</linearGradient>
<linearGradient id="paint1_linear_1_44234" x1="18.6154" y1="59.2565" x2="41.8083" y2="62.3445" gradientUnits="userSpaceOnUse">
<stop stop-color="#2693F5"/>
<stop offset="0.5" stop-color="#19CAFF"/>
<stop offset="1" stop-color="#95E7FF"/>
</linearGradient>
<linearGradient id="paint2_linear_1_44234" x1="18.6154" y1="59.2565" x2="41.8083" y2="62.3445" gradientUnits="userSpaceOnUse">
<stop stop-color="#2693F5"/>
<stop offset="0.5" stop-color="#19CAFF"/>
<stop offset="1" stop-color="#95E7FF"/>
</linearGradient>
<linearGradient id="paint3_linear_1_44234" x1="18.6154" y1="59.2565" x2="41.8083" y2="62.3445" gradientUnits="userSpaceOnUse">
<stop stop-color="#2693F5"/>
<stop offset="0.5" stop-color="#19CAFF"/>
<stop offset="1" stop-color="#95E7FF"/>
</linearGradient>
<linearGradient id="paint4_linear_1_44234" x1="18.6154" y1="59.2565" x2="41.8083" y2="62.3445" gradientUnits="userSpaceOnUse">
<stop stop-color="#2693F5"/>
<stop offset="0.5" stop-color="#19CAFF"/>
<stop offset="1" stop-color="#95E7FF"/>
</linearGradient>
<linearGradient id="paint5_linear_1_44234" x1="18.6154" y1="59.2565" x2="41.8083" y2="62.3445" gradientUnits="userSpaceOnUse">
<stop stop-color="#2693F5"/>
<stop offset="0.5" stop-color="#19CAFF"/>
<stop offset="1" stop-color="#95E7FF"/>
</linearGradient>
</defs>
</svg>
