<svg width="50" height="50" viewBox="0 0 50 50" fill="none" xmlns="http://www.w3.org/2000/svg">
<g id="Analysis" clip-path="url(#clip0_1_44213)">
<g id="Union">
<path d="M34.8529 27.5C32.3529 32.647 27.0588 36.3235 20.8823 36.3235C12.5 36.3235 5.44115 29.4117 5.44115 20.8823C5.44115 12.5 12.2059 5.44115 20.8823 5.44115C25 5.44115 28.9706 7.05879 31.9117 9.99997C33.6764 11.7647 34.8529 13.8235 35.5882 16.0294L38.9706 12.647C37.9411 10.4411 36.6176 8.52938 34.8529 6.76468C31.0294 3.08821 26.0294 0.882324 20.7353 0.882324C9.85291 1.02938 0.882324 9.99997 0.882324 20.8823C0.882324 31.9117 9.85291 40.7353 20.7353 40.7353C31.0294 40.7353 39.2647 32.9411 40.4411 23.3823C39.8304 23.9523 39.3212 24.5223 38.851 25.0486C37.6227 26.4233 36.6608 27.5 34.8529 27.5Z" fill="url(#paint0_linear_1_44213)"/>
<path d="M47.353 47.3529C45.1471 49.5588 41.4707 49.5588 39.1177 47.3529L32.353 40.5882C33.9707 39.5588 35.5883 38.3823 36.9118 37.0588C38.3824 35.5882 39.5589 34.1176 40.5883 32.3529L47.353 39.1176C49.5589 41.3235 49.706 45 47.353 47.3529Z" fill="url(#paint1_linear_1_44213)"/>
<path d="M43.2353 16.6176L46.0294 13.8235C46.6177 13.2353 46.6177 12.3529 46.0294 11.7647C45.4412 11.1764 44.5589 11.1764 43.9706 11.7647L34.5588 21.1764L29.7059 16.3235C29.1177 15.7353 28.2353 15.7353 27.6471 16.3235L20 23.9705L16.6177 20.5882C16.0294 20 15.1471 20 14.5589 20.5882L9.11768 25.7353C9.55885 26.6176 10.1471 27.647 10.7353 28.3823L15.5883 23.5294L18.9706 26.9117C19.5589 27.5 20.4412 27.5 21.0294 26.9117L28.6765 19.2647L33.5294 24.1176C34.1177 24.7058 35 24.7058 35.5883 24.1176L43.2353 16.6176Z" fill="url(#paint2_linear_1_44213)"/>
</g>
</g>
<defs>
<linearGradient id="paint0_linear_1_44213" x1="17.3766" y1="59.2904" x2="43.43" y2="63.1951" gradientUnits="userSpaceOnUse">
<stop stop-color="#2693F5"/>
<stop offset="0.5" stop-color="#19CAFF"/>
<stop offset="1" stop-color="#95E7FF"/>
</linearGradient>
<linearGradient id="paint1_linear_1_44213" x1="17.3766" y1="59.2904" x2="43.43" y2="63.1951" gradientUnits="userSpaceOnUse">
<stop stop-color="#2693F5"/>
<stop offset="0.5" stop-color="#19CAFF"/>
<stop offset="1" stop-color="#95E7FF"/>
</linearGradient>
<linearGradient id="paint2_linear_1_44213" x1="17.3766" y1="59.2904" x2="43.43" y2="63.1951" gradientUnits="userSpaceOnUse">
<stop stop-color="#2693F5"/>
<stop offset="0.5" stop-color="#19CAFF"/>
<stop offset="1" stop-color="#95E7FF"/>
</linearGradient>
<clipPath id="clip0_1_44213">
<rect width="50" height="50" fill="white"/>
</clipPath>
</defs>
</svg>
