<svg width="50" height="50" viewBox="0 0 50 50" fill="none" xmlns="http://www.w3.org/2000/svg">
<g id="Report" clip-path="url(#clip0_1_44227)">
<g id="Union">
<path d="M41.3402 4.05406C41.3402 1.81506 43.1565 0 45.3971 0C47.6377 0 49.4541 1.81506 49.4541 4.05406C49.4541 6.29306 47.6378 8.10812 45.3972 8.10812C44.7551 8.10812 44.1484 7.95844 43.6087 7.69316L35.7037 14.4274C35.8504 14.8465 35.9311 15.2966 35.9311 15.7657C35.9311 18.0047 34.1148 19.8198 31.8742 19.8198C29.6336 19.8198 27.8173 18.0047 27.8173 15.7657C27.8173 15.7497 27.8178 15.7338 27.8184 15.718C27.8187 15.7078 27.8191 15.6975 27.8193 15.6873L21.0697 12.923C20.3304 13.7024 19.2853 14.1892 18.1258 14.1892C17.1782 14.1892 16.3072 13.8637 15.6167 13.3197L8.60445 17.4657C8.64024 17.6822 8.65968 17.9041 8.65968 18.1307C8.65968 20.3697 6.84344 22.1847 4.60284 22.1847C2.36224 22.1847 0.545898 20.3697 0.545898 18.1307C0.545898 15.8917 2.36224 14.0766 4.60284 14.0766C5.55039 14.0766 6.42133 14.4021 7.11182 14.9462L14.1241 10.8001C14.0883 10.5837 14.0689 10.3618 14.0689 10.1351C14.0689 7.89615 15.8851 6.08109 18.1257 6.08109C20.3663 6.08109 22.1827 7.89615 22.1827 10.1351C22.1827 10.1512 22.1821 10.1672 22.1815 10.1831C22.1812 10.1933 22.1808 10.2035 22.1806 10.2137L28.9302 12.978C29.6695 12.1986 30.7146 11.7118 31.8741 11.7118C32.5724 11.7118 33.2296 11.8881 33.8033 12.1987L41.622 5.53814C41.4408 5.07842 41.3402 4.5781 41.3402 4.05406Z" fill="url(#paint0_linear_1_44227)"/>
<path d="M49.6793 14.8505H41.6665V50H49.6793V14.8505Z" fill="url(#paint1_linear_1_44227)"/>
<path d="M14.1025 19.765H22.1154V50.0001H14.1025V19.765Z" fill="url(#paint2_linear_1_44227)"/>
<path d="M27.8843 26.1753H35.8971V50.0001H27.8843V26.1753Z" fill="url(#paint3_linear_1_44227)"/>
<path d="M0.320312 31.1967H8.33313V50.0001H0.320312V31.1967Z" fill="url(#paint4_linear_1_44227)"/>
</g>
</g>
<defs>
<linearGradient id="paint0_linear_1_44227" x1="17.218" y1="60.6839" x2="43.9248" y2="64.6306" gradientUnits="userSpaceOnUse">
<stop stop-color="#2693F5"/>
<stop offset="0.5" stop-color="#19CAFF"/>
<stop offset="1" stop-color="#95E7FF"/>
</linearGradient>
<linearGradient id="paint1_linear_1_44227" x1="17.218" y1="60.6839" x2="43.9248" y2="64.6306" gradientUnits="userSpaceOnUse">
<stop stop-color="#2693F5"/>
<stop offset="0.5" stop-color="#19CAFF"/>
<stop offset="1" stop-color="#95E7FF"/>
</linearGradient>
<linearGradient id="paint2_linear_1_44227" x1="17.218" y1="60.6839" x2="43.9248" y2="64.6306" gradientUnits="userSpaceOnUse">
<stop stop-color="#2693F5"/>
<stop offset="0.5" stop-color="#19CAFF"/>
<stop offset="1" stop-color="#95E7FF"/>
</linearGradient>
<linearGradient id="paint3_linear_1_44227" x1="17.218" y1="60.6839" x2="43.9248" y2="64.6306" gradientUnits="userSpaceOnUse">
<stop stop-color="#2693F5"/>
<stop offset="0.5" stop-color="#19CAFF"/>
<stop offset="1" stop-color="#95E7FF"/>
</linearGradient>
<linearGradient id="paint4_linear_1_44227" x1="17.218" y1="60.6839" x2="43.9248" y2="64.6306" gradientUnits="userSpaceOnUse">
<stop stop-color="#2693F5"/>
<stop offset="0.5" stop-color="#19CAFF"/>
<stop offset="1" stop-color="#95E7FF"/>
</linearGradient>
<clipPath id="clip0_1_44227">
<rect width="50" height="50" fill="white"/>
</clipPath>
</defs>
</svg>
