<svg width="124" height="124" viewBox="0 0 124 124" fill="none" xmlns="http://www.w3.org/2000/svg">
<path d="M107.851 91.206C107.447 90.9374 106.952 90.8395 106.476 90.9338C105.999 91.0281 105.58 91.3068 105.308 91.7092C103.792 93.9643 102.106 96.0999 100.264 98.0975C99.9706 98.4609 99.8267 98.9222 99.8613 99.3878C99.8959 99.8534 100.106 100.288 100.45 100.604C100.794 100.921 101.245 101.094 101.712 101.09C102.179 101.086 102.627 100.904 102.965 100.582C104.941 98.4475 106.747 96.1634 108.368 93.7498C108.637 93.3445 108.734 92.8493 108.639 92.3726C108.543 91.8958 108.262 91.4763 107.858 91.206H107.851ZM116.218 61.7559C115.732 61.7441 115.262 61.9248 114.909 62.2584C114.556 62.592 114.35 63.0516 114.335 63.5368C114.27 65.6759 114.075 67.8092 113.753 69.925C113.7 70.3974 113.833 70.8718 114.123 71.2486C114.412 71.6255 114.837 71.8755 115.307 71.9463C115.777 72.017 116.257 71.903 116.645 71.6281C117.033 71.3532 117.299 70.9388 117.388 70.4719C117.727 68.208 117.931 65.926 118 63.6379C118.011 63.1538 117.832 62.6846 117.499 62.3322C117.167 61.9798 116.709 61.7727 116.225 61.7559H116.218ZM114.284 76.4051C113.819 76.2668 113.318 76.3177 112.891 76.5466C112.463 76.7756 112.143 77.1641 112.001 77.6276C111.331 79.8057 110.524 81.9393 109.585 84.0158C109.419 84.4535 109.427 84.9378 109.606 85.3701C109.785 85.8024 110.123 86.1501 110.549 86.3423C110.976 86.5345 111.46 86.5568 111.903 86.4046C112.346 86.2524 112.714 85.9372 112.932 85.5232C113.935 83.3022 114.795 81.0195 115.507 78.6892C115.647 78.2252 115.597 77.7248 115.369 77.2971C115.142 76.8694 114.754 76.5488 114.291 76.4051H114.284ZM113.997 55.8364C114.011 56.0863 114.076 56.3305 114.188 56.5543C114.3 56.7781 114.457 56.9766 114.649 57.1377C114.84 57.2989 115.062 57.4193 115.302 57.4915C115.542 57.5637 115.794 57.5862 116.043 57.5577C116.291 57.5292 116.532 57.4503 116.749 57.3257C116.966 57.2011 117.155 57.0335 117.305 56.8332C117.455 56.6329 117.563 56.4041 117.621 56.1608C117.68 55.9175 117.688 55.6648 117.645 55.4182C117.362 53.0024 116.925 50.607 116.337 48.2464C116.198 47.7973 115.893 47.4184 115.483 47.1876C115.073 46.9568 114.591 46.8916 114.134 47.0055C113.678 47.1194 113.283 47.4036 113.03 47.7998C112.777 48.196 112.685 48.6741 112.774 49.1357C113.327 51.3406 113.738 53.5788 114.004 55.8364H113.997ZM91.4213 105.793C82.2214 112.167 71.2503 115.49 60.0581 115.294C48.8658 115.098 38.0182 111.392 29.0476 104.699L30.9881 105.046C31.4464 105.088 31.9036 104.956 32.2695 104.677C32.6354 104.398 32.8834 103.992 32.9645 103.54C33.0457 103.087 32.954 102.62 32.7077 102.232C32.4615 101.843 32.0784 101.561 31.6342 101.441L23.0261 99.899C22.7105 99.845 22.3863 99.8743 22.0855 99.984C21.7847 100.094 21.5177 100.28 21.311 100.524C21.1043 100.769 20.9651 101.063 20.907 101.378C20.8489 101.692 20.874 102.017 20.9799 102.319L23.9458 110.541C24.139 110.957 24.481 111.286 24.9048 111.463C25.3285 111.641 25.8032 111.653 26.2355 111.498C26.6678 111.343 27.0265 111.032 27.2409 110.626C27.4554 110.22 27.5102 109.749 27.3945 109.304L26.7714 107.574C36.3518 114.774 47.9606 118.769 59.9449 118.99C71.9292 119.212 83.678 115.649 93.5182 108.808C93.7389 108.681 93.931 108.511 94.0822 108.306C94.2334 108.101 94.3406 107.868 94.3968 107.62C94.453 107.372 94.4571 107.115 94.4089 106.865C94.3606 106.615 94.261 106.378 94.1164 106.169C93.9718 105.96 93.7854 105.783 93.5688 105.649C93.3522 105.515 93.1103 105.428 92.8583 105.393C92.6063 105.358 92.3497 105.375 92.1047 105.444C91.8597 105.513 91.6317 105.632 91.4351 105.793H91.4213Z" fill="url(#paint0_linear_1_44042)"/>
<path d="M12.42 39.9831C11.4809 42.0604 10.6738 44.1948 10.0036 46.3736C9.95195 46.6238 9.84868 46.8604 9.70041 47.0685C9.55213 47.2765 9.36211 47.4514 9.14245 47.5819C8.92279 47.7125 8.67832 47.7959 8.42463 47.8267C8.17094 47.8576 7.9136 47.8353 7.66901 47.7613C7.42443 47.6872 7.19796 47.563 7.00407 47.3966C6.81018 47.2302 6.6531 47.0253 6.54287 46.7948C6.43264 46.5644 6.37167 46.3135 6.36384 46.0582C6.35601 45.8029 6.40151 45.5487 6.49742 45.312C7.20984 42.9817 8.06993 40.6991 9.07247 38.478C9.29074 38.064 9.65875 37.7488 10.1015 37.5966C10.5442 37.4444 11.0284 37.4667 11.4552 37.6589C11.8821 37.8512 12.2196 38.1988 12.3988 38.6311C12.5781 39.0634 12.5857 39.5477 12.42 39.9854V39.9831ZM8.00796 68.1625C7.99365 67.9127 7.92846 67.6684 7.81638 67.4446C7.70431 67.2209 7.5477 67.0223 7.35617 66.8612C7.16463 66.7 6.94219 66.5797 6.70248 66.5074C6.46276 66.4352 6.21082 66.4127 5.96208 66.4412C5.71335 66.4697 5.47305 66.5487 5.25592 66.6733C5.03879 66.7978 4.84939 66.9654 4.69932 67.1657C4.54926 67.366 4.44169 67.5948 4.38321 67.8381C4.32472 68.0814 4.31656 68.3341 4.35921 68.5807C4.64311 70.9966 5.08006 73.392 5.66742 75.7525C5.80757 76.1995 6.11314 76.5761 6.52174 76.8055C6.93033 77.0349 7.41114 77.0998 7.86597 76.9869C8.3208 76.874 8.71536 76.5918 8.96907 76.198C9.22277 75.8041 9.3165 75.3284 9.23111 74.8678C8.67989 72.6612 8.27133 70.4215 8.00796 68.1625ZM5.78698 62.243C6.27172 62.2536 6.74102 62.0724 7.09279 61.7389C7.44456 61.4054 7.65035 60.9465 7.66539 60.4622C7.73037 58.323 7.92462 56.1897 8.24707 54.0739C8.29971 53.6016 8.16723 53.1272 7.87745 52.7503C7.58767 52.3734 7.16311 52.1234 6.69285 52.0526C6.22259 51.9819 5.74319 52.0959 5.35525 52.3708C4.9673 52.6457 4.70096 53.0601 4.61211 53.527C4.27284 55.7909 4.06862 58.0729 4.00054 60.3611C3.98879 60.8471 4.17016 61.318 4.50496 61.6707C4.83976 62.0234 5.30073 62.2292 5.78698 62.243ZM30.5833 18.2057C39.7836 11.8296 50.7561 8.50469 61.9501 8.70097C73.1441 8.89725 83.9932 12.6048 92.964 19.2996L91.0258 18.9526C90.7796 18.886 90.5223 18.8714 90.2702 18.9096C90.0181 18.9477 89.7766 19.0379 89.5612 19.1743C89.3458 19.3107 89.1612 19.4903 89.019 19.7019C88.8767 19.9134 88.7801 20.1522 88.7351 20.4031C88.6902 20.654 88.6979 20.9114 88.7578 21.1591C88.8177 21.4069 88.9285 21.6394 89.0832 21.8421C89.2378 22.0447 89.433 22.213 89.6562 22.3363C89.8794 22.4595 90.1258 22.535 90.3797 22.558L98.9878 24.0999C99.3034 24.1539 99.6276 24.1246 99.9284 24.0149C100.229 23.9053 100.496 23.719 100.703 23.4746C100.91 23.2302 101.049 22.9361 101.107 22.6214C101.165 22.3066 101.14 21.9822 101.034 21.6802L98.0681 13.4582C97.8749 13.0418 97.5328 12.7126 97.1091 12.5355C96.6854 12.3584 96.2107 12.3461 95.7784 12.501C95.3461 12.656 94.9874 12.967 94.7729 13.373C94.5584 13.7789 94.5037 14.2503 94.6194 14.6945L95.2424 16.4203C85.6616 9.22338 74.0535 5.2304 62.0704 5.00967C50.0874 4.78894 38.34 8.35172 28.5003 15.1909C28.2796 15.3174 28.0875 15.4884 27.9363 15.693C27.785 15.8975 27.6779 16.1312 27.6217 16.3793C27.5655 16.6273 27.5613 16.8843 27.6096 17.134C27.6579 17.3838 27.7574 17.6208 27.902 17.8301C28.0466 18.0394 28.2331 18.2164 28.4497 18.3499C28.6662 18.4835 28.9082 18.5707 29.1602 18.606C29.4122 18.6413 29.6688 18.624 29.9138 18.5551C30.1587 18.4862 30.3867 18.3672 30.5833 18.2057ZM21.6327 23.3094C21.274 22.981 20.7998 22.808 20.3137 22.8282C19.8277 22.8484 19.3694 23.0603 19.0393 23.4174C17.0664 25.5517 15.2623 27.8358 13.6432 30.2491C13.4858 30.448 13.3713 30.6773 13.3068 30.9226C13.2424 31.1679 13.2294 31.4239 13.2687 31.6744C13.3081 31.9249 13.3988 32.1646 13.5353 32.3784C13.6718 32.5922 13.8511 32.7754 14.0619 32.9166C14.2726 33.0578 14.5104 33.1539 14.7601 33.1988C15.0098 33.2437 15.2661 33.2365 15.5129 33.1776C15.7597 33.1187 15.9916 33.0094 16.1941 32.8566C16.3966 32.7038 16.5653 32.5108 16.6896 32.2897C18.2053 30.0347 19.8917 27.899 21.7339 25.9015C22.0634 25.5438 22.2377 25.0703 22.2188 24.5846C22.1998 24.0988 21.9891 23.6403 21.6327 23.3094Z" fill="url(#paint1_linear_1_44042)"/>
<path d="M44.5592 66.2072C44.5321 65.971 44.5127 65.7352 44.5015 65.5C44.5544 65.7291 44.5723 65.9648 44.5592 66.2072C45.7457 76.5154 61.9379 87.4833 74.0017 74C82.5015 64.5 77.993 50.6835 64.5017 44.5C52.5017 39 60.0017 28.9516 78.5017 38.5C83.6684 41.1667 89.0017 45.5001 89.0017 59C89.0017 74.7877 84.5 85 70.5 90C62.9105 92.7105 55.5956 89.1489 47 87C39.7398 85.1849 37.5953 90.8807 36.5001 86.5C34.1322 77.0288 44.3243 70.5477 44.5592 66.2072Z" fill="url(#paint2_linear_1_44042)"/>
<g filter="url(#filter0_b_1_44042)">
<path fill-rule="evenodd" clip-rule="evenodd" d="M99.6091 67.513C99.8633 65.698 99.9908 63.8675 99.9908 62.0348H100C100.001 60.202 99.8736 58.3714 99.6183 56.5565C99.5587 56.1208 99.3429 55.7215 99.011 55.4329C98.679 55.1442 98.2535 54.9858 97.8135 54.9871H92.3576C91.5496 51.3802 90.1222 47.9406 88.1387 44.8211L91.9966 40.9652C92.309 40.6554 92.4981 40.2428 92.529 39.8041C92.5599 39.3654 92.4303 38.9304 92.1645 38.5799C89.9538 35.6489 87.3444 33.0408 84.4117 30.8313C84.0611 30.5656 83.6259 30.4362 83.1869 30.467C82.748 30.4979 82.3352 30.687 82.0252 30.9991L78.1672 34.855C75.0455 32.8735 71.6043 31.4469 67.9958 30.6383V25.1854C67.9971 24.7456 67.8386 24.3203 67.5497 23.9885C67.2609 23.6568 66.8614 23.4411 66.4255 23.3815C62.7891 22.8728 59.0995 22.8728 55.4631 23.3815C55.0272 23.4411 54.6277 23.6568 54.3388 23.9885C54.05 24.3203 53.8915 24.7456 53.8928 25.1854V30.6383C50.2843 31.4469 46.843 32.8735 43.7213 34.855L39.8633 30.9991C39.5534 30.687 39.1406 30.4979 38.7016 30.467C38.2627 30.4362 37.8275 30.5656 37.4768 30.8313C34.5437 33.0402 31.9341 35.6483 29.7241 38.5799C29.4582 38.9304 29.3287 39.3654 29.3596 39.8041C29.3904 40.2428 29.5796 40.6554 29.8919 40.9652L33.7499 44.8188C31.7654 47.9386 30.3379 51.3791 29.531 54.9871H24.0751C23.6351 54.9858 23.2095 55.1442 22.8776 55.4329C22.5456 55.7215 22.3298 56.1208 22.2702 56.5565C21.7613 60.191 21.7613 63.8786 22.2702 67.513C22.3298 67.9487 22.5456 68.348 22.8776 68.6367C23.2095 68.9253 23.6351 69.0838 24.0751 69.0825H29.531C30.339 72.6894 31.7664 76.1289 33.7499 79.2485L29.8919 83.1044C29.5796 83.4142 29.3904 83.8268 29.3596 84.2655C29.3287 84.7042 29.4582 85.1392 29.7241 85.4896C31.9347 88.4207 34.5442 91.0287 37.4768 93.2382C37.8275 93.5039 38.2627 93.6334 38.7016 93.6025C39.1406 93.5717 39.5534 93.3826 39.8633 93.0705L43.7213 89.2146C46.843 91.196 50.2843 92.6227 53.8928 93.4312V98.8842C53.8915 99.324 54.05 99.7492 54.3388 100.081C54.6277 100.413 55.0272 100.628 55.4631 100.688C59.0995 101.197 62.7891 101.197 66.4255 100.688C66.8614 100.628 67.2609 100.413 67.5497 100.081C67.8386 99.7492 67.9971 99.324 67.9958 98.8842V93.4312C71.6046 92.6237 75.046 91.197 78.1672 89.2146L82.0252 93.0705C82.3352 93.3826 82.748 93.5717 83.1869 93.6025C83.6259 93.6334 84.0611 93.5039 84.4117 93.2382C87.3444 91.0287 89.9538 88.4207 92.1645 85.4896C92.4303 85.1392 92.5599 84.7042 92.529 84.2655C92.4981 83.8268 92.309 83.4142 91.9966 83.1044L88.1387 79.2485C90.1212 76.1284 91.5486 72.689 92.3576 69.0825H97.8043C98.2443 69.0838 98.6698 68.9253 99.0018 68.6367C99.3337 68.348 99.5496 67.9487 99.6091 67.513ZM60.8888 77C69.173 77 75.8888 70.2843 75.8888 62C75.8888 53.7157 69.173 47 60.8888 47C52.6045 47 45.8888 53.7157 45.8888 62C45.8888 70.2843 52.6045 77 60.8888 77Z" fill="url(#paint3_linear_1_44042)"/>
<path d="M100.978 63.0348C100.94 64.5794 100.814 66.1209 100.599 67.6517C100.506 68.3263 100.172 68.9444 99.658 69.3913C99.1436 69.8386 98.4845 70.0841 97.8029 70.0825H97.8043V69.0825L97.8014 70.0825L93.1481 70.0825C92.3544 73.2573 91.0931 76.2967 89.4056 79.1009L92.7009 82.3944C92.7016 82.3952 92.7023 82.3959 92.7031 82.3966L92.7036 82.3971L91.9966 83.1044C92.309 83.4142 92.4981 83.8268 92.529 84.2655C92.5599 84.7042 92.4303 85.1392 92.1645 85.4896L100.978 63.0348ZM100.978 63.0348H100.999L101 62.0354C101.001 60.1565 100.871 58.2798 100.609 56.4191M100.978 63.0348L97.8135 54.9871L97.8106 53.9871C97.8111 53.9871 97.8116 53.9871 97.8121 53.9871C98.4937 53.9854 99.1528 54.231 99.6672 54.6783C100.181 55.1255 100.516 55.744 100.609 56.4191M52.8928 98.8827C52.8912 99.5644 53.137 100.223 53.5846 100.738C54.0318 101.251 54.65 101.585 55.3246 101.678L53.8928 98.8842M52.8928 98.8827C52.8928 98.8823 52.8928 98.8818 52.8928 98.8813L53.8928 98.8842M52.8928 98.8827V98.8842H53.8928M52.8928 98.8827V94.222M53.8928 98.8842V93.4312M52.8928 94.222C53.1523 94.2868 53.4128 94.3485 53.6741 94.407L53.8928 93.4312M52.8928 94.222C49.716 93.4286 46.6748 92.1679 43.8688 90.481M52.8928 94.222V93.4312H53.8928M53.8928 93.4312L43.8688 90.481M43.8688 90.481L44.4282 89.9219L43.7213 89.2146L43.1854 90.0588C43.4116 90.2024 43.6394 90.3431 43.8688 90.481ZM43.8688 90.481L40.5729 93.7751L39.8633 93.0705L40.5703 93.7778L40.5709 93.7771C40.0905 94.2599 39.4513 94.5523 38.7717 94.6C38.0918 94.6478 37.4175 94.4475 36.874 94.0361C33.8678 91.771 31.1928 89.0975 28.9265 86.0929C28.5148 85.5496 28.3142 84.8753 28.362 84.1953C28.4099 83.5154 28.7028 82.8761 29.1863 82.3958C29.1868 82.3953 29.1872 82.3949 29.1877 82.3944L32.4828 79.1011C30.7945 76.2971 29.5332 73.2576 28.7402 70.0825L24.0779 70.0825C24.0775 70.0825 24.077 70.0825 24.0765 70.0825H24.0751V69.0825C23.6351 69.0838 23.2095 68.9253 22.8776 68.6367C22.5456 68.348 22.3298 67.9487 22.2702 67.513L43.8688 90.481ZM24.0765 53.9871C23.3949 53.9854 22.7358 54.231 22.2214 54.6783C21.7071 55.1255 21.3725 55.7441 21.2797 56.4193C20.7581 60.1447 20.7581 63.9246 21.2797 67.6501L24.0751 54.9871M24.0765 53.9871C24.077 53.9871 24.0775 53.9871 24.0779 53.9871L24.0751 54.9871M24.0765 53.9871H24.0751V54.9871M24.0765 53.9871H28.7399M24.0751 54.9871H29.531M28.7399 53.9871C28.6752 54.2467 28.6135 54.5073 28.5551 54.7688L29.531 54.9871M28.7399 53.9871C29.5321 50.811 30.7935 47.7706 32.4826 44.9663M28.7399 53.9871H29.531V54.9871M29.531 54.9871L32.4826 44.9663M32.4826 44.9663L33.0432 45.5263L33.7499 44.8188L32.9061 44.2821C32.7621 44.5085 32.6209 44.7366 32.4826 44.9663ZM32.4826 44.9663L29.1877 41.6751L29.8919 40.9652L29.1852 41.6727L29.1863 41.6737L32.4826 44.9663ZM100.609 56.4191C100.609 56.4198 100.609 56.4204 100.609 56.421L99.6183 56.5565M100.609 56.4191C100.609 56.4185 100.609 56.4179 100.609 56.4172L99.6183 56.5565M99.6183 56.5565C99.8272 58.0413 99.9505 59.5365 99.9879 61.0348H99.9908H100V61.9846M99.6183 56.5565L100 61.9846M67.9958 25.1854H68.9958V25.1868C68.9958 25.1873 68.9958 25.1878 68.9958 25.1882L68.9958 29.8476C72.1726 30.6409 75.2138 31.9017 78.0198 33.5885L81.3157 30.2945C81.3162 30.2939 81.3167 30.2934 81.3173 30.2928C81.7978 29.8098 82.4371 29.5173 83.1168 29.4695C83.7968 29.4217 84.4711 29.6221 85.0146 30.0335C88.0204 32.2983 90.6952 34.9715 92.9613 37.9757C92.9618 37.9764 92.9623 37.9771 92.9629 37.9778L92.1645 38.5799L66.5624 22.3909M67.9958 25.1854C67.9971 24.7456 67.8386 24.3203 67.5497 23.9885C67.2609 23.6568 66.8614 23.4411 66.4255 23.3815M67.9958 25.1854V30.6383V25.1854ZM66.4255 23.3815L66.564 22.3911C66.5635 22.3911 66.563 22.391 66.5624 22.3909M66.4255 23.3815L66.5608 22.3907C66.5614 22.3908 66.5619 22.3908 66.5624 22.3909M66.4255 23.3815C62.7891 22.8728 59.0995 22.8728 55.4631 23.3815M66.5624 22.3909C62.8352 21.8697 59.0534 21.8697 55.3262 22.3909M55.4631 23.3815L55.3277 22.3907C55.3272 22.3908 55.3267 22.3908 55.3262 22.3909M55.4631 23.3815C55.0272 23.4411 54.6277 23.6568 54.3388 23.9885C54.05 24.3203 53.8915 24.7456 53.8928 25.1854M55.4631 23.3815L55.3246 22.3911C55.3251 22.3911 55.3256 22.391 55.3262 22.3909M55.3262 22.3909L53.8928 25.1854M52.8928 25.1868V25.1854H53.8928M52.8928 25.1868C52.8928 25.1873 52.8928 25.1878 52.8928 25.1882L53.8928 25.1854M52.8928 25.1868V29.8476M52.8928 25.1868V29.8476M52.8928 29.8476C49.716 30.6409 46.6748 31.9017 43.8688 33.5885L40.5729 30.2945C40.5724 30.2939 40.5719 30.2934 40.5714 30.2929C40.0909 29.8098 39.4515 29.5173 38.7717 29.4695L38.7016 30.467L38.7717 29.4695C38.0919 29.4217 37.4177 29.622 36.8742 30.0333C33.8674 32.2978 31.1922 34.9715 28.9265 37.9767C28.5148 38.52 28.3142 39.1942 28.362 39.8743L52.8928 29.8476ZM100 61.9846C100 62.0013 100 62.018 100 62.0348V61.9846ZM85.0135 94.0369C88.0201 91.7717 90.6955 89.0978 92.962 86.0929L66.4255 100.688C66.8614 100.628 67.2609 100.413 67.5497 100.081C67.8386 99.7492 67.9971 99.324 67.9958 98.8842H68.9958V98.8828C68.9958 98.8823 68.9958 98.8818 68.9958 98.8813L68.9958 94.2222C72.1729 93.4296 75.2143 92.1688 78.02 90.4812L81.3157 93.7751C81.3161 93.7755 81.3165 93.776 81.317 93.7764C81.7975 94.2597 82.437 94.5523 83.1168 94.6C83.7963 94.6478 84.4702 94.4478 85.0135 94.0369ZM92.3576 54.9871L93.3334 54.7685C93.2749 54.5071 93.2132 54.2466 93.1484 53.9871H92.3576V54.9871ZM92.7009 41.6751C92.7015 41.6745 92.7021 41.6739 92.7027 41.6733L92.7036 41.6725L91.9966 40.9652L92.7009 41.6751ZM88.8456 45.5284L89.4058 44.9685C89.2676 44.7389 89.1265 44.5109 88.9825 44.2845L88.1387 44.8211L88.8456 45.5284ZM74.8888 62C74.8888 69.732 68.6208 76 60.8888 76C53.1568 76 46.8888 69.732 46.8888 62C46.8888 54.268 53.1568 48 60.8888 48C68.6208 48 74.8888 54.268 74.8888 62Z" stroke="url(#paint4_linear_1_44042)" stroke-opacity="0.7" stroke-width="2"/>
</g>
<defs>
<filter id="filter0_b_1_44042" x="-0.111328" y="1" width="122.111" height="122.07" filterUnits="userSpaceOnUse" color-interpolation-filters="sRGB">
<feFlood flood-opacity="0" result="BackgroundImageFix"/>
<feGaussianBlur in="BackgroundImageFix" stdDeviation="10"/>
<feComposite in2="SourceAlpha" operator="in" result="effect1_backgroundBlur_1_44042"/>
<feBlend mode="normal" in="SourceGraphic" in2="effect1_backgroundBlur_1_44042" result="shape"/>
</filter>
<linearGradient id="paint0_linear_1_44042" x1="54.126" y1="134.395" x2="105.723" y2="144.807" gradientUnits="userSpaceOnUse">
<stop stop-color="#2693F5"/>
<stop offset="0.5" stop-color="#19CAFF"/>
<stop offset="1" stop-color="#95E7FF"/>
</linearGradient>
<linearGradient id="paint1_linear_1_44042" x1="37.2543" y1="92.4345" x2="88.858" y2="102.851" gradientUnits="userSpaceOnUse">
<stop stop-color="#2693F5"/>
<stop offset="0.5" stop-color="#19CAFF"/>
<stop offset="1" stop-color="#95E7FF"/>
</linearGradient>
<linearGradient id="paint2_linear_1_44042" x1="54.2391" y1="103.036" x2="82.9003" y2="107.054" gradientUnits="userSpaceOnUse">
<stop stop-color="#2693F5"/>
<stop offset="0.5" stop-color="#19CAFF"/>
<stop offset="1" stop-color="#95E7FF"/>
</linearGradient>
<linearGradient id="paint3_linear_1_44042" x1="69" y1="49" x2="38.737" y2="94.4883" gradientUnits="userSpaceOnUse">
<stop stop-color="white" stop-opacity="0.6"/>
<stop offset="1" stop-color="#B1EDFF" stop-opacity="0.8"/>
</linearGradient>
<linearGradient id="paint4_linear_1_44042" x1="93.6768" y1="92.5191" x2="28.6191" y2="27.0544" gradientUnits="userSpaceOnUse">
<stop stop-color="#6EBAFF"/>
<stop offset="0.53204" stop-color="#1595E1"/>
<stop offset="1" stop-color="#E5F9FF"/>
</linearGradient>
</defs>
</svg>
