<svg width="376" height="67" viewBox="0 0 376 67" fill="none" xmlns="http://www.w3.org/2000/svg">
<path d="M8.5 66V67H8.9818L9.28206 66.6232L8.5 66ZM34 34V33H33.5182L33.2179 33.3768L34 34ZM365.167 34C365.167 36.9455 367.554 39.3333 370.5 39.3333C373.446 39.3333 375.833 36.9455 375.833 34C375.833 31.0545 373.446 28.6667 370.5 28.6667C367.554 28.6667 365.167 31.0545 365.167 34ZM0 67H8.5V65H0V67ZM9.28206 66.6232L34.7821 34.6232L33.2179 33.3768L7.71794 65.3768L9.28206 66.6232ZM34 35H370.5V33H34V35Z" fill="url(#paint0_linear_1_40614)"/>
<path d="M272.197 11.3622H269.541C269.465 10.9266 269.326 10.5407 269.122 10.2045C268.919 9.86364 268.665 9.57481 268.362 9.33807C268.059 9.10133 267.714 8.92377 267.325 8.8054C266.942 8.68229 266.527 8.62074 266.082 8.62074C265.292 8.62074 264.591 8.8196 263.98 9.21733C263.369 9.61032 262.891 10.188 262.545 10.9503C262.2 11.7079 262.027 12.6335 262.027 13.7273C262.027 14.84 262.2 15.7775 262.545 16.5398C262.896 17.2973 263.374 17.8703 263.98 18.2585C264.591 18.642 265.289 18.8338 266.075 18.8338C266.511 18.8338 266.918 18.777 267.297 18.6634C267.68 18.545 268.024 18.3722 268.327 18.1449C268.634 17.9176 268.893 17.6383 269.101 17.3068C269.314 16.9754 269.461 16.5966 269.541 16.1705L272.197 16.1847C272.098 16.8759 271.883 17.5246 271.551 18.1307C271.224 18.7367 270.796 19.2718 270.266 19.7358C269.735 20.1951 269.115 20.5549 268.405 20.8153C267.695 21.071 266.906 21.1989 266.04 21.1989C264.761 21.1989 263.62 20.9029 262.616 20.3111C261.613 19.7192 260.822 18.8646 260.244 17.7472C259.667 16.6297 259.378 15.2898 259.378 13.7273C259.378 12.16 259.669 10.8201 260.251 9.70739C260.834 8.58996 261.627 7.73532 262.631 7.14347C263.634 6.55161 264.771 6.25568 266.04 6.25568C266.849 6.25568 267.602 6.36932 268.298 6.59659C268.994 6.82386 269.615 7.15767 270.159 7.59801C270.704 8.03362 271.151 8.56866 271.501 9.20312C271.857 9.83286 272.089 10.5526 272.197 11.3622ZM276.192 25.0909C275.842 25.0909 275.518 25.0625 275.219 25.0057C274.926 24.9536 274.692 24.892 274.516 24.821L275.113 22.8182C275.487 22.9271 275.821 22.9792 276.114 22.9744C276.408 22.9697 276.666 22.8774 276.888 22.6974C277.116 22.5223 277.308 22.2287 277.464 21.8168L277.684 21.2273L273.728 10.0909H276.455L278.969 18.3295H279.083L281.604 10.0909H284.339L279.971 22.321C279.767 22.8987 279.497 23.3935 279.161 23.8054C278.825 24.2221 278.413 24.5393 277.925 24.7571C277.442 24.9796 276.865 25.0909 276.192 25.0909ZM288.689 14.608V21H286.118V10.0909H288.575V11.9446H288.703C288.954 11.3338 289.354 10.8485 289.903 10.4886C290.457 10.1288 291.142 9.94886 291.956 9.94886C292.709 9.94886 293.365 10.1098 293.923 10.4318C294.487 10.7538 294.922 11.2202 295.23 11.831C295.543 12.4418 295.696 13.1828 295.692 14.054V21H293.121V14.4517C293.121 13.7225 292.931 13.152 292.553 12.7401C292.179 12.3281 291.66 12.1222 290.997 12.1222C290.547 12.1222 290.147 12.2216 289.797 12.4205C289.451 12.6146 289.179 12.8963 288.98 13.2656C288.786 13.6349 288.689 14.0824 288.689 14.608ZM303.135 21.2131C302.041 21.2131 301.097 20.9858 300.301 20.5312C299.51 20.072 298.902 19.4233 298.476 18.5852C298.05 17.7424 297.837 16.7505 297.837 15.6094C297.837 14.4872 298.05 13.5024 298.476 12.6548C298.907 11.8026 299.508 11.1397 300.28 10.6662C301.052 10.188 301.958 9.94886 303 9.94886C303.672 9.94886 304.307 10.0578 304.903 10.2756C305.505 10.4886 306.035 10.8201 306.494 11.2699C306.958 11.7197 307.323 12.2926 307.588 12.9886C307.853 13.6799 307.986 14.5038 307.986 15.4602V16.2486H299.044V14.5156H305.521C305.517 14.0232 305.41 13.5852 305.202 13.2017C304.993 12.8134 304.702 12.508 304.328 12.2855C303.959 12.063 303.528 11.9517 303.036 11.9517C302.51 11.9517 302.048 12.0795 301.651 12.3352C301.253 12.5862 300.943 12.9176 300.72 13.3295C300.502 13.7367 300.391 14.1842 300.386 14.6719V16.1847C300.386 16.8191 300.502 17.3636 300.734 17.8182C300.966 18.268 301.291 18.6136 301.707 18.8551C302.124 19.0919 302.612 19.2102 303.17 19.2102C303.545 19.2102 303.883 19.1581 304.186 19.054C304.489 18.9451 304.752 18.7865 304.974 18.5781C305.197 18.3698 305.365 18.1117 305.479 17.804L307.879 18.0739C307.728 18.7083 307.439 19.2623 307.013 19.7358C306.591 20.2045 306.052 20.5691 305.393 20.8295C304.735 21.0852 303.982 21.2131 303.135 21.2131ZM318.783 12.9744L316.439 13.2301C316.373 12.9934 316.257 12.7708 316.091 12.5625C315.93 12.3542 315.712 12.1861 315.438 12.0582C315.163 11.9304 314.827 11.8665 314.429 11.8665C313.894 11.8665 313.444 11.9825 313.08 12.2145C312.72 12.4465 312.542 12.7472 312.547 13.1165C312.542 13.4337 312.658 13.6918 312.895 13.8906C313.137 14.0895 313.534 14.2528 314.088 14.3807L315.949 14.7784C316.981 15.0009 317.748 15.3537 318.25 15.8366C318.757 16.3196 319.013 16.9517 319.017 17.733C319.013 18.4195 318.811 19.0256 318.414 19.5511C318.021 20.072 317.474 20.4792 316.773 20.7727C316.072 21.0663 315.267 21.2131 314.358 21.2131C313.023 21.2131 311.948 20.9337 311.134 20.375C310.319 19.8116 309.834 19.0279 309.678 18.0241L312.185 17.7827C312.299 18.2751 312.54 18.6468 312.909 18.8977C313.279 19.1487 313.759 19.2741 314.351 19.2741C314.962 19.2741 315.452 19.1487 315.821 18.8977C316.195 18.6468 316.382 18.3366 316.382 17.9673C316.382 17.6548 316.262 17.3968 316.02 17.1932C315.783 16.9896 315.414 16.8333 314.912 16.7244L313.051 16.3338C312.005 16.116 311.231 15.7491 310.729 15.233C310.227 14.7121 309.979 14.054 309.983 13.2585C309.979 12.5862 310.161 12.0038 310.53 11.5114C310.904 11.0142 311.423 10.6307 312.086 10.3608C312.753 10.0862 313.523 9.94886 314.394 9.94886C315.672 9.94886 316.678 10.2211 317.412 10.7656C318.151 11.3101 318.608 12.0464 318.783 12.9744ZM322.721 21.1562C322.29 21.1562 321.921 21.0047 321.613 20.7017C321.306 20.3987 321.154 20.0294 321.159 19.5938C321.154 19.1676 321.306 18.803 321.613 18.5C321.921 18.197 322.29 18.0455 322.721 18.0455C323.138 18.0455 323.5 18.197 323.808 18.5C324.12 18.803 324.279 19.1676 324.284 19.5938C324.279 19.8826 324.203 20.1454 324.056 20.3821C323.914 20.6188 323.725 20.8082 323.488 20.9503C323.256 21.0876 323.001 21.1562 322.721 21.1562Z" fill="#2E3245"/>
<path d="M331.768 21.2131C330.674 21.2131 329.729 20.9858 328.934 20.5312C328.143 20.072 327.535 19.4233 327.109 18.5852C326.683 17.7424 326.469 16.7505 326.469 15.6094C326.469 14.4872 326.683 13.5024 327.109 12.6548C327.54 11.8026 328.141 11.1397 328.913 10.6662C329.684 10.188 330.591 9.94886 331.633 9.94886C332.305 9.94886 332.94 10.0578 333.536 10.2756C334.138 10.4886 334.668 10.8201 335.127 11.2699C335.591 11.7197 335.956 12.2926 336.221 12.9886C336.486 13.6799 336.619 14.5038 336.619 15.4602V16.2486H327.677V14.5156H334.154C334.149 14.0232 334.043 13.5852 333.835 13.2017C333.626 12.8134 333.335 12.508 332.961 12.2855C332.592 12.063 332.161 11.9517 331.668 11.9517C331.143 11.9517 330.681 12.0795 330.283 12.3352C329.886 12.5862 329.576 12.9176 329.353 13.3295C329.135 13.7367 329.024 14.1842 329.019 14.6719V16.1847C329.019 16.8191 329.135 17.3636 329.367 17.8182C329.599 18.268 329.924 18.6136 330.34 18.8551C330.757 19.0919 331.245 19.2102 331.803 19.2102C332.177 19.2102 332.516 19.1581 332.819 19.054C333.122 18.9451 333.385 18.7865 333.607 18.5781C333.83 18.3698 333.998 18.1117 334.112 17.804L336.512 18.0739C336.361 18.7083 336.072 19.2623 335.646 19.7358C335.224 20.2045 334.684 20.5691 334.026 20.8295C333.368 21.0852 332.615 21.2131 331.768 21.2131ZM342.842 21.1918C341.985 21.1918 341.218 20.9716 340.541 20.5312C339.864 20.0909 339.329 19.4517 338.936 18.6136C338.543 17.7756 338.346 16.7576 338.346 15.5597C338.346 14.3475 338.545 13.3248 338.943 12.4915C339.345 11.6534 339.887 11.0213 340.569 10.5952C341.251 10.1643 342.011 9.94886 342.849 9.94886C343.488 9.94886 344.014 10.0578 344.426 10.2756C344.838 10.4886 345.164 10.7467 345.406 11.0497C345.647 11.348 345.834 11.6297 345.967 11.8949H346.074V6.45455H348.652V21H346.123V19.2812H345.967C345.834 19.5464 345.643 19.8281 345.392 20.1264C345.141 20.42 344.809 20.6709 344.397 20.8793C343.985 21.0876 343.467 21.1918 342.842 21.1918ZM343.559 19.0824C344.104 19.0824 344.568 18.9356 344.951 18.642C345.335 18.3437 345.626 17.9295 345.825 17.3991C346.024 16.8688 346.123 16.2509 346.123 15.5455C346.123 14.84 346.024 14.2268 345.825 13.706C345.631 13.1851 345.342 12.7803 344.958 12.4915C344.58 12.2027 344.113 12.0582 343.559 12.0582C342.986 12.0582 342.508 12.2074 342.125 12.5057C341.741 12.804 341.452 13.2159 341.258 13.7415C341.064 14.267 340.967 14.8684 340.967 15.5455C340.967 16.2273 341.064 16.8357 341.258 17.3707C341.457 17.901 341.748 18.3201 342.132 18.6278C342.52 18.9309 342.996 19.0824 343.559 19.0824ZM351.391 21V10.0909H353.884V11.9091H353.998C354.197 11.2794 354.538 10.794 355.021 10.4531C355.508 10.1075 356.065 9.93466 356.69 9.93466C356.832 9.93466 356.99 9.94176 357.165 9.95597C357.345 9.96544 357.495 9.98201 357.613 10.0057V12.3707C357.504 12.3329 357.331 12.2997 357.094 12.2713C356.862 12.2382 356.638 12.2216 356.42 12.2216C355.951 12.2216 355.53 12.3234 355.156 12.527C354.786 12.7259 354.495 13.0028 354.282 13.358C354.069 13.7131 353.962 14.1226 353.962 14.5866V21H351.391Z" fill="#19CAFF"/>
<defs>
<linearGradient id="paint0_linear_1_40614" x1="-39.4344" y1="93" x2="353.269" y2="-26.2275" gradientUnits="userSpaceOnUse">
<stop stop-color="#2693F5"/>
<stop offset="1" stop-color="#19CAFF"/>
</linearGradient>
</defs>
</svg>
