<svg width="1017" height="33" viewBox="0 0 1017 33" fill="none" xmlns="http://www.w3.org/2000/svg">
<path d="M281.5 31.6779V32.6779H281.918L282.212 32.3802L281.5 31.6779ZM307 5.83569V4.83569H306.582L306.288 5.13331L307 5.83569ZM1006.17 5.83569C1006.17 8.78121 1008.55 11.169 1011.5 11.169C1014.45 11.169 1016.83 8.78121 1016.83 5.83569C1016.83 2.89017 1014.45 0.50236 1011.5 0.50236C1008.55 0.50236 1006.17 2.89017 1006.17 5.83569ZM0 32.6779H281.5V30.6779H0V32.6779ZM282.212 32.3802L307.712 6.53807L306.288 5.13331L280.788 30.9755L282.212 32.3802ZM307 6.83569H1011.5V4.83569H307V6.83569Z" fill="url(#paint0_linear_1_43179)"/>
<defs>
<linearGradient id="paint0_linear_1_43179" x1="-107.66" y1="53.4822" x2="462.567" y2="-531.79" gradientUnits="userSpaceOnUse">
<stop stop-color="#2693F5"/>
<stop offset="1" stop-color="#19CAFF"/>
</linearGradient>
</defs>
</svg>
