<svg width="24" height="24" viewBox="0 0 24 24" fill="none" xmlns="http://www.w3.org/2000/svg">
<g id="fi-sr-arrow-small-right">
<path id="Vector" d="M17.061 9.52488L13.475 5.93888C13.1936 5.65762 12.812 5.49966 12.4141 5.49976C12.0163 5.49985 11.6348 5.65799 11.3535 5.93938C11.0722 6.22078 10.9143 6.60238 10.9144 7.00024C10.9145 7.39809 11.0726 7.77962 11.354 8.06088L13.793 10.4999H5C4.60218 10.4999 4.22064 10.6579 3.93934 10.9392C3.65804 11.2205 3.5 11.6021 3.5 11.9999C3.5 12.3977 3.65804 12.7792 3.93934 13.0605C4.22064 13.3418 4.60218 13.4999 5 13.4999H13.793L11.354 15.9389C11.0726 16.2201 10.9145 16.6017 10.9144 16.9995C10.9143 17.3974 11.0722 17.779 11.3535 18.0604C11.6348 18.3418 12.0163 18.4999 12.4141 18.5C12.812 18.5001 13.1936 18.3421 13.475 18.0609L17.061 14.4749C17.7162 13.8178 18.0842 12.9278 18.0842 11.9999C18.0842 11.072 17.7162 10.1819 17.061 9.52488Z" fill="url(#paint0_linear_107_611)"/>
</g>
<defs>
<linearGradient id="paint0_linear_107_611" x1="1.94772" y1="29.469" x2="18.8162" y2="28.9727" gradientUnits="userSpaceOnUse">
<stop stop-color="#2693F5"/>
<stop offset="1" stop-color="#19CAFF"/>
</linearGradient>
</defs>
</svg>
