<svg width="32" height="28" viewBox="0 0 32 28" fill="none" xmlns="http://www.w3.org/2000/svg">
<path d="M12.7407 0.493827C10.5679 2.46913 8.88889 4.67489 7.7037 7.11111C6.51852 9.54732 5.92593 11.786 5.92593 13.8272C6.45268 13.5638 7.17695 13.4321 8.09877 13.4321C9.87654 13.4321 11.358 14.0576 12.5432 15.3086C13.7284 16.5597 14.321 18.1399 14.321 20.0494C14.321 22.1564 13.6296 23.8683 12.2469 25.1852C10.93 26.5021 9.25103 27.1605 7.20988 27.1605C4.97119 27.1605 3.19342 26.4691 1.87654 25.0864C0.625514 23.7037 0 21.9588 0 19.8518C0 15.7037 0.757202 11.9506 2.27161 8.59259C3.85185 5.23456 5.92593 2.60082 8.49383 0.691355C9.02058 0.230452 9.8107 0 10.8642 0C11.7202 0 12.3457 0.164609 12.7407 0.493827ZM30.4198 0.493827C28.2469 2.46913 26.5679 4.67489 25.3827 7.11111C24.1975 9.54732 23.6049 11.786 23.6049 13.8272C24.1317 13.5638 24.856 13.4321 25.7778 13.4321C27.5556 13.4321 29.037 14.0576 30.2222 15.3086C31.4074 16.5597 32 18.1399 32 20.0494C32 22.1564 31.3086 23.8683 29.9259 25.1852C28.6091 26.5021 26.93 27.1605 24.8889 27.1605C22.6502 27.1605 20.8724 26.4691 19.5556 25.0864C18.3045 23.7037 17.679 21.9588 17.679 19.8518C17.679 15.7037 18.4362 11.9506 19.9506 8.59259C21.5309 5.23456 23.6049 2.60082 26.1728 0.691355C26.6996 0.230452 27.4897 0 28.5432 0C29.3992 0 30.0247 0.164609 30.4198 0.493827Z" fill="url(#paint0_linear_1_42888)"/>
<defs>
<linearGradient id="paint0_linear_1_42888" x1="-3.40594" y1="50.0772" x2="33.6029" y2="48.9338" gradientUnits="userSpaceOnUse">
<stop stop-color="#2693F5"/>
<stop offset="1" stop-color="#19CAFF"/>
</linearGradient>
</defs>
</svg>
