<svg width="170" height="40" viewBox="0 0 170 40" fill="none" xmlns="http://www.w3.org/2000/svg">
<path d="M113.049 16.3179H109.983V16.0601C109.983 14.9143 109.353 13.969 106.976 13.969C104.942 13.969 104.082 14.8283 104.082 15.9455C104.082 17.0054 104.884 17.4351 106.145 17.7216L109.296 18.4091C111.301 18.8674 113.421 19.8414 113.421 22.6201C113.421 25.3128 111.759 27.5186 107.233 27.5186C102.306 27.5186 100.903 25.456 100.903 23.3362V22.9638H103.996V23.2789C103.996 24.2816 104.655 25.1409 107.262 25.1409C109.382 25.1409 110.299 24.1956 110.299 22.9065C110.299 21.7893 109.41 21.3024 108.322 21.0732L105.343 20.4143C102.994 19.8701 101.103 19.0393 101.103 16.1747C101.103 13.7398 102.936 11.6486 107.033 11.6486C111.588 11.6486 113.049 13.7684 113.049 15.9742V16.3179Z" fill="#2E3245"/>
<path d="M98.189 22.792C98.189 24.8258 97.0432 27.5186 91.9155 27.5186C86.7019 27.5186 85.3269 24.3961 85.3269 21.5029V17.7502C85.3269 14.857 86.8738 11.6486 91.8869 11.6486C96.7853 11.6486 98.3036 14.857 98.3036 17.7502V20.4716H88.4493V21.818C88.4493 23.4795 89.2801 25.0836 91.9155 25.0836C94.4937 25.0836 95.2385 23.8232 95.2385 22.706V22.4768H98.189V22.792ZM88.4493 17.2919V18.1513H95.2671V17.2919C95.2671 15.745 94.4364 14.0549 91.8582 14.0549C89.2228 14.0549 88.4493 15.7737 88.4493 17.2919Z" fill="#2E3245"/>
<path d="M71.9289 27.2035H68.7778V11.9637H71.5852L71.757 14.0262C72.6164 12.5367 74.3065 11.6486 76.5123 11.6486C80.0358 11.6486 81.9837 14.0549 81.9837 17.4638V27.2035H78.804V18.2086C78.804 16.232 78.1451 14.4559 75.5383 14.4559C72.7883 14.4559 71.9289 16.3466 71.9289 18.495V27.2035Z" fill="#2E3245"/>
<path d="M58.772 32.3598H55.7641L57.6834 27.1748L52.1833 11.9637H55.5349L59.2303 22.9638L63.1835 11.9637H66.3345L58.772 32.3598Z" fill="#2E3245"/>
<path d="M47.6794 21.7034H50.8018V21.9899C50.8018 24.6253 49.1117 27.5186 44.471 27.5186C39.4006 27.5186 37.8538 24.3388 37.8538 21.4169V17.7502C37.8538 14.857 39.4006 11.6486 44.471 11.6486C49.2549 11.6486 50.7731 14.5705 50.7731 17.1773V17.4638H47.6794V17.1487C47.6794 15.7737 46.8773 14.2554 44.471 14.2554C41.8356 14.2554 41.0048 16.0601 41.0048 17.7216V21.4169C41.0048 23.0784 41.8356 24.8831 44.471 24.8831C46.8773 24.8831 47.6794 23.3649 47.6794 21.9899V21.7034Z" fill="#2E3245"/>
<path d="M34.3689 7.03765C34.6547 7.38262 34.655 7.87775 34.3862 8.23609L26.4544 18.8118C26.1878 19.1673 26.1878 19.6562 26.4544 20.0118L34.3862 30.5874C34.655 30.9458 34.6547 31.4409 34.3689 31.7859C30.8084 36.0849 25.4298 38.8235 19.4118 38.8235C8.69098 38.8235 0 30.1325 0 19.4118C0 8.69098 8.69098 0 19.4118 0C25.4298 0 30.8084 2.73863 34.3689 7.03765Z" fill="url(#paint0_linear_1_43003)"/>
<mask id="mask0_1_43003" style="mask-type:alpha" maskUnits="userSpaceOnUse" x="0" y="0" width="35" height="39">
<path d="M33.8747 6.46388C34.4724 7.13113 34.4693 8.1253 33.9318 8.84197L26.9044 18.2118C26.3711 18.9229 26.3711 19.9007 26.9044 20.6118L33.9318 29.9816C34.4693 30.6982 34.4724 31.6924 33.8747 32.3596C30.3204 36.3271 25.1576 38.8235 19.4118 38.8235C8.69098 38.8235 0 30.1325 0 19.4118C0 8.69098 8.69098 0 19.4118 0C25.1576 0 30.3204 2.49645 33.8747 6.46388Z" fill="url(#paint1_linear_1_43003)" fill-opacity="0.7"/>
</mask>
<g mask="url(#mask0_1_43003)">
<path d="M25.6383 31.4984C22.7693 28.9345 16.4818 23.1476 14.2843 20.5106L14.6505 15.5661C13.0023 15.3829 9.04674 16.7381 6.40967 23.6238C3.11333 32.2309 11.3542 36.8091 11.7204 37.1754C12.0134 37.4684 15.7493 38.8846 17.5806 39.5561C19.0456 39.0677 20.877 39.1898 23.2576 36.8091C24.8692 35.1976 25.7604 32.353 25.6383 31.4984Z" fill="url(#paint2_linear_1_43003)"/>
<path d="M25.6381 7.69147C25.455 0.732532 18.8623 0.366272 15.3828 0.366272L-6.95898 7.69147L2.19751 34.0622C4.63924 35.6493 10.5482 38.7137 14.6503 38.2742C10.4384 36.9922 8.05766 34.4284 6.40949 30.5827C4.76133 26.737 7.32511 20.8768 8.79015 19.2286C10.2552 17.5805 19.9611 11.3541 25.6381 7.69147Z" fill="url(#paint3_linear_1_43003)"/>
</g>
<g filter="url(#filter0_i_1_43003)">
<path d="M17.5805 7.69147H25.6383L16.4818 19.4118L25.6383 31.4983H17.5805L9.05661 20.0171C8.79056 19.6588 8.7942 19.1675 9.06552 18.8131L17.5805 7.69147Z" fill="#133E66"/>
</g>
<defs>
<filter id="filter0_i_1_43003" x="8.85962" y="7.69147" width="18.7786" height="25.8069" filterUnits="userSpaceOnUse" color-interpolation-filters="sRGB">
<feFlood flood-opacity="0" result="BackgroundImageFix"/>
<feBlend mode="normal" in="SourceGraphic" in2="BackgroundImageFix" result="shape"/>
<feColorMatrix in="SourceAlpha" type="matrix" values="0 0 0 0 0 0 0 0 0 0 0 0 0 0 0 0 0 0 127 0" result="hardAlpha"/>
<feOffset dx="2" dy="2"/>
<feGaussianBlur stdDeviation="4"/>
<feComposite in2="hardAlpha" operator="arithmetic" k2="-1" k3="1"/>
<feColorMatrix type="matrix" values="0 0 0 0 0 0 0 0 0 0 0 0 0 0 0 0 0 0 0.25 0"/>
<feBlend mode="normal" in2="shape" result="effect1_innerShadow_1_43003"/>
</filter>
<linearGradient id="paint0_linear_1_43003" x1="19.9612" y1="19.4118" x2="30.0333" y2="18.8624" gradientUnits="userSpaceOnUse">
<stop stop-color="#08C6FF"/>
<stop offset="1" stop-color="#A0EBFF"/>
</linearGradient>
<linearGradient id="paint1_linear_1_43003" x1="17.0311" y1="19.4118" x2="29.3008" y2="19.4118" gradientUnits="userSpaceOnUse">
<stop offset="0.365" stop-color="#00BEFF"/>
<stop offset="1" stop-color="#A0EBFF"/>
</linearGradient>
<linearGradient id="paint2_linear_1_43003" x1="10.4385" y1="25.6382" x2="22.5251" y2="37.1754" gradientUnits="userSpaceOnUse">
<stop stop-color="#007DFD"/>
<stop offset="0.671317" stop-color="#38D2FD"/>
<stop offset="1" stop-color="#D7F5FF"/>
</linearGradient>
<linearGradient id="paint3_linear_1_43003" x1="24.9056" y1="3.11322" x2="-2.01448" y2="23.2575" gradientUnits="userSpaceOnUse">
<stop stop-color="#0078F7"/>
<stop offset="0.321235" stop-color="#02C5FF"/>
<stop offset="1" stop-color="#DBF7FF"/>
</linearGradient>
</defs>
</svg>
