<svg width="313" height="327" viewBox="0 0 313 327" fill="none" xmlns="http://www.w3.org/2000/svg">
<g clip-path="url(#clip0_1_44921)">
<circle cx="181.5" cy="126.5" r="126.5" fill="url(#paint0_linear_1_44921)"/>
<path d="M139.5 54.6603C148.782 49.3013 160.218 49.3013 169.5 54.6603L254.248 103.59C263.53 108.949 269.248 118.853 269.248 129.571V227.429C269.248 238.147 263.53 248.051 254.248 253.41L169.5 302.34C160.218 307.699 148.782 307.699 139.5 302.34L54.7516 253.41C45.4696 248.051 39.7516 238.147 39.7516 227.429V129.571C39.7516 118.853 45.4696 108.949 54.7516 103.59L139.5 54.6603Z" fill="url(#paint1_linear_1_44921)"/>
<path d="M129.5 54.6603C138.782 49.3013 150.218 49.3013 159.5 54.6603L244.248 103.59C253.53 108.949 259.248 118.853 259.248 129.571V227.429C259.248 238.147 253.53 248.051 244.248 253.41L159.5 302.34C150.218 307.699 138.782 307.699 129.5 302.34L44.7516 253.41C35.4696 248.051 29.7516 238.147 29.7516 227.429V129.571C29.7516 118.853 35.4696 108.949 44.7516 103.59L129.5 54.6603Z" fill="url(#paint2_radial_1_44921)"/>
<path d="M130.125 55.7428C139.02 50.6071 149.98 50.6071 158.875 55.7428L243.623 104.672C252.519 109.808 257.998 119.299 257.998 129.571V227.429C257.998 237.701 252.519 247.192 243.623 252.328L158.875 301.257C149.98 306.393 139.02 306.393 130.125 301.257L45.3766 252.328C36.4814 247.192 31.0016 237.701 31.0016 227.429V129.571C31.0016 119.299 36.4814 109.808 45.3766 104.672L130.125 55.7428Z" stroke="url(#paint3_linear_1_44921)" stroke-opacity="0.7" stroke-width="2.5"/>
<g filter="url(#filter0_b_1_44921)">
<path d="M40.8763 38.6759C48.5541 31.5323 60.4459 31.5323 68.1237 38.6759L81.25 50.8891L95.2293 65.841C102.417 73.5286 102.417 85.4714 95.2293 93.159L81.25 108.111L68.1237 120.324C60.4459 127.468 48.5541 127.468 40.8763 120.324L27.75 108.111L13.7707 93.159C6.58299 85.4714 6.58299 73.5286 13.7707 65.8409L27.75 50.8891L40.8763 38.6759Z" fill="url(#paint4_linear_1_44921)"/>
<path d="M41.5575 39.408C48.8514 32.6216 60.1486 32.6216 67.4425 39.408L80.5433 51.5975L94.4989 66.5239C101.327 73.8272 101.327 85.1728 94.4989 92.4761L80.5434 107.402L67.4425 119.592C60.1486 126.378 48.8514 126.378 41.5575 119.592L28.4567 107.402L14.5011 92.4761C7.67284 85.1728 7.67284 73.8272 14.5011 66.5239L28.4567 51.5975L41.5575 39.408Z" stroke="url(#paint5_linear_1_44921)" stroke-opacity="0.7" stroke-width="2"/>
</g>
<g filter="url(#filter1_b_1_44921)">
<path d="M243.376 227.676C251.054 220.532 262.946 220.532 270.624 227.676L285 241.052L300.229 257.341C307.417 265.029 307.417 276.971 300.229 284.659L285 300.948L270.624 314.324C262.946 321.468 251.054 321.468 243.376 314.324L229 300.948L213.771 284.659C206.583 276.971 206.583 265.029 213.771 257.341L229 241.052L243.376 227.676Z" fill="url(#paint6_linear_1_44921)"/>
<path d="M244.058 228.408C251.351 221.622 262.649 221.622 269.942 228.408L284.293 241.761L299.499 258.024C306.327 265.327 306.327 276.673 299.499 283.976L284.293 300.239L269.942 313.592C262.649 320.378 251.351 320.378 244.058 313.592L229.707 300.239L214.501 283.976C207.673 276.673 207.673 265.327 214.501 258.024L229.707 241.761L244.058 228.408Z" stroke="url(#paint7_linear_1_44921)" stroke-opacity="0.7" stroke-width="2"/>
</g>
<circle cx="21.5" cy="285.5" r="21.5" fill="url(#paint8_radial_1_44921)"/>
<g filter="url(#filter2_d_1_44921)">
<path d="M114.787 131.14C124.467 124.685 135.679 121.661 146.777 122.03C157.875 122.394 168.856 126.14 178.088 133.217C187.478 140.41 193.994 150.261 197.158 161.094C198.656 161.139 200.401 161.309 202.01 161.772C205.849 162.872 209.175 165.94 211.409 170.771C213.633 175.601 214.61 181.966 213.605 188.547C212.609 195.107 209.837 200.513 206.366 203.872C202.888 207.23 198.911 208.504 195.052 207.504L190.31 206.247C182.754 217.629 171.15 225.791 157.855 229.032V230.539C157.855 233.563 155.426 236 152.399 236H137.597C134.567 236 132.128 233.563 132.128 230.539V227.658C132.128 224.635 134.567 222.198 137.597 222.198H149.336C166.966 220.546 182.202 208.909 188.348 192.109L191.103 173.766C190.371 160.604 184.027 148.065 173.102 139.697C157.396 127.653 135.808 126.949 119.342 137.936C107.04 146.152 99.6854 159.512 98.8907 173.704L102.831 199.926C103.645 205.335 100.763 206.263 94.9503 207.502C91.0464 208.322 87.1165 207.23 83.6359 203.871C80.1658 200.513 77.3914 195.106 76.3972 188.545C75.3961 181.964 76.3451 175.589 78.5955 170.769C80.3306 167.07 84.1894 162.871 89.32 161.417C90.6942 161.028 91.8515 160.976 92.8179 161.094C96.3176 149.114 103.915 138.397 114.787 131.14Z" fill="url(#paint9_linear_1_44921)"/>
<path fill-rule="evenodd" clip-rule="evenodd" d="M107.431 176.293C107.431 154.962 124.195 138.766 144.999 138.766C165.809 138.766 182.563 154.962 182.563 176.293C182.563 197.635 165.809 213.82 144.999 213.82C139.547 213.82 134.389 212.702 129.725 210.679L119.911 216.147C116.939 217.801 114.645 215.579 115.384 212.275L117.626 202.236C111.309 195.593 107.431 186.538 107.431 176.293ZM171.195 176.293C171.186 172.374 168.014 169.206 164.102 169.206C160.18 169.206 156.998 172.376 156.998 176.293C156.998 180.201 160.179 183.379 164.102 183.379C168.014 183.379 171.186 180.201 171.195 176.293ZM152.092 176.293C152.092 172.374 148.92 169.206 144.999 169.206C141.074 169.206 137.902 172.376 137.902 176.293C137.902 180.201 141.074 183.379 144.999 183.379C148.92 183.379 152.092 180.201 152.092 176.293ZM132.995 176.293C132.995 172.374 129.815 169.206 125.902 169.206C121.981 169.206 118.808 172.376 118.808 176.293C118.808 180.201 121.981 183.379 125.902 183.379C129.815 183.379 132.995 180.201 132.995 176.293Z" fill="url(#paint10_linear_1_44921)"/>
</g>
<g filter="url(#filter3_d_1_44921)">
<path d="M40.09 94.91C36.31 90.92 34 85.67 34 80C34 68.45 43.45 59 55 59C66.55 59 76 68.45 76 80C76 91.55 66.55 101 55 101H34L40.09 94.91ZM46.6 82.1C46.6 86.72 50.38 90.5 55 90.5C59.62 90.5 63.4 86.72 63.4 82.1H46.6Z" fill="url(#paint11_linear_1_44921)"/>
</g>
<g filter="url(#filter4_d_1_44921)">
<path fill-rule="evenodd" clip-rule="evenodd" d="M257 250C268.598 250 278 259.402 278 271C278 282.598 268.598 292 257 292C245.402 292 236 282.598 236 271C236 259.402 245.402 250 257 250ZM250.638 263.298C250.049 264.24 249.754 265.17 249.754 266.087C249.754 266.532 249.94 266.945 250.312 267.327C250.488 267.512 250.701 267.659 250.936 267.757C251.172 267.856 251.426 267.904 251.682 267.899C252.599 267.899 253.222 267.353 253.551 266.261C253.899 265.217 254.324 264.427 254.826 263.891C255.329 263.355 256.111 263.087 257.174 263.087C258.082 263.088 258.823 263.353 259.398 263.884C259.674 264.129 259.894 264.431 260.043 264.768C260.192 265.106 260.266 265.472 260.26 265.841C260.263 266.226 260.166 266.606 259.978 266.942C259.79 267.28 259.556 267.59 259.283 267.862C259.007 268.138 258.56 268.546 257.942 269.087C257.355 269.592 256.794 270.126 256.261 270.688C255.839 271.148 255.5 271.678 255.261 272.254C255.01 272.848 254.884 273.551 254.884 274.362C254.884 275.01 255.056 275.498 255.399 275.826C255.567 275.988 255.766 276.115 255.983 276.2C256.201 276.284 256.433 276.325 256.667 276.319C257.633 276.319 258.208 275.816 258.391 274.812C258.497 274.338 258.577 274.007 258.63 273.819C258.686 273.624 258.761 273.434 258.855 273.254C258.977 273.029 259.125 272.82 259.297 272.63C259.545 272.353 259.809 272.089 260.087 271.841C261.275 270.778 262.099 270.022 262.557 269.573C263.032 269.102 263.433 268.562 263.746 267.971C264.079 267.353 264.246 266.633 264.246 265.812C264.249 264.78 263.944 263.771 263.369 262.914C262.785 262.025 261.956 261.322 260.884 260.805C259.811 260.288 258.575 260.03 257.174 260.03C255.667 260.03 254.348 260.339 253.218 260.957C252.087 261.576 251.227 262.356 250.638 263.298ZM255.283 281.398C255.708 281.774 256.258 281.978 256.826 281.97C257.384 281.975 257.922 281.768 258.333 281.39C258.768 281.004 258.985 280.473 258.985 279.796C258.989 279.512 258.936 279.229 258.829 278.965C258.722 278.701 258.564 278.462 258.362 278.26C258.161 278.059 257.921 277.9 257.657 277.793C257.394 277.686 257.111 277.633 256.826 277.637C256.537 277.63 256.249 277.682 255.98 277.789C255.711 277.896 255.467 278.057 255.261 278.26C255.054 278.458 254.89 278.697 254.781 278.961C254.671 279.226 254.617 279.51 254.623 279.796C254.623 280.483 254.843 281.016 255.283 281.398Z" fill="url(#paint12_linear_1_44921)"/>
</g>
</g>
<defs>
<filter id="filter0_b_1_44921" x="-11.6201" y="13.3184" width="132.24" height="132.363" filterUnits="userSpaceOnUse" color-interpolation-filters="sRGB">
<feFlood flood-opacity="0" result="BackgroundImageFix"/>
<feGaussianBlur in="BackgroundImageFix" stdDeviation="10"/>
<feComposite in2="SourceAlpha" operator="in" result="effect1_backgroundBlur_1_44921"/>
<feBlend mode="normal" in="SourceGraphic" in2="effect1_backgroundBlur_1_44921" result="shape"/>
</filter>
<filter id="filter1_b_1_44921" x="188.38" y="202.318" width="137.24" height="137.363" filterUnits="userSpaceOnUse" color-interpolation-filters="sRGB">
<feFlood flood-opacity="0" result="BackgroundImageFix"/>
<feGaussianBlur in="BackgroundImageFix" stdDeviation="10"/>
<feComposite in2="SourceAlpha" operator="in" result="effect1_backgroundBlur_1_44921"/>
<feBlend mode="normal" in="SourceGraphic" in2="effect1_backgroundBlur_1_44921" result="shape"/>
</filter>
<filter id="filter2_d_1_44921" x="56" y="110" width="178" height="154" filterUnits="userSpaceOnUse" color-interpolation-filters="sRGB">
<feFlood flood-opacity="0" result="BackgroundImageFix"/>
<feColorMatrix in="SourceAlpha" type="matrix" values="0 0 0 0 0 0 0 0 0 0 0 0 0 0 0 0 0 0 127 0" result="hardAlpha"/>
<feOffset dy="8"/>
<feGaussianBlur stdDeviation="10"/>
<feComposite in2="hardAlpha" operator="out"/>
<feColorMatrix type="matrix" values="0 0 0 0 0.00392786 0 0 0 0 0.368416 0 0 0 0 0.524626 0 0 0 0.33 0"/>
<feBlend mode="normal" in2="BackgroundImageFix" result="effect1_dropShadow_1_44921"/>
<feBlend mode="normal" in="SourceGraphic" in2="effect1_dropShadow_1_44921" result="shape"/>
</filter>
<filter id="filter3_d_1_44921" x="26" y="53" width="58" height="58" filterUnits="userSpaceOnUse" color-interpolation-filters="sRGB">
<feFlood flood-opacity="0" result="BackgroundImageFix"/>
<feColorMatrix in="SourceAlpha" type="matrix" values="0 0 0 0 0 0 0 0 0 0 0 0 0 0 0 0 0 0 127 0" result="hardAlpha"/>
<feOffset dy="2"/>
<feGaussianBlur stdDeviation="4"/>
<feComposite in2="hardAlpha" operator="out"/>
<feColorMatrix type="matrix" values="0 0 0 0 0 0 0 0 0 0.146822 0 0 0 0 0.253141 0 0 0 0.15 0"/>
<feBlend mode="normal" in2="BackgroundImageFix" result="effect1_dropShadow_1_44921"/>
<feBlend mode="normal" in="SourceGraphic" in2="effect1_dropShadow_1_44921" result="shape"/>
</filter>
<filter id="filter4_d_1_44921" x="228" y="244" width="58" height="58" filterUnits="userSpaceOnUse" color-interpolation-filters="sRGB">
<feFlood flood-opacity="0" result="BackgroundImageFix"/>
<feColorMatrix in="SourceAlpha" type="matrix" values="0 0 0 0 0 0 0 0 0 0 0 0 0 0 0 0 0 0 127 0" result="hardAlpha"/>
<feOffset dy="2"/>
<feGaussianBlur stdDeviation="4"/>
<feComposite in2="hardAlpha" operator="out"/>
<feColorMatrix type="matrix" values="0 0 0 0 0 0 0 0 0 0.131887 0 0 0 0 0.25363 0 0 0 0.15 0"/>
<feBlend mode="normal" in2="BackgroundImageFix" result="effect1_dropShadow_1_44921"/>
<feBlend mode="normal" in="SourceGraphic" in2="effect1_dropShadow_1_44921" result="shape"/>
</filter>
<linearGradient id="paint0_linear_1_44921" x1="292.328" y1="11.0422" x2="170" y2="121.5" gradientUnits="userSpaceOnUse">
<stop stop-color="#72EBFF" stop-opacity="0.2"/>
<stop offset="1" stop-color="#19CAFF" stop-opacity="0"/>
</linearGradient>
<linearGradient id="paint1_linear_1_44921" x1="160.5" y1="317" x2="156.443" y2="-16.5176" gradientUnits="userSpaceOnUse">
<stop offset="0.01" stop-color="#D2F5FF"/>
<stop offset="0.355" stop-color="#19CAFF"/>
<stop offset="1" stop-color="#0F568C"/>
</linearGradient>
<radialGradient id="paint2_radial_1_44921" cx="0" cy="0" r="1" gradientUnits="userSpaceOnUse" gradientTransform="translate(232.5 99) rotate(129.719) scale(295.766)">
<stop stop-color="#BFF0FF"/>
<stop offset="0.492892" stop-color="#19CAFF"/>
<stop offset="1" stop-color="#2693F5"/>
</radialGradient>
<linearGradient id="paint3_linear_1_44921" x1="34.967" y1="311" x2="235" y2="93.5" gradientUnits="userSpaceOnUse">
<stop stop-color="#86D2FF"/>
<stop offset="0.4" stop-color="#6EBAFF"/>
<stop offset="1" stop-color="white"/>
</linearGradient>
<linearGradient id="paint4_linear_1_44921" x1="100.357" y1="30.5493" x2="6.22382" y2="137.943" gradientUnits="userSpaceOnUse">
<stop stop-color="white" stop-opacity="0.3"/>
<stop offset="1" stop-color="#B1EDFF" stop-opacity="0.5"/>
</linearGradient>
<linearGradient id="paint5_linear_1_44921" x1="33.0684" y1="133" x2="75.9316" y2="26" gradientUnits="userSpaceOnUse">
<stop stop-color="#CDECFF"/>
<stop offset="0.545" stop-color="#A0EBFF"/>
<stop offset="1" stop-color="white"/>
</linearGradient>
<linearGradient id="paint6_linear_1_44921" x1="305" y1="219.762" x2="206.468" y2="332.174" gradientUnits="userSpaceOnUse">
<stop stop-color="white" stop-opacity="0.3"/>
<stop offset="1" stop-color="#B1EDFF" stop-opacity="0.5"/>
</linearGradient>
<linearGradient id="paint7_linear_1_44921" x1="234.567" y1="327" x2="279.433" y2="215" gradientUnits="userSpaceOnUse">
<stop stop-color="#CDECFF"/>
<stop offset="0.545" stop-color="#A0EBFF"/>
<stop offset="1" stop-color="white"/>
</linearGradient>
<radialGradient id="paint8_radial_1_44921" cx="0" cy="0" r="1" gradientUnits="userSpaceOnUse" gradientTransform="translate(29 272) rotate(127.147) scale(41.4005)">
<stop stop-color="#C3F1FF"/>
<stop offset="0.617707" stop-color="#19CAFF"/>
<stop offset="1" stop-color="#0078F7"/>
</radialGradient>
<linearGradient id="paint9_linear_1_44921" x1="190" y1="109" x2="-36" y2="302" gradientUnits="userSpaceOnUse">
<stop stop-color="white"/>
<stop offset="1" stop-color="#A0EBFF"/>
</linearGradient>
<linearGradient id="paint10_linear_1_44921" x1="190" y1="109" x2="-36" y2="302" gradientUnits="userSpaceOnUse">
<stop stop-color="white"/>
<stop offset="1" stop-color="#A0EBFF"/>
</linearGradient>
<linearGradient id="paint11_linear_1_44921" x1="55" y1="59" x2="-15" y2="164" gradientUnits="userSpaceOnUse">
<stop stop-color="white"/>
<stop offset="1" stop-color="#CDF4FF"/>
</linearGradient>
<linearGradient id="paint12_linear_1_44921" x1="257" y1="250" x2="286" y2="335.5" gradientUnits="userSpaceOnUse">
<stop stop-color="white"/>
<stop offset="1" stop-color="#CBF4FF"/>
</linearGradient>
<clipPath id="clip0_1_44921">
<rect width="313" height="327" fill="white"/>
</clipPath>
</defs>
</svg>
