<svg width="380" height="37" viewBox="0 0 380 37" fill="none" xmlns="http://www.w3.org/2000/svg">
<path d="M370 35.5609V36.5609H369.542L369.243 36.2141L370 35.5609ZM344.5 6V5H344.958L345.257 5.34682L344.5 6ZM10.8333 6C10.8333 8.94552 8.44553 11.3333 5.5 11.3333C2.55447 11.3333 0.166656 8.94552 0.166656 6C0.166656 3.05448 2.55447 0.666667 5.5 0.666667C8.44553 0.666667 10.8333 3.05448 10.8333 6ZM380.5 36.5609H370V34.5609H380.5V36.5609ZM369.243 36.2141L343.743 6.65318L345.257 5.34682L370.757 34.9077L369.243 36.2141ZM344.5 7H5.5V5H344.5V7Z" fill="url(#paint0_linear_1_40772)"/>
<defs>
<linearGradient id="paint0_linear_1_40772" x1="420.413" y1="60.5029" x2="29.5534" y2="-69.5165" gradientUnits="userSpaceOnUse">
<stop stop-color="#2693F5"/>
<stop offset="1" stop-color="#19CAFF"/>
</linearGradient>
</defs>
</svg>
