<svg width="985" height="84" viewBox="0 0 985 84" fill="none" xmlns="http://www.w3.org/2000/svg">
<path d="M281.5 83V84H281.982L282.282 83.6232L281.5 83ZM307 51V50H306.518L306.218 50.3768L307 51ZM973.667 51C973.667 53.9455 976.055 56.3333 979 56.3333C981.945 56.3333 984.333 53.9455 984.333 51C984.333 48.0545 981.945 45.6667 979 45.6667C976.055 45.6667 973.667 48.0545 973.667 51ZM0 84H281.5V82H0V84ZM282.282 83.6232L307.782 51.6232L306.218 50.3768L280.718 82.3768L282.282 83.6232ZM307 52H979V50H307V52Z" fill="url(#paint0_linear_1_43017)"/>
<path d="M826.716 16.5795H822.466C822.345 15.8826 822.121 15.2652 821.795 14.7273C821.47 14.1818 821.064 13.7197 820.58 13.3409C820.095 12.9621 819.542 12.678 818.92 12.4886C818.307 12.2917 817.644 12.1932 816.932 12.1932C815.667 12.1932 814.545 12.5114 813.568 13.1477C812.591 13.7765 811.826 14.7008 811.273 15.9205C810.72 17.1326 810.443 18.6136 810.443 20.3636C810.443 22.1439 810.72 23.6439 811.273 24.8636C811.833 26.0758 812.598 26.9924 813.568 27.6136C814.545 28.2273 815.663 28.5341 816.92 28.5341C817.617 28.5341 818.269 28.4432 818.875 28.2614C819.489 28.072 820.038 27.7955 820.523 27.4318C821.015 27.0682 821.428 26.6212 821.761 26.0909C822.102 25.5606 822.337 24.9545 822.466 24.2727L826.716 24.2955C826.557 25.4015 826.212 26.4394 825.682 27.4091C825.159 28.3788 824.473 29.2348 823.625 29.9773C822.777 30.7121 821.784 31.2879 820.648 31.7045C819.511 32.1136 818.25 32.3182 816.864 32.3182C814.818 32.3182 812.992 31.8447 811.386 30.8977C809.78 29.9508 808.515 28.5833 807.591 26.7955C806.667 25.0076 806.205 22.8636 806.205 20.3636C806.205 17.8561 806.67 15.7121 807.602 13.9318C808.534 12.1439 809.803 10.7765 811.409 9.82954C813.015 8.88257 814.833 8.40909 816.864 8.40909C818.159 8.40909 819.364 8.59091 820.477 8.95454C821.591 9.31818 822.583 9.85227 823.455 10.5568C824.326 11.2538 825.042 12.1098 825.602 13.125C826.17 14.1326 826.542 15.2841 826.716 16.5795ZM833.108 38.5455C832.547 38.5455 832.028 38.5 831.551 38.4091C831.081 38.3258 830.706 38.2273 830.426 38.1136L831.381 34.9091C831.979 35.0833 832.513 35.1667 832.983 35.1591C833.453 35.1515 833.866 35.0038 834.222 34.7159C834.585 34.4356 834.892 33.9659 835.142 33.3068L835.494 32.3636L829.165 14.5455H833.528L837.551 27.7273H837.733L841.767 14.5455H846.142L839.153 34.1136C838.828 35.0379 838.396 35.8295 837.858 36.4886C837.32 37.1553 836.661 37.6629 835.881 38.0114C835.108 38.3674 834.184 38.5455 833.108 38.5455ZM853.102 21.7727V32H848.989V14.5455H852.92V17.5114H853.125C853.527 16.5341 854.167 15.7576 855.045 15.1818C855.932 14.6061 857.027 14.3182 858.33 14.3182C859.534 14.3182 860.583 14.5758 861.477 15.0909C862.379 15.6061 863.076 16.3523 863.568 17.3295C864.068 18.3068 864.314 19.4924 864.307 20.8864V32H860.193V21.5227C860.193 20.3561 859.89 19.4432 859.284 18.7841C858.686 18.125 857.856 17.7955 856.795 17.7955C856.076 17.7955 855.436 17.9545 854.875 18.2727C854.322 18.5833 853.886 19.0341 853.568 19.625C853.258 20.2159 853.102 20.9318 853.102 21.7727ZM876.216 32.3409C874.466 32.3409 872.955 31.9773 871.682 31.25C870.417 30.5152 869.443 29.4773 868.761 28.1364C868.08 26.7879 867.739 25.2008 867.739 23.375C867.739 21.5795 868.08 20.0038 868.761 18.6477C869.451 17.2841 870.413 16.2235 871.648 15.4659C872.883 14.7008 874.333 14.3182 876 14.3182C877.076 14.3182 878.091 14.4924 879.045 14.8409C880.008 15.1818 880.856 15.7121 881.591 16.4318C882.333 17.1515 882.917 18.0682 883.341 19.1818C883.765 20.2879 883.977 21.6061 883.977 23.1364V24.3977H869.67V21.625H880.034C880.027 20.8371 879.856 20.1364 879.523 19.5227C879.189 18.9015 878.723 18.4129 878.125 18.0568C877.534 17.7008 876.845 17.5227 876.057 17.5227C875.216 17.5227 874.477 17.7273 873.841 18.1364C873.205 18.5379 872.708 19.0682 872.352 19.7273C872.004 20.3788 871.826 21.0947 871.818 21.875V24.2955C871.818 25.3106 872.004 26.1818 872.375 26.9091C872.746 27.6288 873.265 28.1818 873.932 28.5682C874.598 28.947 875.379 29.1364 876.273 29.1364C876.871 29.1364 877.413 29.053 877.898 28.8864C878.383 28.7121 878.803 28.4583 879.159 28.125C879.515 27.7917 879.784 27.3788 879.966 26.8864L883.807 27.3182C883.564 28.3333 883.102 29.2197 882.42 29.9773C881.746 30.7273 880.883 31.3106 879.83 31.7273C878.777 32.1364 877.572 32.3409 876.216 32.3409ZM901.253 19.1591L897.503 19.5682C897.397 19.1894 897.211 18.8333 896.946 18.5C896.688 18.1667 896.34 17.8977 895.901 17.6932C895.461 17.4886 894.923 17.3864 894.287 17.3864C893.431 17.3864 892.711 17.572 892.128 17.9432C891.552 18.3144 891.268 18.7955 891.276 19.3864C891.268 19.8939 891.454 20.3068 891.832 20.625C892.219 20.9432 892.855 21.2045 893.741 21.4091L896.719 22.0455C898.37 22.4015 899.598 22.9659 900.401 23.7386C901.211 24.5114 901.62 25.5227 901.628 26.7727C901.62 27.8712 901.298 28.8409 900.662 29.6818C900.033 30.5152 899.158 31.1667 898.037 31.6364C896.916 32.1061 895.628 32.3409 894.173 32.3409C892.037 32.3409 890.317 31.8939 889.014 31C887.711 30.0985 886.935 28.8447 886.685 27.2386L890.696 26.8523C890.878 27.6402 891.264 28.2348 891.855 28.6364C892.446 29.0379 893.215 29.2386 894.162 29.2386C895.139 29.2386 895.923 29.0379 896.514 28.6364C897.113 28.2348 897.412 27.7386 897.412 27.1477C897.412 26.6477 897.219 26.2348 896.832 25.9091C896.454 25.5833 895.863 25.3333 895.06 25.1591L892.082 24.5341C890.408 24.1856 889.17 23.5985 888.366 22.7727C887.563 21.9394 887.166 20.8864 887.173 19.6136C887.166 18.5379 887.457 17.6061 888.048 16.8182C888.647 16.0227 889.476 15.4091 890.537 14.9773C891.605 14.5379 892.836 14.3182 894.23 14.3182C896.276 14.3182 897.885 14.7538 899.06 15.625C900.241 16.4962 900.973 17.6742 901.253 19.1591ZM907.554 32.25C906.865 32.25 906.274 32.0076 905.781 31.5227C905.289 31.0379 905.046 30.447 905.054 29.75C905.046 29.0682 905.289 28.4848 905.781 28C906.274 27.5152 906.865 27.2727 907.554 27.2727C908.221 27.2727 908.8 27.5152 909.293 28C909.793 28.4848 910.046 29.0682 910.054 29.75C910.046 30.2121 909.925 30.6326 909.69 31.0114C909.463 31.3902 909.16 31.6932 908.781 31.9205C908.41 32.1402 908.001 32.25 907.554 32.25Z" fill="#2E3245"/>
<path d="M922.028 32.3409C920.278 32.3409 918.767 31.9773 917.494 31.25C916.229 30.5152 915.256 29.4773 914.574 28.1364C913.892 26.7879 913.551 25.2008 913.551 23.375C913.551 21.5795 913.892 20.0038 914.574 18.6477C915.263 17.2841 916.225 16.2235 917.46 15.4659C918.695 14.7008 920.146 14.3182 921.812 14.3182C922.888 14.3182 923.903 14.4924 924.858 14.8409C925.82 15.1818 926.669 15.7121 927.403 16.4318C928.146 17.1515 928.729 18.0682 929.153 19.1818C929.578 20.2879 929.79 21.6061 929.79 23.1364V24.3977H915.483V21.625H925.847C925.839 20.8371 925.669 20.1364 925.335 19.5227C925.002 18.9015 924.536 18.4129 923.938 18.0568C923.347 17.7008 922.657 17.5227 921.869 17.5227C921.028 17.5227 920.29 17.7273 919.653 18.1364C919.017 18.5379 918.521 19.0682 918.165 19.7273C917.816 20.3788 917.638 21.0947 917.631 21.875V24.2955C917.631 25.3106 917.816 26.1818 918.188 26.9091C918.559 27.6288 919.078 28.1818 919.744 28.5682C920.411 28.947 921.191 29.1364 922.085 29.1364C922.684 29.1364 923.225 29.053 923.71 28.8864C924.195 28.7121 924.616 28.4583 924.972 28.125C925.328 27.7917 925.597 27.3788 925.778 26.8864L929.619 27.3182C929.377 28.3333 928.915 29.2197 928.233 29.9773C927.559 30.7273 926.695 31.3106 925.642 31.7273C924.589 32.1364 923.384 32.3409 922.028 32.3409ZM939.747 32.3068C938.376 32.3068 937.149 31.9545 936.065 31.25C934.982 30.5455 934.126 29.5227 933.497 28.1818C932.868 26.8409 932.554 25.2121 932.554 23.2955C932.554 21.3561 932.872 19.7197 933.509 18.3864C934.152 17.0455 935.02 16.0341 936.111 15.3523C937.202 14.6629 938.418 14.3182 939.759 14.3182C940.781 14.3182 941.622 14.4924 942.281 14.8409C942.94 15.1818 943.463 15.5947 943.849 16.0795C944.236 16.5568 944.535 17.0076 944.747 17.4318H944.918V8.72727H949.043V32H944.997V29.25H944.747C944.535 29.6742 944.228 30.125 943.827 30.6023C943.425 31.072 942.895 31.4735 942.236 31.8068C941.577 32.1402 940.747 32.3068 939.747 32.3068ZM940.895 28.9318C941.766 28.9318 942.509 28.697 943.122 28.2273C943.736 27.75 944.202 27.0871 944.52 26.2386C944.838 25.3902 944.997 24.4015 944.997 23.2727C944.997 22.1439 944.838 21.1629 944.52 20.3295C944.209 19.4962 943.747 18.8485 943.134 18.3864C942.527 17.9242 941.781 17.6932 940.895 17.6932C939.978 17.6932 939.213 17.9318 938.599 18.4091C937.986 18.8864 937.524 19.5455 937.213 20.3864C936.902 21.2273 936.747 22.1894 936.747 23.2727C936.747 24.3636 936.902 25.3371 937.213 26.1932C937.531 27.0417 937.997 27.7121 938.611 28.2045C939.232 28.6894 939.993 28.9318 940.895 28.9318ZM953.426 32V14.5455H957.415V17.4545H957.597C957.915 16.447 958.46 15.6705 959.233 15.125C960.013 14.572 960.903 14.2955 961.903 14.2955C962.131 14.2955 962.384 14.3068 962.665 14.3295C962.953 14.3447 963.191 14.3712 963.381 14.4091V18.1932C963.206 18.1326 962.93 18.0795 962.551 18.0341C962.18 17.9811 961.82 17.9545 961.472 17.9545C960.722 17.9545 960.047 18.1174 959.449 18.4432C958.858 18.7614 958.392 19.2045 958.051 19.7727C957.71 20.3409 957.54 20.9962 957.54 21.7386V32H953.426Z" fill="#19CAFF"/>
<defs>
<linearGradient id="paint0_linear_1_43017" x1="-104.2" y1="110" x2="585.336" y2="-443.176" gradientUnits="userSpaceOnUse">
<stop stop-color="#2693F5"/>
<stop offset="1" stop-color="#19CAFF"/>
</linearGradient>
</defs>
</svg>
