<svg width="18" height="18" viewBox="0 0 18 18" fill="none" xmlns="http://www.w3.org/2000/svg">
<g id="twitter 1" clip-path="url(#clip0_1_43069)">
<g id="Layer 2">
<g id="02.twitter">
<path id="Vector" d="M9 0C7.21997 0 5.47991 0.527841 3.99987 1.51677C2.51983 2.50571 1.36628 3.91131 0.685088 5.55585C0.00389954 7.20038 -0.17433 9.00998 0.172937 10.7558C0.520204 12.5016 1.37737 14.1053 2.63604 15.364C3.89472 16.6226 5.49836 17.4798 7.24419 17.8271C8.99002 18.1743 10.7996 17.9961 12.4442 17.3149C14.0887 16.6337 15.4943 15.4802 16.4832 14.0001C17.4722 12.5201 18 10.78 18 9C18 6.61305 17.0518 4.32387 15.364 2.63604C13.6761 0.948211 11.387 0 9 0ZM13.4822 6.27632C13.2695 6.59587 13.0096 6.88135 12.7113 7.12303C12.6737 7.15436 12.6436 7.19369 12.6231 7.23814C12.6026 7.2826 12.5923 7.33106 12.5929 7.38V7.40961C12.5894 8.05138 12.4715 8.68739 12.2447 9.28776C12.0111 9.9179 11.6639 10.4999 11.2204 11.0049C10.6244 11.6833 9.8578 12.1899 9 12.4721C8.43635 12.655 7.84706 12.7466 7.25448 12.7433C6.31438 12.7432 5.39104 12.4944 4.57816 12.0221C4.54903 12.0055 4.5261 11.9799 4.51285 11.9492C4.4996 11.9184 4.49675 11.8841 4.50474 11.8516C4.51294 11.8196 4.53162 11.7912 4.5578 11.771C4.58398 11.7509 4.61616 11.74 4.64921 11.7403H4.87421C5.58857 11.7415 6.28705 11.5296 6.88027 11.1316C6.52688 11.0739 6.19623 10.9199 5.92464 10.6865C5.65306 10.4532 5.45104 10.1495 5.34079 9.80882C5.33516 9.79176 5.33413 9.77351 5.33783 9.75593C5.34152 9.73834 5.3498 9.72205 5.36183 9.7087C5.37386 9.69535 5.3892 9.68542 5.4063 9.67992C5.42341 9.67442 5.44166 9.67354 5.45921 9.67737C5.56699 9.69765 5.6764 9.70795 5.78606 9.70816H5.8275C5.48586 9.55136 5.19699 9.2989 4.99585 8.98133C4.79472 8.66376 4.68994 8.2947 4.69421 7.91882C4.69434 7.90123 4.69901 7.88397 4.70778 7.86873C4.71655 7.85349 4.72912 7.84077 4.74427 7.83183C4.75941 7.82289 4.77661 7.81802 4.7942 7.8177C4.81178 7.81738 4.82915 7.82162 4.84461 7.83C4.98353 7.90756 5.1326 7.96536 5.2875 8.00171C4.98161 7.69887 4.78484 7.30309 4.72805 6.87641C4.67126 6.44972 4.75765 6.01625 4.97369 5.64395C4.98198 5.62972 4.99359 5.61772 5.00754 5.60896C5.02149 5.60021 5.03735 5.59497 5.05376 5.59369C5.07018 5.5924 5.08666 5.59512 5.10179 5.60161C5.11693 5.60809 5.13027 5.61815 5.14066 5.63092C5.5688 6.15993 6.09864 6.59776 6.69887 6.91852C7.2991 7.23927 7.95753 7.43646 8.63527 7.49842H8.64474C8.6547 7.49813 8.6645 7.49582 8.67354 7.49162C8.68257 7.48743 8.69066 7.48143 8.69731 7.47401C8.70396 7.46659 8.70902 7.45789 8.7122 7.44845C8.71538 7.439 8.7166 7.42901 8.71579 7.41908C8.68943 7.18142 8.70466 6.94099 8.76079 6.70855C8.8372 6.39262 8.99404 6.10183 9.21607 5.86444C9.4381 5.62706 9.71777 5.45115 10.0279 5.35382C10.2269 5.29166 10.434 5.25973 10.6425 5.25908C11.1152 5.25853 11.5717 5.43079 11.9262 5.74342C11.9721 5.78451 12.0315 5.80727 12.0932 5.80737C12.1132 5.80694 12.133 5.80416 12.1524 5.79908C12.4852 5.71482 12.8043 5.58321 13.0997 5.40829C13.1174 5.39739 13.138 5.39222 13.1587 5.39349C13.1794 5.39475 13.1993 5.40239 13.2155 5.41536C13.2317 5.42832 13.2435 5.44598 13.2493 5.46592C13.255 5.48585 13.2545 5.50708 13.2478 5.52671C13.1492 5.83672 12.9736 6.11664 12.7374 6.34026C12.9503 6.29006 13.1581 6.21988 13.3579 6.13066C13.3775 6.1233 13.3989 6.12216 13.4191 6.12739C13.4394 6.13262 13.4576 6.14396 13.4712 6.15988C13.4847 6.1758 13.4931 6.19551 13.4951 6.21635C13.4971 6.23718 13.4926 6.25812 13.4822 6.27632Z" fill="#19CAFF"/>
</g>
</g>
</g>
<defs>
<clipPath id="clip0_1_43069">
<rect width="18" height="18" fill="white"/>
</clipPath>
</defs>
</svg>
