<svg width="18" height="18" viewBox="0 0 18 18" fill="none" xmlns="http://www.w3.org/2000/svg">
<g id="youtube 1" clip-path="url(#clip0_1_43064)">
<g id="Layer 2">
<g id="04.youtube">
<path id="Vector" d="M7.92334 7.27588L10.7311 9.00009L7.92334 10.7255V7.27588Z" fill="#19CAFF"/>
<path id="Vector_2" d="M9 0C7.21997 0 5.47991 0.527841 3.99987 1.51677C2.51983 2.50571 1.36628 3.91131 0.685088 5.55585C0.00389954 7.20038 -0.17433 9.00998 0.172937 10.7558C0.520204 12.5016 1.37737 14.1053 2.63604 15.364C3.89472 16.6226 5.49836 17.4798 7.24419 17.8271C8.99002 18.1743 10.7996 17.9961 12.4442 17.3149C14.0887 16.6337 15.4943 15.4802 16.4832 14.0001C17.4722 12.5201 18 10.78 18 9C18 6.61305 17.0518 4.32387 15.364 2.63604C13.6761 0.948211 11.387 0 9 0ZM13.2892 11.1659C13.1092 11.7189 12.5136 12.0553 11.9653 12.1322C9.99398 12.3418 8.00603 12.3418 6.03474 12.1322C5.48645 12.0553 4.89079 11.7189 4.71079 11.1659C4.43014 9.73601 4.43014 8.26518 4.71079 6.83526C4.89079 6.27632 5.48645 5.94592 6.03948 5.86895C8.01076 5.65934 9.99872 5.65934 11.97 5.86895C12.5183 5.94592 13.114 6.28105 13.294 6.83526C13.573 8.26548 13.5714 9.73632 13.2892 11.1659Z" fill="#19CAFF"/>
</g>
</g>
</g>
<defs>
<clipPath id="clip0_1_43064">
<rect width="18" height="18" fill="white"/>
</clipPath>
</defs>
</svg>
